<svg width="1143" height="505" viewBox="0 0 1143 505" fill="none" xmlns="http://www.w3.org/2000/svg">
<rect x="880.5" y="7.5" width="262" height="431" fill="white" stroke="black"/>
<circle cx="60.5" cy="241.5" r="60.5" fill="#C4C4C4"/>
<path d="M30.3242 228.395C28.3945 227.84 26.9883 227.16 26.1055 226.355C25.2305 225.543 24.793 224.543 24.793 223.355C24.793 222.012 25.3281 220.902 26.3984 220.027C27.4766 219.145 28.875 218.703 30.5938 218.703C31.7656 218.703 32.8086 218.93 33.7227 219.383C34.6445 219.836 35.3555 220.461 35.8555 221.258C36.3633 222.055 36.6172 222.926 36.6172 223.871H34.3555C34.3555 222.84 34.0273 222.031 33.3711 221.445C32.7148 220.852 31.7891 220.555 30.5938 220.555C29.4844 220.555 28.6172 220.801 27.9922 221.293C27.375 221.777 27.0664 222.453 27.0664 223.32C27.0664 224.016 27.3594 224.605 27.9453 225.09C28.5391 225.566 29.543 226.004 30.957 226.402C32.3789 226.801 33.4883 227.242 34.2852 227.727C35.0898 228.203 35.6836 228.762 36.0664 229.402C36.457 230.043 36.6523 230.797 36.6523 231.664C36.6523 233.047 36.1133 234.156 35.0352 234.992C33.957 235.82 32.5156 236.234 30.7109 236.234C29.5391 236.234 28.4453 236.012 27.4297 235.566C26.4141 235.113 25.6289 234.496 25.0742 233.715C24.5273 232.934 24.2539 232.047 24.2539 231.055H26.5156C26.5156 232.086 26.8945 232.902 27.6523 233.504C28.418 234.098 29.4375 234.395 30.7109 234.395C31.8984 234.395 32.8086 234.152 33.4414 233.668C34.0742 233.184 34.3906 232.523 34.3906 231.688C34.3906 230.852 34.0977 230.207 33.5117 229.754C32.9258 229.293 31.8633 228.84 30.3242 228.395ZM38.6328 229.543C38.6328 228.301 38.875 227.184 39.3594 226.191C39.8516 225.199 40.5312 224.434 41.3984 223.895C42.2734 223.355 43.2695 223.086 44.3867 223.086C46.1133 223.086 47.5078 223.684 48.5703 224.879C49.6406 226.074 50.1758 227.664 50.1758 229.648V229.801C50.1758 231.035 49.9375 232.145 49.4609 233.129C48.9922 234.105 48.3164 234.867 47.4336 235.414C46.5586 235.961 45.5508 236.234 44.4102 236.234C42.6914 236.234 41.2969 235.637 40.2266 234.441C39.1641 233.246 38.6328 231.664 38.6328 229.695V229.543ZM40.8125 229.801C40.8125 231.207 41.1367 232.336 41.7852 233.188C42.4414 234.039 43.3164 234.465 44.4102 234.465C45.5117 234.465 46.3867 234.035 47.0352 233.176C47.6836 232.309 48.0078 231.098 48.0078 229.543C48.0078 228.152 47.6758 227.027 47.0117 226.168C46.3555 225.301 45.4805 224.867 44.3867 224.867C43.3164 224.867 42.4531 225.293 41.7969 226.145C41.1406 226.996 40.8125 228.215 40.8125 229.801ZM60.7227 234.746C59.8789 235.738 58.6406 236.234 57.0078 236.234C55.6562 236.234 54.625 235.844 53.9141 235.062C53.2109 234.273 52.8555 233.109 52.8477 231.57V223.32H55.0156V231.512C55.0156 233.434 55.7969 234.395 57.3594 234.395C59.0156 234.395 60.1172 233.777 60.6641 232.543V223.32H62.832V236H60.7695L60.7227 234.746ZM72.2656 225.266C71.9375 225.211 71.582 225.184 71.1992 225.184C69.7773 225.184 68.8125 225.789 68.3047 227V236H66.1367V223.32H68.2461L68.2812 224.785C68.9922 223.652 70 223.086 71.3047 223.086C71.7266 223.086 72.0469 223.141 72.2656 223.25V225.266ZM79.1211 234.465C79.8945 234.465 80.5703 234.23 81.1484 233.762C81.7266 233.293 82.0469 232.707 82.1094 232.004H84.1602C84.1211 232.73 83.8711 233.422 83.4102 234.078C82.9492 234.734 82.332 235.258 81.5586 235.648C80.793 236.039 79.9805 236.234 79.1211 236.234C77.3945 236.234 76.0195 235.66 74.9961 234.512C73.9805 233.355 73.4727 231.777 73.4727 229.777V229.414C73.4727 228.18 73.6992 227.082 74.1523 226.121C74.6055 225.16 75.2539 224.414 76.0977 223.883C76.9492 223.352 77.9531 223.086 79.1094 223.086C80.5312 223.086 81.7109 223.512 82.6484 224.363C83.5938 225.215 84.0977 226.32 84.1602 227.68H82.1094C82.0469 226.859 81.7344 226.188 81.1719 225.664C80.6172 225.133 79.9297 224.867 79.1094 224.867C78.0078 224.867 77.1523 225.266 76.543 226.062C75.9414 226.852 75.6406 227.996 75.6406 229.496V229.906C75.6406 231.367 75.9414 232.492 76.543 233.281C77.1445 234.07 78.0039 234.465 79.1211 234.465ZM91.8594 236.234C90.1406 236.234 88.7422 235.672 87.6641 234.547C86.5859 233.414 86.0469 231.902 86.0469 230.012V229.613C86.0469 228.355 86.2852 227.234 86.7617 226.25C87.2461 225.258 87.918 224.484 88.7773 223.93C89.6445 223.367 90.582 223.086 91.5898 223.086C93.2383 223.086 94.5195 223.629 95.4336 224.715C96.3477 225.801 96.8047 227.355 96.8047 229.379V230.281H88.2148C88.2461 231.531 88.6094 232.543 89.3047 233.316C90.0078 234.082 90.8984 234.465 91.9766 234.465C92.7422 234.465 93.3906 234.309 93.9219 233.996C94.4531 233.684 94.918 233.27 95.3164 232.754L96.6406 233.785C95.5781 235.418 93.9844 236.234 91.8594 236.234ZM91.5898 224.867C90.7148 224.867 89.9805 225.188 89.3867 225.828C88.793 226.461 88.4258 227.352 88.2852 228.5H94.6367V228.336C94.5742 227.234 94.2773 226.383 93.7461 225.781C93.2148 225.172 92.4961 224.867 91.5898 224.867ZM37.8594 257.555C37.8594 255.609 38.3203 254.047 39.2422 252.867C40.1641 251.68 41.3711 251.086 42.8633 251.086C44.3477 251.086 45.5234 251.594 46.3906 252.609V246H48.5586V264H46.5664L46.4609 262.641C45.5938 263.703 44.3867 264.234 42.8398 264.234C41.3711 264.234 40.1719 263.633 39.2422 262.43C38.3203 261.227 37.8594 259.656 37.8594 257.719V257.555ZM40.0273 257.801C40.0273 259.238 40.3242 260.363 40.918 261.176C41.5117 261.988 42.332 262.395 43.3789 262.395C44.7539 262.395 45.7578 261.777 46.3906 260.543V254.719C45.7422 253.523 44.7461 252.926 43.4023 252.926C42.3398 252.926 41.5117 253.336 40.918 254.156C40.3242 254.977 40.0273 256.191 40.0273 257.801ZM59.7617 264C59.6367 263.75 59.5352 263.305 59.457 262.664C58.4492 263.711 57.2461 264.234 55.8477 264.234C54.5977 264.234 53.5703 263.883 52.7656 263.18C51.9688 262.469 51.5703 261.57 51.5703 260.484C51.5703 259.164 52.0703 258.141 53.0703 257.414C54.0781 256.68 55.4922 256.312 57.3125 256.312H59.4219V255.316C59.4219 254.559 59.1953 253.957 58.7422 253.512C58.2891 253.059 57.6211 252.832 56.7383 252.832C55.9648 252.832 55.3164 253.027 54.793 253.418C54.2695 253.809 54.0078 254.281 54.0078 254.836H51.8281C51.8281 254.203 52.0508 253.594 52.4961 253.008C52.9492 252.414 53.5586 251.945 54.3242 251.602C55.0977 251.258 55.9453 251.086 56.8672 251.086C58.3281 251.086 59.4727 251.453 60.3008 252.188C61.1289 252.914 61.5586 253.918 61.5898 255.199V261.035C61.5898 262.199 61.7383 263.125 62.0352 263.812V264H59.7617ZM56.1641 262.348C56.8438 262.348 57.4883 262.172 58.0977 261.82C58.707 261.469 59.1484 261.012 59.4219 260.449V257.848H57.7227C55.0664 257.848 53.7383 258.625 53.7383 260.18C53.7383 260.859 53.9648 261.391 54.418 261.773C54.8711 262.156 55.4531 262.348 56.1641 262.348ZM67.9297 248.25V251.32H70.2969V252.996H67.9297V260.859C67.9297 261.367 68.0352 261.75 68.2461 262.008C68.457 262.258 68.8164 262.383 69.3242 262.383C69.5742 262.383 69.918 262.336 70.3555 262.242V264C69.7852 264.156 69.2305 264.234 68.6914 264.234C67.7227 264.234 66.9922 263.941 66.5 263.355C66.0078 262.77 65.7617 261.938 65.7617 260.859V252.996H63.4531V251.32H65.7617V248.25H67.9297ZM80.668 264C80.543 263.75 80.4414 263.305 80.3633 262.664C79.3555 263.711 78.1523 264.234 76.7539 264.234C75.5039 264.234 74.4766 263.883 73.6719 263.18C72.875 262.469 72.4766 261.57 72.4766 260.484C72.4766 259.164 72.9766 258.141 73.9766 257.414C74.9844 256.68 76.3984 256.312 78.2188 256.312H80.3281V255.316C80.3281 254.559 80.1016 253.957 79.6484 253.512C79.1953 253.059 78.5273 252.832 77.6445 252.832C76.8711 252.832 76.2227 253.027 75.6992 253.418C75.1758 253.809 74.9141 254.281 74.9141 254.836H72.7344C72.7344 254.203 72.957 253.594 73.4023 253.008C73.8555 252.414 74.4648 251.945 75.2305 251.602C76.0039 251.258 76.8516 251.086 77.7734 251.086C79.2344 251.086 80.3789 251.453 81.207 252.188C82.0352 252.914 82.4648 253.918 82.4961 255.199V261.035C82.4961 262.199 82.6445 263.125 82.9414 263.812V264H80.668ZM77.0703 262.348C77.75 262.348 78.3945 262.172 79.0039 261.82C79.6133 261.469 80.0547 261.012 80.3281 260.449V257.848H78.6289C75.9727 257.848 74.6445 258.625 74.6445 260.18C74.6445 260.859 74.8711 261.391 75.3242 261.773C75.7773 262.156 76.3594 262.348 77.0703 262.348Z" fill="black"/>
<circle cx="737.5" cy="240.5" r="60.5" fill="#C4C4C4"/>
<path d="M730.234 244.547H723.086L721.48 249H719.16L725.676 231.938H727.645L734.172 249H731.863L730.234 244.547ZM723.766 242.695H729.566L726.66 234.715L723.766 242.695ZM738.719 242.32V249H736.469V231.938H742.762C744.629 231.938 746.09 232.414 747.145 233.367C748.207 234.32 748.738 235.582 748.738 237.152C748.738 238.809 748.219 240.086 747.18 240.984C746.148 241.875 744.668 242.32 742.738 242.32H738.719ZM738.719 240.48H742.762C743.965 240.48 744.887 240.199 745.527 239.637C746.168 239.066 746.488 238.246 746.488 237.176C746.488 236.16 746.168 235.348 745.527 234.738C744.887 234.129 744.008 233.812 742.891 233.789H738.719V240.48ZM754.023 249H751.773V231.938H754.023V249Z" fill="black"/>
<circle cx="511.5" cy="444.5" r="60.5" fill="#C4C4C4"/>
<path d="M488.625 439V421.938H493.441C494.926 421.938 496.238 422.266 497.379 422.922C498.52 423.578 499.398 424.512 500.016 425.723C500.641 426.934 500.957 428.324 500.965 429.895V430.984C500.965 432.594 500.652 434.004 500.027 435.215C499.41 436.426 498.523 437.355 497.367 438.004C496.219 438.652 494.879 438.984 493.348 439H488.625ZM490.875 423.789V437.16H493.242C494.977 437.16 496.324 436.621 497.285 435.543C498.254 434.465 498.738 432.93 498.738 430.938V429.941C498.738 428.004 498.281 426.5 497.367 425.43C496.461 424.352 495.172 423.805 493.5 423.789H490.875ZM511.863 439C511.738 438.75 511.637 438.305 511.559 437.664C510.551 438.711 509.348 439.234 507.949 439.234C506.699 439.234 505.672 438.883 504.867 438.18C504.07 437.469 503.672 436.57 503.672 435.484C503.672 434.164 504.172 433.141 505.172 432.414C506.18 431.68 507.594 431.312 509.414 431.312H511.523V430.316C511.523 429.559 511.297 428.957 510.844 428.512C510.391 428.059 509.723 427.832 508.84 427.832C508.066 427.832 507.418 428.027 506.895 428.418C506.371 428.809 506.109 429.281 506.109 429.836H503.93C503.93 429.203 504.152 428.594 504.598 428.008C505.051 427.414 505.66 426.945 506.426 426.602C507.199 426.258 508.047 426.086 508.969 426.086C510.43 426.086 511.574 426.453 512.402 427.188C513.23 427.914 513.66 428.918 513.691 430.199V436.035C513.691 437.199 513.84 438.125 514.137 438.812V439H511.863ZM508.266 437.348C508.945 437.348 509.59 437.172 510.199 436.82C510.809 436.469 511.25 436.012 511.523 435.449V432.848H509.824C507.168 432.848 505.84 433.625 505.84 435.18C505.84 435.859 506.066 436.391 506.52 436.773C506.973 437.156 507.555 437.348 508.266 437.348ZM520.031 423.25V426.32H522.398V427.996H520.031V435.859C520.031 436.367 520.137 436.75 520.348 437.008C520.559 437.258 520.918 437.383 521.426 437.383C521.676 437.383 522.02 437.336 522.457 437.242V439C521.887 439.156 521.332 439.234 520.793 439.234C519.824 439.234 519.094 438.941 518.602 438.355C518.109 437.77 517.863 436.938 517.863 435.859V427.996H515.555V426.32H517.863V423.25H520.031ZM532.77 439C532.645 438.75 532.543 438.305 532.465 437.664C531.457 438.711 530.254 439.234 528.855 439.234C527.605 439.234 526.578 438.883 525.773 438.18C524.977 437.469 524.578 436.57 524.578 435.484C524.578 434.164 525.078 433.141 526.078 432.414C527.086 431.68 528.5 431.312 530.32 431.312H532.43V430.316C532.43 429.559 532.203 428.957 531.75 428.512C531.297 428.059 530.629 427.832 529.746 427.832C528.973 427.832 528.324 428.027 527.801 428.418C527.277 428.809 527.016 429.281 527.016 429.836H524.836C524.836 429.203 525.059 428.594 525.504 428.008C525.957 427.414 526.566 426.945 527.332 426.602C528.105 426.258 528.953 426.086 529.875 426.086C531.336 426.086 532.48 426.453 533.309 427.188C534.137 427.914 534.566 428.918 534.598 430.199V436.035C534.598 437.199 534.746 438.125 535.043 438.812V439H532.77ZM529.172 437.348C529.852 437.348 530.496 437.172 531.105 436.82C531.715 436.469 532.156 436.012 532.43 435.449V432.848H530.73C528.074 432.848 526.746 433.625 526.746 435.18C526.746 435.859 526.973 436.391 527.426 436.773C527.879 437.156 528.461 437.348 529.172 437.348ZM482.719 460.801C482.719 462.73 482.277 464.285 481.395 465.465C480.512 466.645 479.316 467.234 477.809 467.234C476.27 467.234 475.059 466.746 474.176 465.77V471.875H472.008V454.32H473.988L474.094 455.727C474.977 454.633 476.203 454.086 477.773 454.086C479.297 454.086 480.5 454.66 481.383 455.809C482.273 456.957 482.719 458.555 482.719 460.602V460.801ZM480.551 460.555C480.551 459.125 480.246 457.996 479.637 457.168C479.027 456.34 478.191 455.926 477.129 455.926C475.816 455.926 474.832 456.508 474.176 457.672V463.73C474.824 464.887 475.816 465.465 477.152 465.465C478.191 465.465 479.016 465.055 479.625 464.234C480.242 463.406 480.551 462.18 480.551 460.555ZM491.613 456.266C491.285 456.211 490.93 456.184 490.547 456.184C489.125 456.184 488.16 456.789 487.652 458V467H485.484V454.32H487.594L487.629 455.785C488.34 454.652 489.348 454.086 490.652 454.086C491.074 454.086 491.395 454.141 491.613 454.25V456.266ZM492.809 460.543C492.809 459.301 493.051 458.184 493.535 457.191C494.027 456.199 494.707 455.434 495.574 454.895C496.449 454.355 497.445 454.086 498.562 454.086C500.289 454.086 501.684 454.684 502.746 455.879C503.816 457.074 504.352 458.664 504.352 460.648V460.801C504.352 462.035 504.113 463.145 503.637 464.129C503.168 465.105 502.492 465.867 501.609 466.414C500.734 466.961 499.727 467.234 498.586 467.234C496.867 467.234 495.473 466.637 494.402 465.441C493.34 464.246 492.809 462.664 492.809 460.695V460.543ZM494.988 460.801C494.988 462.207 495.312 463.336 495.961 464.188C496.617 465.039 497.492 465.465 498.586 465.465C499.688 465.465 500.562 465.035 501.211 464.176C501.859 463.309 502.184 462.098 502.184 460.543C502.184 459.152 501.852 458.027 501.188 457.168C500.531 456.301 499.656 455.867 498.562 455.867C497.492 455.867 496.629 456.293 495.973 457.145C495.316 457.996 494.988 459.215 494.988 460.801ZM506.543 460.555C506.543 458.609 507.004 457.047 507.926 455.867C508.848 454.68 510.055 454.086 511.547 454.086C513.031 454.086 514.207 454.594 515.074 455.609V449H517.242V467H515.25L515.145 465.641C514.277 466.703 513.07 467.234 511.523 467.234C510.055 467.234 508.855 466.633 507.926 465.43C507.004 464.227 506.543 462.656 506.543 460.719V460.555ZM508.711 460.801C508.711 462.238 509.008 463.363 509.602 464.176C510.195 464.988 511.016 465.395 512.062 465.395C513.438 465.395 514.441 464.777 515.074 463.543V457.719C514.426 456.523 513.43 455.926 512.086 455.926C511.023 455.926 510.195 456.336 509.602 457.156C509.008 457.977 508.711 459.191 508.711 460.801ZM528.445 465.746C527.602 466.738 526.363 467.234 524.73 467.234C523.379 467.234 522.348 466.844 521.637 466.062C520.934 465.273 520.578 464.109 520.57 462.57V454.32H522.738V462.512C522.738 464.434 523.52 465.395 525.082 465.395C526.738 465.395 527.84 464.777 528.387 463.543V454.32H530.555V467H528.492L528.445 465.746ZM538.945 465.465C539.719 465.465 540.395 465.23 540.973 464.762C541.551 464.293 541.871 463.707 541.934 463.004H543.984C543.945 463.73 543.695 464.422 543.234 465.078C542.773 465.734 542.156 466.258 541.383 466.648C540.617 467.039 539.805 467.234 538.945 467.234C537.219 467.234 535.844 466.66 534.82 465.512C533.805 464.355 533.297 462.777 533.297 460.777V460.414C533.297 459.18 533.523 458.082 533.977 457.121C534.43 456.16 535.078 455.414 535.922 454.883C536.773 454.352 537.777 454.086 538.934 454.086C540.355 454.086 541.535 454.512 542.473 455.363C543.418 456.215 543.922 457.32 543.984 458.68H541.934C541.871 457.859 541.559 457.188 540.996 456.664C540.441 456.133 539.754 455.867 538.934 455.867C537.832 455.867 536.977 456.266 536.367 457.062C535.766 457.852 535.465 458.996 535.465 460.496V460.906C535.465 462.367 535.766 463.492 536.367 464.281C536.969 465.07 537.828 465.465 538.945 465.465ZM549.363 451.25V454.32H551.73V455.996H549.363V463.859C549.363 464.367 549.469 464.75 549.68 465.008C549.891 465.258 550.25 465.383 550.758 465.383C551.008 465.383 551.352 465.336 551.789 465.242V467C551.219 467.156 550.664 467.234 550.125 467.234C549.156 467.234 548.426 466.941 547.934 466.355C547.441 465.77 547.195 464.938 547.195 463.859V455.996H544.887V454.32H547.195V451.25H549.363Z" fill="black"/>
<circle cx="511.5" cy="60.5" r="60.5" fill="#C4C4C4"/>
<path d="M481.652 47.3945C479.723 46.8398 478.316 46.1602 477.434 45.3555C476.559 44.543 476.121 43.543 476.121 42.3555C476.121 41.0117 476.656 39.9023 477.727 39.0273C478.805 38.1445 480.203 37.7031 481.922 37.7031C483.094 37.7031 484.137 37.9297 485.051 38.3828C485.973 38.8359 486.684 39.4609 487.184 40.2578C487.691 41.0547 487.945 41.9258 487.945 42.8711H485.684C485.684 41.8398 485.355 41.0312 484.699 40.4453C484.043 39.8516 483.117 39.5547 481.922 39.5547C480.812 39.5547 479.945 39.8008 479.32 40.293C478.703 40.7773 478.395 41.4531 478.395 42.3203C478.395 43.0156 478.688 43.6055 479.273 44.0898C479.867 44.5664 480.871 45.0039 482.285 45.4023C483.707 45.8008 484.816 46.2422 485.613 46.7266C486.418 47.2031 487.012 47.7617 487.395 48.4023C487.785 49.043 487.98 49.7969 487.98 50.6641C487.98 52.0469 487.441 53.1562 486.363 53.9922C485.285 54.8203 483.844 55.2344 482.039 55.2344C480.867 55.2344 479.773 55.0117 478.758 54.5664C477.742 54.1133 476.957 53.4961 476.402 52.7148C475.855 51.9336 475.582 51.0469 475.582 50.0547H477.844C477.844 51.0859 478.223 51.9023 478.98 52.5039C479.746 53.0977 480.766 53.3945 482.039 53.3945C483.227 53.3945 484.137 53.1523 484.77 52.668C485.402 52.1836 485.719 51.5234 485.719 50.6875C485.719 49.8516 485.426 49.207 484.84 48.7539C484.254 48.293 483.191 47.8398 481.652 47.3945ZM495.797 55.2344C494.078 55.2344 492.68 54.6719 491.602 53.5469C490.523 52.4141 489.984 50.9023 489.984 49.0117V48.6133C489.984 47.3555 490.223 46.2344 490.699 45.25C491.184 44.2578 491.855 43.4844 492.715 42.9297C493.582 42.3672 494.52 42.0859 495.527 42.0859C497.176 42.0859 498.457 42.6289 499.371 43.7148C500.285 44.8008 500.742 46.3555 500.742 48.3789V49.2812H492.152C492.184 50.5312 492.547 51.543 493.242 52.3164C493.945 53.082 494.836 53.4648 495.914 53.4648C496.68 53.4648 497.328 53.3086 497.859 52.9961C498.391 52.6836 498.855 52.2695 499.254 51.7539L500.578 52.7852C499.516 54.418 497.922 55.2344 495.797 55.2344ZM495.527 43.8672C494.652 43.8672 493.918 44.1875 493.324 44.8281C492.73 45.4609 492.363 46.3516 492.223 47.5H498.574V47.3359C498.512 46.2344 498.215 45.3828 497.684 44.7812C497.152 44.1719 496.434 43.8672 495.527 43.8672ZM511.09 55C510.965 54.75 510.863 54.3047 510.785 53.6641C509.777 54.7109 508.574 55.2344 507.176 55.2344C505.926 55.2344 504.898 54.8828 504.094 54.1797C503.297 53.4688 502.898 52.5703 502.898 51.4844C502.898 50.1641 503.398 49.1406 504.398 48.4141C505.406 47.6797 506.82 47.3125 508.641 47.3125H510.75V46.3164C510.75 45.5586 510.523 44.957 510.07 44.5117C509.617 44.0586 508.949 43.832 508.066 43.832C507.293 43.832 506.645 44.0273 506.121 44.418C505.598 44.8086 505.336 45.2812 505.336 45.8359H503.156C503.156 45.2031 503.379 44.5938 503.824 44.0078C504.277 43.4141 504.887 42.9453 505.652 42.6016C506.426 42.2578 507.273 42.0859 508.195 42.0859C509.656 42.0859 510.801 42.4531 511.629 43.1875C512.457 43.9141 512.887 44.918 512.918 46.1992V52.0352C512.918 53.1992 513.066 54.125 513.363 54.8125V55H511.09ZM507.492 53.3477C508.172 53.3477 508.816 53.1719 509.426 52.8203C510.035 52.4688 510.477 52.0117 510.75 51.4492V48.8477H509.051C506.395 48.8477 505.066 49.625 505.066 51.1797C505.066 51.8594 505.293 52.3906 505.746 52.7734C506.199 53.1562 506.781 53.3477 507.492 53.3477ZM522.445 44.2656C522.117 44.2109 521.762 44.1836 521.379 44.1836C519.957 44.1836 518.992 44.7891 518.484 46V55H516.316V42.3203H518.426L518.461 43.7852C519.172 42.6523 520.18 42.0859 521.484 42.0859C521.906 42.0859 522.227 42.1406 522.445 42.25V44.2656ZM529.301 53.4648C530.074 53.4648 530.75 53.2305 531.328 52.7617C531.906 52.293 532.227 51.707 532.289 51.0039H534.34C534.301 51.7305 534.051 52.4219 533.59 53.0781C533.129 53.7344 532.512 54.2578 531.738 54.6484C530.973 55.0391 530.16 55.2344 529.301 55.2344C527.574 55.2344 526.199 54.6602 525.176 53.5117C524.16 52.3555 523.652 50.7773 523.652 48.7773V48.4141C523.652 47.1797 523.879 46.082 524.332 45.1211C524.785 44.1602 525.434 43.4141 526.277 42.8828C527.129 42.3516 528.133 42.0859 529.289 42.0859C530.711 42.0859 531.891 42.5117 532.828 43.3633C533.773 44.2148 534.277 45.3203 534.34 46.6797H532.289C532.227 45.8594 531.914 45.1875 531.352 44.6641C530.797 44.1328 530.109 43.8672 529.289 43.8672C528.188 43.8672 527.332 44.2656 526.723 45.0625C526.121 45.8516 525.82 46.9961 525.82 48.4961V48.9062C525.82 50.3672 526.121 51.4922 526.723 52.2812C527.324 53.0703 528.184 53.4648 529.301 53.4648ZM538.945 43.8555C539.906 42.6758 541.156 42.0859 542.695 42.0859C545.375 42.0859 546.727 43.5977 546.75 46.6211V55H544.582V46.6094C544.574 45.6953 544.363 45.0195 543.949 44.582C543.543 44.1445 542.906 43.9258 542.039 43.9258C541.336 43.9258 540.719 44.1133 540.188 44.4883C539.656 44.8633 539.242 45.3555 538.945 45.9648V55H536.777V37H538.945V43.8555ZM486.867 83H484.699V70.3203H486.867V83ZM484.523 66.957C484.523 66.6055 484.629 66.3086 484.84 66.0664C485.059 65.8242 485.379 65.7031 485.801 65.7031C486.223 65.7031 486.543 65.8242 486.762 66.0664C486.98 66.3086 487.09 66.6055 487.09 66.957C487.09 67.3086 486.98 67.6016 486.762 67.8359C486.543 68.0703 486.223 68.1875 485.801 68.1875C485.379 68.1875 485.059 68.0703 484.84 67.8359C484.629 67.6016 484.523 67.3086 484.523 66.957ZM492.398 70.3203L492.469 71.9141C493.438 70.6953 494.703 70.0859 496.266 70.0859C498.945 70.0859 500.297 71.5977 500.32 74.6211V83H498.152V74.6094C498.145 73.6953 497.934 73.0195 497.52 72.582C497.113 72.1445 496.477 71.9258 495.609 71.9258C494.906 71.9258 494.289 72.1133 493.758 72.4883C493.227 72.8633 492.812 73.3555 492.516 73.9648V83H490.348V70.3203H492.398ZM503.062 76.5547C503.062 74.6094 503.523 73.0469 504.445 71.8672C505.367 70.6797 506.574 70.0859 508.066 70.0859C509.551 70.0859 510.727 70.5938 511.594 71.6094V65H513.762V83H511.77L511.664 81.6406C510.797 82.7031 509.59 83.2344 508.043 83.2344C506.574 83.2344 505.375 82.6328 504.445 81.4297C503.523 80.2266 503.062 78.6562 503.062 76.7188V76.5547ZM505.23 76.8008C505.23 78.2383 505.527 79.3633 506.121 80.1758C506.715 80.9883 507.535 81.3945 508.582 81.3945C509.957 81.3945 510.961 80.7773 511.594 79.543V73.7188C510.945 72.5234 509.949 71.9258 508.605 71.9258C507.543 71.9258 506.715 72.3359 506.121 73.1562C505.527 73.9766 505.23 75.1914 505.23 76.8008ZM522.398 83.2344C520.68 83.2344 519.281 82.6719 518.203 81.5469C517.125 80.4141 516.586 78.9023 516.586 77.0117V76.6133C516.586 75.3555 516.824 74.2344 517.301 73.25C517.785 72.2578 518.457 71.4844 519.316 70.9297C520.184 70.3672 521.121 70.0859 522.129 70.0859C523.777 70.0859 525.059 70.6289 525.973 71.7148C526.887 72.8008 527.344 74.3555 527.344 76.3789V77.2812H518.754C518.785 78.5312 519.148 79.543 519.844 80.3164C520.547 81.082 521.438 81.4648 522.516 81.4648C523.281 81.4648 523.93 81.3086 524.461 80.9961C524.992 80.6836 525.457 80.2695 525.855 79.7539L527.18 80.7852C526.117 82.418 524.523 83.2344 522.398 83.2344ZM522.129 71.8672C521.254 71.8672 520.52 72.1875 519.926 72.8281C519.332 73.4609 518.965 74.3516 518.824 75.5H525.176V75.3359C525.113 74.2344 524.816 73.3828 524.285 72.7812C523.754 72.1719 523.035 71.8672 522.129 71.8672ZM534.117 74.9492L536.93 70.3203H539.461L535.312 76.5898L539.59 83H537.082L534.152 78.2539L531.223 83H528.703L532.98 76.5898L528.832 70.3203H531.34L534.117 74.9492Z" fill="black"/>
<path d="M494.191 255.762C493.613 256.59 492.805 257.211 491.766 257.625C490.734 258.031 489.531 258.234 488.156 258.234C486.766 258.234 485.531 257.91 484.453 257.262C483.375 256.605 482.539 255.676 481.945 254.473C481.359 253.27 481.059 251.875 481.043 250.289V248.801C481.043 246.23 481.641 244.238 482.836 242.824C484.039 241.41 485.727 240.703 487.898 240.703C489.68 240.703 491.113 241.16 492.199 242.074C493.285 242.98 493.949 244.27 494.191 245.941H491.941C491.52 243.684 490.176 242.555 487.91 242.555C486.402 242.555 485.258 243.086 484.477 244.148C483.703 245.203 483.312 246.734 483.305 248.742V250.137C483.305 252.051 483.742 253.574 484.617 254.707C485.492 255.832 486.676 256.395 488.168 256.395C489.012 256.395 489.75 256.301 490.383 256.113C491.016 255.926 491.539 255.609 491.953 255.164V251.332H488.004V249.504H494.191V255.762ZM503.742 247.266C503.414 247.211 503.059 247.184 502.676 247.184C501.254 247.184 500.289 247.789 499.781 249V258H497.613V245.32H499.723L499.758 246.785C500.469 245.652 501.477 245.086 502.781 245.086C503.203 245.086 503.523 245.141 503.742 245.25V247.266ZM513.105 258C512.98 257.75 512.879 257.305 512.801 256.664C511.793 257.711 510.59 258.234 509.191 258.234C507.941 258.234 506.914 257.883 506.109 257.18C505.312 256.469 504.914 255.57 504.914 254.484C504.914 253.164 505.414 252.141 506.414 251.414C507.422 250.68 508.836 250.312 510.656 250.312H512.766V249.316C512.766 248.559 512.539 247.957 512.086 247.512C511.633 247.059 510.965 246.832 510.082 246.832C509.309 246.832 508.66 247.027 508.137 247.418C507.613 247.809 507.352 248.281 507.352 248.836H505.172C505.172 248.203 505.395 247.594 505.84 247.008C506.293 246.414 506.902 245.945 507.668 245.602C508.441 245.258 509.289 245.086 510.211 245.086C511.672 245.086 512.816 245.453 513.645 246.188C514.473 246.914 514.902 247.918 514.934 249.199V255.035C514.934 256.199 515.082 257.125 515.379 257.812V258H513.105ZM509.508 256.348C510.188 256.348 510.832 256.172 511.441 255.82C512.051 255.469 512.492 255.012 512.766 254.449V251.848H511.066C508.41 251.848 507.082 252.625 507.082 254.18C507.082 254.859 507.309 255.391 507.762 255.773C508.215 256.156 508.797 256.348 509.508 256.348ZM529.043 251.801C529.043 253.73 528.602 255.285 527.719 256.465C526.836 257.645 525.641 258.234 524.133 258.234C522.594 258.234 521.383 257.746 520.5 256.77V262.875H518.332V245.32H520.312L520.418 246.727C521.301 245.633 522.527 245.086 524.098 245.086C525.621 245.086 526.824 245.66 527.707 246.809C528.598 247.957 529.043 249.555 529.043 251.602V251.801ZM526.875 251.555C526.875 250.125 526.57 248.996 525.961 248.168C525.352 247.34 524.516 246.926 523.453 246.926C522.141 246.926 521.156 247.508 520.5 248.672V254.73C521.148 255.887 522.141 256.465 523.477 256.465C524.516 256.465 525.34 256.055 525.949 255.234C526.566 254.406 526.875 253.18 526.875 251.555ZM533.977 246.855C534.938 245.676 536.188 245.086 537.727 245.086C540.406 245.086 541.758 246.598 541.781 249.621V258H539.613V249.609C539.605 248.695 539.395 248.02 538.98 247.582C538.574 247.145 537.938 246.926 537.07 246.926C536.367 246.926 535.75 247.113 535.219 247.488C534.688 247.863 534.273 248.355 533.977 248.965V258H531.809V240H533.977V246.855Z" fill="black"/>
<circle cx="279.5" cy="241.5" r="60.5" fill="#C4C4C4"/>
<path d="M268.426 232.938H270.688V245.02C270.688 246.652 270.195 247.93 269.211 248.852C268.234 249.773 266.93 250.234 265.297 250.234C263.602 250.234 262.281 249.801 261.336 248.934C260.391 248.066 259.918 246.852 259.918 245.289H262.168C262.168 246.266 262.434 247.027 262.965 247.574C263.504 248.121 264.281 248.395 265.297 248.395C266.227 248.395 266.977 248.102 267.547 247.516C268.125 246.93 268.418 246.109 268.426 245.055V232.938ZM273.605 243.543C273.605 242.301 273.848 241.184 274.332 240.191C274.824 239.199 275.504 238.434 276.371 237.895C277.246 237.355 278.242 237.086 279.359 237.086C281.086 237.086 282.48 237.684 283.543 238.879C284.613 240.074 285.148 241.664 285.148 243.648V243.801C285.148 245.035 284.91 246.145 284.434 247.129C283.965 248.105 283.289 248.867 282.406 249.414C281.531 249.961 280.523 250.234 279.383 250.234C277.664 250.234 276.27 249.637 275.199 248.441C274.137 247.246 273.605 245.664 273.605 243.695V243.543ZM275.785 243.801C275.785 245.207 276.109 246.336 276.758 247.188C277.414 248.039 278.289 248.465 279.383 248.465C280.484 248.465 281.359 248.035 282.008 247.176C282.656 246.309 282.98 245.098 282.98 243.543C282.98 242.152 282.648 241.027 281.984 240.168C281.328 239.301 280.453 238.867 279.359 238.867C278.289 238.867 277.426 239.293 276.77 240.145C276.113 240.996 275.785 242.215 275.785 243.801ZM298.602 243.801C298.602 245.738 298.156 247.297 297.266 248.477C296.375 249.648 295.18 250.234 293.68 250.234C292.078 250.234 290.84 249.668 289.965 248.535L289.859 250H287.867V232H290.035V238.715C290.91 237.629 292.117 237.086 293.656 237.086C295.195 237.086 296.402 237.668 297.277 238.832C298.16 239.996 298.602 241.59 298.602 243.613V243.801ZM296.434 243.555C296.434 242.078 296.148 240.938 295.578 240.133C295.008 239.328 294.188 238.926 293.117 238.926C291.688 238.926 290.66 239.59 290.035 240.918V246.402C290.699 247.73 291.734 248.395 293.141 248.395C294.18 248.395 294.988 247.992 295.566 247.188C296.145 246.383 296.434 245.172 296.434 243.555Z" fill="black"/>
<path d="M451.498 93.0477C451.524 92.7728 451.323 92.5286 451.048 92.5023L446.568 92.0727C446.293 92.0464 446.049 92.2479 446.023 92.5227C445.996 92.7976 446.198 93.0418 446.473 93.0682L450.455 93.45L450.073 97.4317C450.046 97.7066 450.248 97.9508 450.523 97.9772C450.798 98.0035 451.042 97.8021 451.068 97.5272L451.498 93.0477ZM331.318 192.386L451.318 93.3857L450.682 92.6143L330.682 191.614L331.318 192.386Z" fill="black"/>
<path d="M442.354 242.354C442.549 242.158 442.549 241.842 442.354 241.646L439.172 238.464C438.976 238.269 438.66 238.269 438.464 238.464C438.269 238.66 438.269 238.976 438.464 239.172L441.293 242L438.464 244.828C438.269 245.024 438.269 245.34 438.464 245.536C438.66 245.731 438.976 245.731 439.172 245.536L442.354 242.354ZM352 242.5H442V241.5H352V242.5Z" fill="black"/>
<path d="M461.037 393.499C461.312 393.478 461.519 393.238 461.499 392.963L461.165 388.475C461.144 388.2 460.905 387.993 460.629 388.014C460.354 388.034 460.147 388.274 460.168 388.549L460.464 392.538L456.475 392.835C456.2 392.856 455.993 393.095 456.014 393.371C456.034 393.646 456.274 393.853 456.549 393.832L461.037 393.499ZM330.674 281.379L460.674 393.379L461.326 392.621L331.326 280.621L330.674 281.379Z" fill="black"/>
<circle cx="512.5" cy="241.5" r="60.5" fill="#C4C4C4"/>
<path d="M464.84 217.938L470.418 231.859L475.996 217.938H478.914V235H476.664V228.355L476.875 221.184L471.273 235H469.551L463.961 221.219L464.184 228.355V235H461.934V217.938H464.84ZM487.809 235.234C486.09 235.234 484.691 234.672 483.613 233.547C482.535 232.414 481.996 230.902 481.996 229.012V228.613C481.996 227.355 482.234 226.234 482.711 225.25C483.195 224.258 483.867 223.484 484.727 222.93C485.594 222.367 486.531 222.086 487.539 222.086C489.188 222.086 490.469 222.629 491.383 223.715C492.297 224.801 492.754 226.355 492.754 228.379V229.281H484.164C484.195 230.531 484.559 231.543 485.254 232.316C485.957 233.082 486.848 233.465 487.926 233.465C488.691 233.465 489.34 233.309 489.871 232.996C490.402 232.684 490.867 232.27 491.266 231.754L492.59 232.785C491.527 234.418 489.934 235.234 487.809 235.234ZM487.539 223.867C486.664 223.867 485.93 224.188 485.336 224.828C484.742 225.461 484.375 226.352 484.234 227.5H490.586V227.336C490.523 226.234 490.227 225.383 489.695 224.781C489.164 224.172 488.445 223.867 487.539 223.867ZM498.215 219.25V222.32H500.582V223.996H498.215V231.859C498.215 232.367 498.32 232.75 498.531 233.008C498.742 233.258 499.102 233.383 499.609 233.383C499.859 233.383 500.203 233.336 500.641 233.242V235C500.07 235.156 499.516 235.234 498.977 235.234C498.008 235.234 497.277 234.941 496.785 234.355C496.293 233.77 496.047 232.938 496.047 231.859V223.996H493.738V222.32H496.047V219.25H498.215ZM510.953 235C510.828 234.75 510.727 234.305 510.648 233.664C509.641 234.711 508.438 235.234 507.039 235.234C505.789 235.234 504.762 234.883 503.957 234.18C503.16 233.469 502.762 232.57 502.762 231.484C502.762 230.164 503.262 229.141 504.262 228.414C505.27 227.68 506.684 227.312 508.504 227.312H510.613V226.316C510.613 225.559 510.387 224.957 509.934 224.512C509.48 224.059 508.812 223.832 507.93 223.832C507.156 223.832 506.508 224.027 505.984 224.418C505.461 224.809 505.199 225.281 505.199 225.836H503.02C503.02 225.203 503.242 224.594 503.688 224.008C504.141 223.414 504.75 222.945 505.516 222.602C506.289 222.258 507.137 222.086 508.059 222.086C509.52 222.086 510.664 222.453 511.492 223.188C512.32 223.914 512.75 224.918 512.781 226.199V232.035C512.781 233.199 512.93 234.125 513.227 234.812V235H510.953ZM507.355 233.348C508.035 233.348 508.68 233.172 509.289 232.82C509.898 232.469 510.34 232.012 510.613 231.449V228.848H508.914C506.258 228.848 504.93 229.625 504.93 231.18C504.93 231.859 505.156 232.391 505.609 232.773C506.062 233.156 506.645 233.348 507.355 233.348ZM515.652 228.555C515.652 226.609 516.113 225.047 517.035 223.867C517.957 222.68 519.164 222.086 520.656 222.086C522.141 222.086 523.316 222.594 524.184 223.609V217H526.352V235H524.359L524.254 233.641C523.387 234.703 522.18 235.234 520.633 235.234C519.164 235.234 517.965 234.633 517.035 233.43C516.113 232.227 515.652 230.656 515.652 228.719V228.555ZM517.82 228.801C517.82 230.238 518.117 231.363 518.711 232.176C519.305 232.988 520.125 233.395 521.172 233.395C522.547 233.395 523.551 232.777 524.184 231.543V225.719C523.535 224.523 522.539 223.926 521.195 223.926C520.133 223.926 519.305 224.336 518.711 225.156C518.117 225.977 517.82 227.191 517.82 228.801ZM537.555 235C537.43 234.75 537.328 234.305 537.25 233.664C536.242 234.711 535.039 235.234 533.641 235.234C532.391 235.234 531.363 234.883 530.559 234.18C529.762 233.469 529.363 232.57 529.363 231.484C529.363 230.164 529.863 229.141 530.863 228.414C531.871 227.68 533.285 227.312 535.105 227.312H537.215V226.316C537.215 225.559 536.988 224.957 536.535 224.512C536.082 224.059 535.414 223.832 534.531 223.832C533.758 223.832 533.109 224.027 532.586 224.418C532.062 224.809 531.801 225.281 531.801 225.836H529.621C529.621 225.203 529.844 224.594 530.289 224.008C530.742 223.414 531.352 222.945 532.117 222.602C532.891 222.258 533.738 222.086 534.66 222.086C536.121 222.086 537.266 222.453 538.094 223.188C538.922 223.914 539.352 224.918 539.383 226.199V232.035C539.383 233.199 539.531 234.125 539.828 234.812V235H537.555ZM533.957 233.348C534.637 233.348 535.281 233.172 535.891 232.82C536.5 232.469 536.941 232.012 537.215 231.449V228.848H535.516C532.859 228.848 531.531 229.625 531.531 231.18C531.531 231.859 531.758 232.391 532.211 232.773C532.664 233.156 533.246 233.348 533.957 233.348ZM545.723 219.25V222.32H548.09V223.996H545.723V231.859C545.723 232.367 545.828 232.75 546.039 233.008C546.25 233.258 546.609 233.383 547.117 233.383C547.367 233.383 547.711 233.336 548.148 233.242V235C547.578 235.156 547.023 235.234 546.484 235.234C545.516 235.234 544.785 234.941 544.293 234.355C543.801 233.77 543.555 232.938 543.555 231.859V223.996H541.246V222.32H543.555V219.25H545.723ZM558.461 235C558.336 234.75 558.234 234.305 558.156 233.664C557.148 234.711 555.945 235.234 554.547 235.234C553.297 235.234 552.27 234.883 551.465 234.18C550.668 233.469 550.27 232.57 550.27 231.484C550.27 230.164 550.77 229.141 551.77 228.414C552.777 227.68 554.191 227.312 556.012 227.312H558.121V226.316C558.121 225.559 557.895 224.957 557.441 224.512C556.988 224.059 556.32 223.832 555.438 223.832C554.664 223.832 554.016 224.027 553.492 224.418C552.969 224.809 552.707 225.281 552.707 225.836H550.527C550.527 225.203 550.75 224.594 551.195 224.008C551.648 223.414 552.258 222.945 553.023 222.602C553.797 222.258 554.645 222.086 555.566 222.086C557.027 222.086 558.172 222.453 559 223.188C559.828 223.914 560.258 224.918 560.289 226.199V232.035C560.289 233.199 560.438 234.125 560.734 234.812V235H558.461ZM554.863 233.348C555.543 233.348 556.188 233.172 556.797 232.82C557.406 232.469 557.848 232.012 558.121 231.449V228.848H556.422C553.766 228.848 552.438 229.625 552.438 231.18C552.438 231.859 552.664 232.391 553.117 232.773C553.57 233.156 554.152 233.348 554.863 233.348ZM473.84 256.074C473.84 254.309 474.074 252.613 474.543 250.988C475.02 249.363 475.727 247.887 476.664 246.559C477.602 245.23 478.574 244.293 479.582 243.746L480.027 245.176C478.887 246.051 477.949 247.387 477.215 249.184C476.488 250.98 476.09 252.992 476.02 255.219L476.008 256.215C476.008 259.23 476.559 261.848 477.66 264.066C478.324 265.395 479.113 266.434 480.027 267.184L479.582 268.508C478.543 267.93 477.551 266.961 476.605 265.602C474.762 262.945 473.84 259.77 473.84 256.074ZM481.609 256.555C481.609 254.578 482.066 253.008 482.98 251.844C483.895 250.672 485.105 250.086 486.613 250.086C488.16 250.086 489.367 250.633 490.234 251.727L490.34 250.32H492.32V262.695C492.32 264.336 491.832 265.629 490.855 266.574C489.887 267.52 488.582 267.992 486.941 267.992C486.027 267.992 485.133 267.797 484.258 267.406C483.383 267.016 482.715 266.48 482.254 265.801L483.379 264.5C484.309 265.648 485.445 266.223 486.789 266.223C487.844 266.223 488.664 265.926 489.25 265.332C489.844 264.738 490.141 263.902 490.141 262.824V261.734C489.273 262.734 488.09 263.234 486.59 263.234C485.105 263.234 483.902 262.637 482.98 261.441C482.066 260.246 481.609 258.617 481.609 256.555ZM483.789 256.801C483.789 258.23 484.082 259.355 484.668 260.176C485.254 260.988 486.074 261.395 487.129 261.395C488.496 261.395 489.5 260.773 490.141 259.531V253.742C489.477 252.531 488.48 251.926 487.152 251.926C486.098 251.926 485.273 252.336 484.68 253.156C484.086 253.977 483.789 255.191 483.789 256.801ZM501.73 252.266C501.402 252.211 501.047 252.184 500.664 252.184C499.242 252.184 498.277 252.789 497.77 254V263H495.602V250.32H497.711L497.746 251.785C498.457 250.652 499.465 250.086 500.77 250.086C501.191 250.086 501.512 250.141 501.73 250.25V252.266ZM511.094 263C510.969 262.75 510.867 262.305 510.789 261.664C509.781 262.711 508.578 263.234 507.18 263.234C505.93 263.234 504.902 262.883 504.098 262.18C503.301 261.469 502.902 260.57 502.902 259.484C502.902 258.164 503.402 257.141 504.402 256.414C505.41 255.68 506.824 255.312 508.645 255.312H510.754V254.316C510.754 253.559 510.527 252.957 510.074 252.512C509.621 252.059 508.953 251.832 508.07 251.832C507.297 251.832 506.648 252.027 506.125 252.418C505.602 252.809 505.34 253.281 505.34 253.836H503.16C503.16 253.203 503.383 252.594 503.828 252.008C504.281 251.414 504.891 250.945 505.656 250.602C506.43 250.258 507.277 250.086 508.199 250.086C509.66 250.086 510.805 250.453 511.633 251.188C512.461 251.914 512.891 252.918 512.922 254.199V260.035C512.922 261.199 513.07 262.125 513.367 262.812V263H511.094ZM507.496 261.348C508.176 261.348 508.82 261.172 509.43 260.82C510.039 260.469 510.48 260.012 510.754 259.449V256.848H509.055C506.398 256.848 505.07 257.625 505.07 259.18C505.07 259.859 505.297 260.391 505.75 260.773C506.203 261.156 506.785 261.348 507.496 261.348ZM527.031 256.801C527.031 258.73 526.59 260.285 525.707 261.465C524.824 262.645 523.629 263.234 522.121 263.234C520.582 263.234 519.371 262.746 518.488 261.77V267.875H516.32V250.32H518.301L518.406 251.727C519.289 250.633 520.516 250.086 522.086 250.086C523.609 250.086 524.812 250.66 525.695 251.809C526.586 252.957 527.031 254.555 527.031 256.602V256.801ZM524.863 256.555C524.863 255.125 524.559 253.996 523.949 253.168C523.34 252.34 522.504 251.926 521.441 251.926C520.129 251.926 519.145 252.508 518.488 253.672V259.73C519.137 260.887 520.129 261.465 521.465 261.465C522.504 261.465 523.328 261.055 523.938 260.234C524.555 259.406 524.863 258.18 524.863 256.555ZM531.965 251.855C532.926 250.676 534.176 250.086 535.715 250.086C538.395 250.086 539.746 251.598 539.77 254.621V263H537.602V254.609C537.594 253.695 537.383 253.02 536.969 252.582C536.562 252.145 535.926 251.926 535.059 251.926C534.355 251.926 533.738 252.113 533.207 252.488C532.676 252.863 532.262 253.355 531.965 253.965V263H529.797V245H531.965V251.855ZM548.02 256.191C548.02 257.934 547.789 259.605 547.328 261.207C546.875 262.801 546.176 264.273 545.23 265.625C544.293 266.977 543.309 267.938 542.277 268.508L541.82 267.184C543.023 266.262 543.988 264.832 544.715 262.895C545.449 260.949 545.824 258.793 545.84 256.426V256.051C545.84 254.41 545.668 252.887 545.324 251.48C544.98 250.066 544.5 248.801 543.883 247.684C543.273 246.566 542.586 245.695 541.82 245.07L542.277 243.746C543.309 244.316 544.289 245.27 545.219 246.605C546.156 247.941 546.855 249.414 547.316 251.023C547.785 252.633 548.02 254.355 548.02 256.191Z" fill="black"/>
<circle cx="1011.5" cy="155.5" r="60.5" fill="#C4C4C4"/>
<path d="M994.191 161.762C993.613 162.59 992.805 163.211 991.766 163.625C990.734 164.031 989.531 164.234 988.156 164.234C986.766 164.234 985.531 163.91 984.453 163.262C983.375 162.605 982.539 161.676 981.945 160.473C981.359 159.27 981.059 157.875 981.043 156.289V154.801C981.043 152.23 981.641 150.238 982.836 148.824C984.039 147.41 985.727 146.703 987.898 146.703C989.68 146.703 991.113 147.16 992.199 148.074C993.285 148.98 993.949 150.27 994.191 151.941H991.941C991.52 149.684 990.176 148.555 987.91 148.555C986.402 148.555 985.258 149.086 984.477 150.148C983.703 151.203 983.312 152.734 983.305 154.742V156.137C983.305 158.051 983.742 159.574 984.617 160.707C985.492 161.832 986.676 162.395 988.168 162.395C989.012 162.395 989.75 162.301 990.383 162.113C991.016 161.926 991.539 161.609 991.953 161.164V157.332H988.004V155.504H994.191V161.762ZM1003.74 153.266C1003.41 153.211 1003.06 153.184 1002.68 153.184C1001.25 153.184 1000.29 153.789 999.781 155V164H997.613V151.32H999.723L999.758 152.785C1000.47 151.652 1001.48 151.086 1002.78 151.086C1003.2 151.086 1003.52 151.141 1003.74 151.25V153.266ZM1013.11 164C1012.98 163.75 1012.88 163.305 1012.8 162.664C1011.79 163.711 1010.59 164.234 1009.19 164.234C1007.94 164.234 1006.91 163.883 1006.11 163.18C1005.31 162.469 1004.91 161.57 1004.91 160.484C1004.91 159.164 1005.41 158.141 1006.41 157.414C1007.42 156.68 1008.84 156.312 1010.66 156.312H1012.77V155.316C1012.77 154.559 1012.54 153.957 1012.09 153.512C1011.63 153.059 1010.96 152.832 1010.08 152.832C1009.31 152.832 1008.66 153.027 1008.14 153.418C1007.61 153.809 1007.35 154.281 1007.35 154.836H1005.17C1005.17 154.203 1005.39 153.594 1005.84 153.008C1006.29 152.414 1006.9 151.945 1007.67 151.602C1008.44 151.258 1009.29 151.086 1010.21 151.086C1011.67 151.086 1012.82 151.453 1013.64 152.188C1014.47 152.914 1014.9 153.918 1014.93 155.199V161.035C1014.93 162.199 1015.08 163.125 1015.38 163.812V164H1013.11ZM1009.51 162.348C1010.19 162.348 1010.83 162.172 1011.44 161.82C1012.05 161.469 1012.49 161.012 1012.77 160.449V157.848H1011.07C1008.41 157.848 1007.08 158.625 1007.08 160.18C1007.08 160.859 1007.31 161.391 1007.76 161.773C1008.21 162.156 1008.8 162.348 1009.51 162.348ZM1029.04 157.801C1029.04 159.73 1028.6 161.285 1027.72 162.465C1026.84 163.645 1025.64 164.234 1024.13 164.234C1022.59 164.234 1021.38 163.746 1020.5 162.77V168.875H1018.33V151.32H1020.31L1020.42 152.727C1021.3 151.633 1022.53 151.086 1024.1 151.086C1025.62 151.086 1026.82 151.66 1027.71 152.809C1028.6 153.957 1029.04 155.555 1029.04 157.602V157.801ZM1026.88 157.555C1026.88 156.125 1026.57 154.996 1025.96 154.168C1025.35 153.34 1024.52 152.926 1023.45 152.926C1022.14 152.926 1021.16 153.508 1020.5 154.672V160.73C1021.15 161.887 1022.14 162.465 1023.48 162.465C1024.52 162.465 1025.34 162.055 1025.95 161.234C1026.57 160.406 1026.88 159.18 1026.88 157.555ZM1033.98 152.855C1034.94 151.676 1036.19 151.086 1037.73 151.086C1040.41 151.086 1041.76 152.598 1041.78 155.621V164H1039.61V155.609C1039.61 154.695 1039.39 154.02 1038.98 153.582C1038.57 153.145 1037.94 152.926 1037.07 152.926C1036.37 152.926 1035.75 153.113 1035.22 153.488C1034.69 153.863 1034.27 154.355 1033.98 154.965V164H1031.81V146H1033.98V152.855Z" fill="black"/>
<circle cx="1011.5" cy="155.5" r="60.5" fill="#C4C4C4"/>
<path d="M981.652 142.395C979.723 141.84 978.316 141.16 977.434 140.355C976.559 139.543 976.121 138.543 976.121 137.355C976.121 136.012 976.656 134.902 977.727 134.027C978.805 133.145 980.203 132.703 981.922 132.703C983.094 132.703 984.137 132.93 985.051 133.383C985.973 133.836 986.684 134.461 987.184 135.258C987.691 136.055 987.945 136.926 987.945 137.871H985.684C985.684 136.84 985.355 136.031 984.699 135.445C984.043 134.852 983.117 134.555 981.922 134.555C980.812 134.555 979.945 134.801 979.32 135.293C978.703 135.777 978.395 136.453 978.395 137.32C978.395 138.016 978.688 138.605 979.273 139.09C979.867 139.566 980.871 140.004 982.285 140.402C983.707 140.801 984.816 141.242 985.613 141.727C986.418 142.203 987.012 142.762 987.395 143.402C987.785 144.043 987.98 144.797 987.98 145.664C987.98 147.047 987.441 148.156 986.363 148.992C985.285 149.82 983.844 150.234 982.039 150.234C980.867 150.234 979.773 150.012 978.758 149.566C977.742 149.113 976.957 148.496 976.402 147.715C975.855 146.934 975.582 146.047 975.582 145.055H977.844C977.844 146.086 978.223 146.902 978.98 147.504C979.746 148.098 980.766 148.395 982.039 148.395C983.227 148.395 984.137 148.152 984.77 147.668C985.402 147.184 985.719 146.523 985.719 145.688C985.719 144.852 985.426 144.207 984.84 143.754C984.254 143.293 983.191 142.84 981.652 142.395ZM995.797 150.234C994.078 150.234 992.68 149.672 991.602 148.547C990.523 147.414 989.984 145.902 989.984 144.012V143.613C989.984 142.355 990.223 141.234 990.699 140.25C991.184 139.258 991.855 138.484 992.715 137.93C993.582 137.367 994.52 137.086 995.527 137.086C997.176 137.086 998.457 137.629 999.371 138.715C1000.29 139.801 1000.74 141.355 1000.74 143.379V144.281H992.152C992.184 145.531 992.547 146.543 993.242 147.316C993.945 148.082 994.836 148.465 995.914 148.465C996.68 148.465 997.328 148.309 997.859 147.996C998.391 147.684 998.855 147.27 999.254 146.754L1000.58 147.785C999.516 149.418 997.922 150.234 995.797 150.234ZM995.527 138.867C994.652 138.867 993.918 139.188 993.324 139.828C992.73 140.461 992.363 141.352 992.223 142.5H998.574V142.336C998.512 141.234 998.215 140.383 997.684 139.781C997.152 139.172 996.434 138.867 995.527 138.867ZM1011.09 150C1010.96 149.75 1010.86 149.305 1010.79 148.664C1009.78 149.711 1008.57 150.234 1007.18 150.234C1005.93 150.234 1004.9 149.883 1004.09 149.18C1003.3 148.469 1002.9 147.57 1002.9 146.484C1002.9 145.164 1003.4 144.141 1004.4 143.414C1005.41 142.68 1006.82 142.312 1008.64 142.312H1010.75V141.316C1010.75 140.559 1010.52 139.957 1010.07 139.512C1009.62 139.059 1008.95 138.832 1008.07 138.832C1007.29 138.832 1006.64 139.027 1006.12 139.418C1005.6 139.809 1005.34 140.281 1005.34 140.836H1003.16C1003.16 140.203 1003.38 139.594 1003.82 139.008C1004.28 138.414 1004.89 137.945 1005.65 137.602C1006.43 137.258 1007.27 137.086 1008.2 137.086C1009.66 137.086 1010.8 137.453 1011.63 138.188C1012.46 138.914 1012.89 139.918 1012.92 141.199V147.035C1012.92 148.199 1013.07 149.125 1013.36 149.812V150H1011.09ZM1007.49 148.348C1008.17 148.348 1008.82 148.172 1009.43 147.82C1010.04 147.469 1010.48 147.012 1010.75 146.449V143.848H1009.05C1006.39 143.848 1005.07 144.625 1005.07 146.18C1005.07 146.859 1005.29 147.391 1005.75 147.773C1006.2 148.156 1006.78 148.348 1007.49 148.348ZM1022.45 139.266C1022.12 139.211 1021.76 139.184 1021.38 139.184C1019.96 139.184 1018.99 139.789 1018.48 141V150H1016.32V137.32H1018.43L1018.46 138.785C1019.17 137.652 1020.18 137.086 1021.48 137.086C1021.91 137.086 1022.23 137.141 1022.45 137.25V139.266ZM1029.3 148.465C1030.07 148.465 1030.75 148.23 1031.33 147.762C1031.91 147.293 1032.23 146.707 1032.29 146.004H1034.34C1034.3 146.73 1034.05 147.422 1033.59 148.078C1033.13 148.734 1032.51 149.258 1031.74 149.648C1030.97 150.039 1030.16 150.234 1029.3 150.234C1027.57 150.234 1026.2 149.66 1025.18 148.512C1024.16 147.355 1023.65 145.777 1023.65 143.777V143.414C1023.65 142.18 1023.88 141.082 1024.33 140.121C1024.79 139.16 1025.43 138.414 1026.28 137.883C1027.13 137.352 1028.13 137.086 1029.29 137.086C1030.71 137.086 1031.89 137.512 1032.83 138.363C1033.77 139.215 1034.28 140.32 1034.34 141.68H1032.29C1032.23 140.859 1031.91 140.188 1031.35 139.664C1030.8 139.133 1030.11 138.867 1029.29 138.867C1028.19 138.867 1027.33 139.266 1026.72 140.062C1026.12 140.852 1025.82 141.996 1025.82 143.496V143.906C1025.82 145.367 1026.12 146.492 1026.72 147.281C1027.32 148.07 1028.18 148.465 1029.3 148.465ZM1038.95 138.855C1039.91 137.676 1041.16 137.086 1042.7 137.086C1045.38 137.086 1046.73 138.598 1046.75 141.621V150H1044.58V141.609C1044.57 140.695 1044.36 140.02 1043.95 139.582C1043.54 139.145 1042.91 138.926 1042.04 138.926C1041.34 138.926 1040.72 139.113 1040.19 139.488C1039.66 139.863 1039.24 140.355 1038.95 140.965V150H1036.78V132H1038.95V138.855ZM1000.96 178C1000.84 177.75 1000.74 177.305 1000.66 176.664C999.652 177.711 998.449 178.234 997.051 178.234C995.801 178.234 994.773 177.883 993.969 177.18C993.172 176.469 992.773 175.57 992.773 174.484C992.773 173.164 993.273 172.141 994.273 171.414C995.281 170.68 996.695 170.312 998.516 170.312H1000.62V169.316C1000.62 168.559 1000.4 167.957 999.945 167.512C999.492 167.059 998.824 166.832 997.941 166.832C997.168 166.832 996.52 167.027 995.996 167.418C995.473 167.809 995.211 168.281 995.211 168.836H993.031C993.031 168.203 993.254 167.594 993.699 167.008C994.152 166.414 994.762 165.945 995.527 165.602C996.301 165.258 997.148 165.086 998.07 165.086C999.531 165.086 1000.68 165.453 1001.5 166.188C1002.33 166.914 1002.76 167.918 1002.79 169.199V175.035C1002.79 176.199 1002.94 177.125 1003.24 177.812V178H1000.96ZM997.367 176.348C998.047 176.348 998.691 176.172 999.301 175.82C999.91 175.469 1000.35 175.012 1000.62 174.449V171.848H998.926C996.27 171.848 994.941 172.625 994.941 174.18C994.941 174.859 995.168 175.391 995.621 175.773C996.074 176.156 996.656 176.348 997.367 176.348ZM1016.9 171.801C1016.9 173.73 1016.46 175.285 1015.58 176.465C1014.7 177.645 1013.5 178.234 1011.99 178.234C1010.45 178.234 1009.24 177.746 1008.36 176.77V182.875H1006.19V165.32H1008.17L1008.28 166.727C1009.16 165.633 1010.39 165.086 1011.96 165.086C1013.48 165.086 1014.68 165.66 1015.57 166.809C1016.46 167.957 1016.9 169.555 1016.9 171.602V171.801ZM1014.73 171.555C1014.73 170.125 1014.43 168.996 1013.82 168.168C1013.21 167.34 1012.38 166.926 1011.31 166.926C1010 166.926 1009.02 167.508 1008.36 168.672V174.73C1009.01 175.887 1010 176.465 1011.34 176.465C1012.38 176.465 1013.2 176.055 1013.81 175.234C1014.43 174.406 1014.73 173.18 1014.73 171.555ZM1030.38 171.801C1030.38 173.73 1029.94 175.285 1029.05 176.465C1028.17 177.645 1026.98 178.234 1025.47 178.234C1023.93 178.234 1022.72 177.746 1021.84 176.77V182.875H1019.67V165.32H1021.65L1021.75 166.727C1022.64 165.633 1023.86 165.086 1025.43 165.086C1026.96 165.086 1028.16 165.66 1029.04 166.809C1029.93 167.957 1030.38 169.555 1030.38 171.602V171.801ZM1028.21 171.555C1028.21 170.125 1027.91 168.996 1027.3 168.168C1026.69 167.34 1025.85 166.926 1024.79 166.926C1023.48 166.926 1022.49 167.508 1021.84 168.672V174.73C1022.48 175.887 1023.48 176.465 1024.81 176.465C1025.85 176.465 1026.68 176.055 1027.29 175.234C1027.9 174.406 1028.21 173.18 1028.21 171.555Z" fill="black"/>
<circle cx="1011.5" cy="345.5" r="60.5" fill="#C4C4C4"/>
<path d="M994.191 351.762C993.613 352.59 992.805 353.211 991.766 353.625C990.734 354.031 989.531 354.234 988.156 354.234C986.766 354.234 985.531 353.91 984.453 353.262C983.375 352.605 982.539 351.676 981.945 350.473C981.359 349.27 981.059 347.875 981.043 346.289V344.801C981.043 342.23 981.641 340.238 982.836 338.824C984.039 337.41 985.727 336.703 987.898 336.703C989.68 336.703 991.113 337.16 992.199 338.074C993.285 338.98 993.949 340.27 994.191 341.941H991.941C991.52 339.684 990.176 338.555 987.91 338.555C986.402 338.555 985.258 339.086 984.477 340.148C983.703 341.203 983.312 342.734 983.305 344.742V346.137C983.305 348.051 983.742 349.574 984.617 350.707C985.492 351.832 986.676 352.395 988.168 352.395C989.012 352.395 989.75 352.301 990.383 352.113C991.016 351.926 991.539 351.609 991.953 351.164V347.332H988.004V345.504H994.191V351.762ZM1003.74 343.266C1003.41 343.211 1003.06 343.184 1002.68 343.184C1001.25 343.184 1000.29 343.789 999.781 345V354H997.613V341.32H999.723L999.758 342.785C1000.47 341.652 1001.48 341.086 1002.78 341.086C1003.2 341.086 1003.52 341.141 1003.74 341.25V343.266ZM1013.11 354C1012.98 353.75 1012.88 353.305 1012.8 352.664C1011.79 353.711 1010.59 354.234 1009.19 354.234C1007.94 354.234 1006.91 353.883 1006.11 353.18C1005.31 352.469 1004.91 351.57 1004.91 350.484C1004.91 349.164 1005.41 348.141 1006.41 347.414C1007.42 346.68 1008.84 346.312 1010.66 346.312H1012.77V345.316C1012.77 344.559 1012.54 343.957 1012.09 343.512C1011.63 343.059 1010.96 342.832 1010.08 342.832C1009.31 342.832 1008.66 343.027 1008.14 343.418C1007.61 343.809 1007.35 344.281 1007.35 344.836H1005.17C1005.17 344.203 1005.39 343.594 1005.84 343.008C1006.29 342.414 1006.9 341.945 1007.67 341.602C1008.44 341.258 1009.29 341.086 1010.21 341.086C1011.67 341.086 1012.82 341.453 1013.64 342.188C1014.47 342.914 1014.9 343.918 1014.93 345.199V351.035C1014.93 352.199 1015.08 353.125 1015.38 353.812V354H1013.11ZM1009.51 352.348C1010.19 352.348 1010.83 352.172 1011.44 351.82C1012.05 351.469 1012.49 351.012 1012.77 350.449V347.848H1011.07C1008.41 347.848 1007.08 348.625 1007.08 350.18C1007.08 350.859 1007.31 351.391 1007.76 351.773C1008.21 352.156 1008.8 352.348 1009.51 352.348ZM1029.04 347.801C1029.04 349.73 1028.6 351.285 1027.72 352.465C1026.84 353.645 1025.64 354.234 1024.13 354.234C1022.59 354.234 1021.38 353.746 1020.5 352.77V358.875H1018.33V341.32H1020.31L1020.42 342.727C1021.3 341.633 1022.53 341.086 1024.1 341.086C1025.62 341.086 1026.82 341.66 1027.71 342.809C1028.6 343.957 1029.04 345.555 1029.04 347.602V347.801ZM1026.88 347.555C1026.88 346.125 1026.57 344.996 1025.96 344.168C1025.35 343.34 1024.52 342.926 1023.45 342.926C1022.14 342.926 1021.16 343.508 1020.5 344.672V350.73C1021.15 351.887 1022.14 352.465 1023.48 352.465C1024.52 352.465 1025.34 352.055 1025.95 351.234C1026.57 350.406 1026.88 349.18 1026.88 347.555ZM1033.98 342.855C1034.94 341.676 1036.19 341.086 1037.73 341.086C1040.41 341.086 1041.76 342.598 1041.78 345.621V354H1039.61V345.609C1039.61 344.695 1039.39 344.02 1038.98 343.582C1038.57 343.145 1037.94 342.926 1037.07 342.926C1036.37 342.926 1035.75 343.113 1035.22 343.488C1034.69 343.863 1034.27 344.355 1033.98 344.965V354H1031.81V336H1033.98V342.855Z" fill="black"/>
<circle cx="1011.5" cy="345.5" r="60.5" fill="#C4C4C4"/>
<path d="M982.754 337.012L987.629 322.938H990.09L983.762 340H981.77L975.453 322.938H977.902L982.754 337.012ZM994.402 340H992.234V327.32H994.402V340ZM992.059 323.957C992.059 323.605 992.164 323.309 992.375 323.066C992.594 322.824 992.914 322.703 993.336 322.703C993.758 322.703 994.078 322.824 994.297 323.066C994.516 323.309 994.625 323.605 994.625 323.957C994.625 324.309 994.516 324.602 994.297 324.836C994.078 325.07 993.758 325.188 993.336 325.188C992.914 325.188 992.594 325.07 992.375 324.836C992.164 324.602 992.059 324.309 992.059 323.957ZM1003.14 340.234C1001.43 340.234 1000.03 339.672 998.949 338.547C997.871 337.414 997.332 335.902 997.332 334.012V333.613C997.332 332.355 997.57 331.234 998.047 330.25C998.531 329.258 999.203 328.484 1000.06 327.93C1000.93 327.367 1001.87 327.086 1002.88 327.086C1004.52 327.086 1005.8 327.629 1006.72 328.715C1007.63 329.801 1008.09 331.355 1008.09 333.379V334.281H999.5C999.531 335.531 999.895 336.543 1000.59 337.316C1001.29 338.082 1002.18 338.465 1003.26 338.465C1004.03 338.465 1004.68 338.309 1005.21 337.996C1005.74 337.684 1006.2 337.27 1006.6 336.754L1007.93 337.785C1006.86 339.418 1005.27 340.234 1003.14 340.234ZM1002.88 328.867C1002 328.867 1001.27 329.188 1000.67 329.828C1000.08 330.461 999.711 331.352 999.57 332.5H1005.92V332.336C1005.86 331.234 1005.56 330.383 1005.03 329.781C1004.5 329.172 1003.78 328.867 1002.88 328.867ZM1021.84 337.012L1024.27 327.32H1026.44L1022.75 340H1020.99L1017.91 330.391L1014.91 340H1013.15L1009.47 327.32H1011.63L1014.12 336.812L1017.08 327.32H1018.82L1021.84 337.012ZM1033.92 340.234C1032.2 340.234 1030.8 339.672 1029.72 338.547C1028.64 337.414 1028.11 335.902 1028.11 334.012V333.613C1028.11 332.355 1028.34 331.234 1028.82 330.25C1029.3 329.258 1029.98 328.484 1030.84 327.93C1031.7 327.367 1032.64 327.086 1033.65 327.086C1035.3 327.086 1036.58 327.629 1037.49 328.715C1038.41 329.801 1038.86 331.355 1038.86 333.379V334.281H1030.27C1030.3 335.531 1030.67 336.543 1031.36 337.316C1032.07 338.082 1032.96 338.465 1034.04 338.465C1034.8 338.465 1035.45 338.309 1035.98 337.996C1036.51 337.684 1036.98 337.27 1037.38 336.754L1038.7 337.785C1037.64 339.418 1036.04 340.234 1033.92 340.234ZM1033.65 328.867C1032.77 328.867 1032.04 329.188 1031.45 329.828C1030.85 330.461 1030.48 331.352 1030.34 332.5H1036.7V332.336C1036.63 331.234 1036.34 330.383 1035.8 329.781C1035.27 329.172 1034.55 328.867 1033.65 328.867ZM1047.51 329.266C1047.18 329.211 1046.83 329.184 1046.45 329.184C1045.02 329.184 1044.06 329.789 1043.55 331V340H1041.38V327.32H1043.49L1043.53 328.785C1044.24 327.652 1045.25 327.086 1046.55 327.086C1046.97 327.086 1047.29 327.141 1047.51 327.25V329.266ZM994.777 368C994.652 367.75 994.551 367.305 994.473 366.664C993.465 367.711 992.262 368.234 990.863 368.234C989.613 368.234 988.586 367.883 987.781 367.18C986.984 366.469 986.586 365.57 986.586 364.484C986.586 363.164 987.086 362.141 988.086 361.414C989.094 360.68 990.508 360.312 992.328 360.312H994.438V359.316C994.438 358.559 994.211 357.957 993.758 357.512C993.305 357.059 992.637 356.832 991.754 356.832C990.98 356.832 990.332 357.027 989.809 357.418C989.285 357.809 989.023 358.281 989.023 358.836H986.844C986.844 358.203 987.066 357.594 987.512 357.008C987.965 356.414 988.574 355.945 989.34 355.602C990.113 355.258 990.961 355.086 991.883 355.086C993.344 355.086 994.488 355.453 995.316 356.188C996.145 356.914 996.574 357.918 996.605 359.199V365.035C996.605 366.199 996.754 367.125 997.051 367.812V368H994.777ZM991.18 366.348C991.859 366.348 992.504 366.172 993.113 365.82C993.723 365.469 994.164 365.012 994.438 364.449V361.848H992.738C990.082 361.848 988.754 362.625 988.754 364.18C988.754 364.859 988.98 365.391 989.434 365.773C989.887 366.156 990.469 366.348 991.18 366.348ZM1010.71 361.801C1010.71 363.73 1010.27 365.285 1009.39 366.465C1008.51 367.645 1007.31 368.234 1005.8 368.234C1004.27 368.234 1003.05 367.746 1002.17 366.77V372.875H1000V355.32H1001.98L1002.09 356.727C1002.97 355.633 1004.2 355.086 1005.77 355.086C1007.29 355.086 1008.5 355.66 1009.38 356.809C1010.27 357.957 1010.71 359.555 1010.71 361.602V361.801ZM1008.55 361.555C1008.55 360.125 1008.24 358.996 1007.63 358.168C1007.02 357.34 1006.19 356.926 1005.12 356.926C1003.81 356.926 1002.83 357.508 1002.17 358.672V364.73C1002.82 365.887 1003.81 366.465 1005.15 366.465C1006.19 366.465 1007.01 366.055 1007.62 365.234C1008.24 364.406 1008.55 363.18 1008.55 361.555ZM1024.19 361.801C1024.19 363.73 1023.75 365.285 1022.87 366.465C1021.98 367.645 1020.79 368.234 1019.28 368.234C1017.74 368.234 1016.53 367.746 1015.65 366.77V372.875H1013.48V355.32H1015.46L1015.57 356.727C1016.45 355.633 1017.68 355.086 1019.25 355.086C1020.77 355.086 1021.97 355.66 1022.86 356.809C1023.75 357.957 1024.19 359.555 1024.19 361.602V361.801ZM1022.02 361.555C1022.02 360.125 1021.72 358.996 1021.11 358.168C1020.5 357.34 1019.66 356.926 1018.6 356.926C1017.29 356.926 1016.3 357.508 1015.65 358.672V364.73C1016.3 365.887 1017.29 366.465 1018.62 366.465C1019.66 366.465 1020.49 366.055 1021.1 365.234C1021.71 364.406 1022.02 363.18 1022.02 361.555ZM1034.34 364.637C1034.34 364.051 1034.12 363.598 1033.67 363.277C1033.23 362.949 1032.46 362.668 1031.36 362.434C1030.27 362.199 1029.4 361.918 1028.75 361.59C1028.11 361.262 1027.63 360.871 1027.32 360.418C1027.02 359.965 1026.86 359.426 1026.86 358.801C1026.86 357.762 1027.3 356.883 1028.18 356.164C1029.06 355.445 1030.18 355.086 1031.55 355.086C1032.99 355.086 1034.15 355.457 1035.04 356.199C1035.94 356.941 1036.39 357.891 1036.39 359.047H1034.21C1034.21 358.453 1033.96 357.941 1033.45 357.512C1032.95 357.082 1032.32 356.867 1031.55 356.867C1030.76 356.867 1030.14 357.039 1029.7 357.383C1029.25 357.727 1029.03 358.176 1029.03 358.73C1029.03 359.254 1029.24 359.648 1029.65 359.914C1030.07 360.18 1030.81 360.434 1031.89 360.676C1032.98 360.918 1033.86 361.207 1034.53 361.543C1035.2 361.879 1035.7 362.285 1036.02 362.762C1036.34 363.23 1036.51 363.805 1036.51 364.484C1036.51 365.617 1036.05 366.527 1035.15 367.215C1034.24 367.895 1033.07 368.234 1031.62 368.234C1030.61 368.234 1029.71 368.055 1028.93 367.695C1028.14 367.336 1027.53 366.836 1027.09 366.195C1026.65 365.547 1026.43 364.848 1026.43 364.098H1028.6C1028.64 364.824 1028.93 365.402 1029.46 365.832C1030.01 366.254 1030.73 366.465 1031.62 366.465C1032.44 366.465 1033.1 366.301 1033.59 365.973C1034.09 365.637 1034.34 365.191 1034.34 364.637Z" fill="black"/>
<path d="M944.352 44V26.9375H949.168C950.652 26.9375 951.965 27.2656 953.105 27.9219C954.246 28.5781 955.125 29.5117 955.742 30.7227C956.367 31.9336 956.684 33.3242 956.691 34.8945V35.9844C956.691 37.5938 956.379 39.0039 955.754 40.2148C955.137 41.4258 954.25 42.3555 953.094 43.0039C951.945 43.6523 950.605 43.9844 949.074 44H944.352ZM946.602 28.7891V42.1602H948.969C950.703 42.1602 952.051 41.6211 953.012 40.543C953.98 39.4648 954.465 37.9297 954.465 35.9375V34.9414C954.465 33.0039 954.008 31.5 953.094 30.4297C952.188 29.3516 950.898 28.8047 949.227 28.7891H946.602ZM967.59 44C967.465 43.75 967.363 43.3047 967.285 42.6641C966.277 43.7109 965.074 44.2344 963.676 44.2344C962.426 44.2344 961.398 43.8828 960.594 43.1797C959.797 42.4688 959.398 41.5703 959.398 40.4844C959.398 39.1641 959.898 38.1406 960.898 37.4141C961.906 36.6797 963.32 36.3125 965.141 36.3125H967.25V35.3164C967.25 34.5586 967.023 33.957 966.57 33.5117C966.117 33.0586 965.449 32.832 964.566 32.832C963.793 32.832 963.145 33.0273 962.621 33.418C962.098 33.8086 961.836 34.2812 961.836 34.8359H959.656C959.656 34.2031 959.879 33.5938 960.324 33.0078C960.777 32.4141 961.387 31.9453 962.152 31.6016C962.926 31.2578 963.773 31.0859 964.695 31.0859C966.156 31.0859 967.301 31.4531 968.129 32.1875C968.957 32.9141 969.387 33.918 969.418 35.1992V41.0352C969.418 42.1992 969.566 43.125 969.863 43.8125V44H967.59ZM963.992 42.3477C964.672 42.3477 965.316 42.1719 965.926 41.8203C966.535 41.4688 966.977 41.0117 967.25 40.4492V37.8477H965.551C962.895 37.8477 961.566 38.625 961.566 40.1797C961.566 40.8594 961.793 41.3906 962.246 41.7734C962.699 42.1562 963.281 42.3477 963.992 42.3477ZM975.758 28.25V31.3203H978.125V32.9961H975.758V40.8594C975.758 41.3672 975.863 41.75 976.074 42.0078C976.285 42.2578 976.645 42.3828 977.152 42.3828C977.402 42.3828 977.746 42.3359 978.184 42.2422V44C977.613 44.1562 977.059 44.2344 976.52 44.2344C975.551 44.2344 974.82 43.9414 974.328 43.3555C973.836 42.7695 973.59 41.9375 973.59 40.8594V32.9961H971.281V31.3203H973.59V28.25H975.758ZM988.496 44C988.371 43.75 988.27 43.3047 988.191 42.6641C987.184 43.7109 985.98 44.2344 984.582 44.2344C983.332 44.2344 982.305 43.8828 981.5 43.1797C980.703 42.4688 980.305 41.5703 980.305 40.4844C980.305 39.1641 980.805 38.1406 981.805 37.4141C982.812 36.6797 984.227 36.3125 986.047 36.3125H988.156V35.3164C988.156 34.5586 987.93 33.957 987.477 33.5117C987.023 33.0586 986.355 32.832 985.473 32.832C984.699 32.832 984.051 33.0273 983.527 33.418C983.004 33.8086 982.742 34.2812 982.742 34.8359H980.562C980.562 34.2031 980.785 33.5938 981.23 33.0078C981.684 32.4141 982.293 31.9453 983.059 31.6016C983.832 31.2578 984.68 31.0859 985.602 31.0859C987.062 31.0859 988.207 31.4531 989.035 32.1875C989.863 32.9141 990.293 33.918 990.324 35.1992V41.0352C990.324 42.1992 990.473 43.125 990.77 43.8125V44H988.496ZM984.898 42.3477C985.578 42.3477 986.223 42.1719 986.832 41.8203C987.441 41.4688 987.883 41.0117 988.156 40.4492V37.8477H986.457C983.801 37.8477 982.473 38.625 982.473 40.1797C982.473 40.8594 982.699 41.3906 983.152 41.7734C983.605 42.1562 984.188 42.3477 984.898 42.3477ZM1012.57 38.5859C1012.36 40.3906 1011.69 41.7852 1010.56 42.7695C1009.45 43.7461 1007.96 44.2344 1006.1 44.2344C1004.08 44.2344 1002.46 43.5117 1001.25 42.0664C1000.04 40.6211 999.43 38.6875 999.43 36.2656V34.625C999.43 33.0391 999.711 31.6445 1000.27 30.4414C1000.84 29.2383 1001.65 28.3164 1002.69 27.6758C1003.73 27.0273 1004.93 26.7031 1006.3 26.7031C1008.11 26.7031 1009.56 27.2109 1010.66 28.2266C1011.75 29.2344 1012.39 30.6328 1012.57 32.4219H1010.3C1010.11 31.0625 1009.68 30.0781 1009.03 29.4688C1008.38 28.8594 1007.47 28.5547 1006.3 28.5547C1004.86 28.5547 1003.73 29.0859 1002.91 30.1484C1002.1 31.2109 1001.69 32.7227 1001.69 34.6836V36.3359C1001.69 38.1875 1002.08 39.6602 1002.85 40.7539C1003.62 41.8477 1004.71 42.3945 1006.1 42.3945C1007.35 42.3945 1008.3 42.1133 1008.97 41.5508C1009.64 40.9805 1010.09 39.9922 1010.3 38.5859H1012.57ZM1023.14 44C1023.01 43.75 1022.91 43.3047 1022.83 42.6641C1021.82 43.7109 1020.62 44.2344 1019.22 44.2344C1017.97 44.2344 1016.95 43.8828 1016.14 43.1797C1015.34 42.4688 1014.95 41.5703 1014.95 40.4844C1014.95 39.1641 1015.45 38.1406 1016.45 37.4141C1017.45 36.6797 1018.87 36.3125 1020.69 36.3125H1022.8V35.3164C1022.8 34.5586 1022.57 33.957 1022.12 33.5117C1021.66 33.0586 1021 32.832 1020.11 32.832C1019.34 32.832 1018.69 33.0273 1018.17 33.418C1017.64 33.8086 1017.38 34.2812 1017.38 34.8359H1015.2C1015.2 34.2031 1015.43 33.5938 1015.87 33.0078C1016.32 32.4141 1016.93 31.9453 1017.7 31.6016C1018.47 31.2578 1019.32 31.0859 1020.24 31.0859C1021.7 31.0859 1022.85 31.4531 1023.68 32.1875C1024.5 32.9141 1024.93 33.918 1024.96 35.1992V41.0352C1024.96 42.1992 1025.11 43.125 1025.41 43.8125V44H1023.14ZM1019.54 42.3477C1020.22 42.3477 1020.86 42.1719 1021.47 41.8203C1022.08 41.4688 1022.52 41.0117 1022.8 40.4492V37.8477H1021.1C1018.44 37.8477 1017.11 38.625 1017.11 40.1797C1017.11 40.8594 1017.34 41.3906 1017.79 41.7734C1018.25 42.1562 1018.83 42.3477 1019.54 42.3477ZM1031.3 28.25V31.3203H1033.67V32.9961H1031.3V40.8594C1031.3 41.3672 1031.41 41.75 1031.62 42.0078C1031.83 42.2578 1032.19 42.3828 1032.7 42.3828C1032.95 42.3828 1033.29 42.3359 1033.73 42.2422V44C1033.16 44.1562 1032.61 44.2344 1032.07 44.2344C1031.1 44.2344 1030.37 43.9414 1029.88 43.3555C1029.38 42.7695 1029.14 41.9375 1029.14 40.8594V32.9961H1026.83V31.3203H1029.14V28.25H1031.3ZM1044.04 44C1043.92 43.75 1043.82 43.3047 1043.74 42.6641C1042.73 43.7109 1041.53 44.2344 1040.13 44.2344C1038.88 44.2344 1037.85 43.8828 1037.05 43.1797C1036.25 42.4688 1035.85 41.5703 1035.85 40.4844C1035.85 39.1641 1036.35 38.1406 1037.35 37.4141C1038.36 36.6797 1039.77 36.3125 1041.59 36.3125H1043.7V35.3164C1043.7 34.5586 1043.48 33.957 1043.02 33.5117C1042.57 33.0586 1041.9 32.832 1041.02 32.832C1040.25 32.832 1039.6 33.0273 1039.07 33.418C1038.55 33.8086 1038.29 34.2812 1038.29 34.8359H1036.11C1036.11 34.2031 1036.33 33.5938 1036.78 33.0078C1037.23 32.4141 1037.84 31.9453 1038.61 31.6016C1039.38 31.2578 1040.23 31.0859 1041.15 31.0859C1042.61 31.0859 1043.75 31.4531 1044.58 32.1875C1045.41 32.9141 1045.84 33.918 1045.87 35.1992V41.0352C1045.87 42.1992 1046.02 43.125 1046.32 43.8125V44H1044.04ZM1040.45 42.3477C1041.12 42.3477 1041.77 42.1719 1042.38 41.8203C1042.99 41.4688 1043.43 41.0117 1043.7 40.4492V37.8477H1042C1039.35 37.8477 1038.02 38.625 1038.02 40.1797C1038.02 40.8594 1038.25 41.3906 1038.7 41.7734C1039.15 42.1562 1039.73 42.3477 1040.45 42.3477ZM1051.62 44H1049.46V26H1051.62V44ZM1054.53 37.543C1054.53 36.3008 1054.77 35.1836 1055.26 34.1914C1055.75 33.1992 1056.43 32.4336 1057.3 31.8945C1058.17 31.3555 1059.17 31.0859 1060.29 31.0859C1062.01 31.0859 1063.41 31.6836 1064.47 32.8789C1065.54 34.0742 1066.07 35.6641 1066.07 37.6484V37.8008C1066.07 39.0352 1065.84 40.1445 1065.36 41.1289C1064.89 42.1055 1064.21 42.8672 1063.33 43.4141C1062.46 43.9609 1061.45 44.2344 1060.31 44.2344C1058.59 44.2344 1057.2 43.6367 1056.12 42.4414C1055.06 41.2461 1054.53 39.6641 1054.53 37.6953V37.543ZM1056.71 37.8008C1056.71 39.207 1057.04 40.3359 1057.68 41.1875C1058.34 42.0391 1059.21 42.4648 1060.31 42.4648C1061.41 42.4648 1062.29 42.0352 1062.93 41.1758C1063.58 40.3086 1063.91 39.0977 1063.91 37.543C1063.91 36.1523 1063.57 35.0273 1062.91 34.168C1062.25 33.3008 1061.38 32.8672 1060.29 32.8672C1059.21 32.8672 1058.35 33.293 1057.7 34.1445C1057.04 34.9961 1056.71 36.2148 1056.71 37.8008ZM1068.28 37.5547C1068.28 35.5781 1068.73 34.0078 1069.65 32.8438C1070.56 31.6719 1071.77 31.0859 1073.28 31.0859C1074.83 31.0859 1076.04 31.6328 1076.9 32.7266L1077.01 31.3203H1078.99V43.6953C1078.99 45.3359 1078.5 46.6289 1077.52 47.5742C1076.55 48.5195 1075.25 48.9922 1073.61 48.9922C1072.7 48.9922 1071.8 48.7969 1070.93 48.4062C1070.05 48.0156 1069.38 47.4805 1068.92 46.8008L1070.05 45.5C1070.98 46.6484 1072.11 47.2227 1073.46 47.2227C1074.51 47.2227 1075.33 46.9258 1075.92 46.332C1076.51 45.7383 1076.81 44.9023 1076.81 43.8242V42.7344C1075.94 43.7344 1074.76 44.2344 1073.26 44.2344C1071.77 44.2344 1070.57 43.6367 1069.65 42.4414C1068.73 41.2461 1068.28 39.6172 1068.28 37.5547ZM1070.46 37.8008C1070.46 39.2305 1070.75 40.3555 1071.34 41.1758C1071.92 41.9883 1072.74 42.3945 1073.8 42.3945C1075.16 42.3945 1076.17 41.7734 1076.81 40.5312V34.7422C1076.14 33.5312 1075.15 32.9258 1073.82 32.9258C1072.77 32.9258 1071.94 33.3359 1071.35 34.1562C1070.75 34.9766 1070.46 36.1914 1070.46 37.8008ZM968.938 72V60.9961H966.934V59.3203H968.938V58.0195C968.938 56.6602 969.301 55.6094 970.027 54.8672C970.754 54.125 971.781 53.7539 973.109 53.7539C973.609 53.7539 974.105 53.8203 974.598 53.9531L974.48 55.7109C974.113 55.6406 973.723 55.6055 973.309 55.6055C972.605 55.6055 972.062 55.8125 971.68 56.2266C971.297 56.6328 971.105 57.2188 971.105 57.9844V59.3203H973.812V60.9961H971.105V72H968.938ZM982.344 61.2656C982.016 61.2109 981.66 61.1836 981.277 61.1836C979.855 61.1836 978.891 61.7891 978.383 63V72H976.215V59.3203H978.324L978.359 60.7852C979.07 59.6523 980.078 59.0859 981.383 59.0859C981.805 59.0859 982.125 59.1406 982.344 59.25V61.2656ZM983.539 65.543C983.539 64.3008 983.781 63.1836 984.266 62.1914C984.758 61.1992 985.438 60.4336 986.305 59.8945C987.18 59.3555 988.176 59.0859 989.293 59.0859C991.02 59.0859 992.414 59.6836 993.477 60.8789C994.547 62.0742 995.082 63.6641 995.082 65.6484V65.8008C995.082 67.0352 994.844 68.1445 994.367 69.1289C993.898 70.1055 993.223 70.8672 992.34 71.4141C991.465 71.9609 990.457 72.2344 989.316 72.2344C987.598 72.2344 986.203 71.6367 985.133 70.4414C984.07 69.2461 983.539 67.6641 983.539 65.6953V65.543ZM985.719 65.8008C985.719 67.207 986.043 68.3359 986.691 69.1875C987.348 70.0391 988.223 70.4648 989.316 70.4648C990.418 70.4648 991.293 70.0352 991.941 69.1758C992.59 68.3086 992.914 67.0977 992.914 65.543C992.914 64.1523 992.582 63.0273 991.918 62.168C991.262 61.3008 990.387 60.8672 989.293 60.8672C988.223 60.8672 987.359 61.293 986.703 62.1445C986.047 62.9961 985.719 64.2148 985.719 65.8008ZM999.852 59.3203L999.922 60.9141C1000.89 59.6953 1002.16 59.0859 1003.72 59.0859C1006.4 59.0859 1007.75 60.5977 1007.77 63.6211V72H1005.61V63.6094C1005.6 62.6953 1005.39 62.0195 1004.97 61.582C1004.57 61.1445 1003.93 60.9258 1003.06 60.9258C1002.36 60.9258 1001.74 61.1133 1001.21 61.4883C1000.68 61.8633 1000.27 62.3555 999.969 62.9648V72H997.801V59.3203H999.852ZM1013.98 56.25V59.3203H1016.35V60.9961H1013.98V68.8594C1013.98 69.3672 1014.09 69.75 1014.3 70.0078C1014.51 70.2578 1014.87 70.3828 1015.38 70.3828C1015.63 70.3828 1015.97 70.3359 1016.41 70.2422V72C1015.84 72.1562 1015.29 72.2344 1014.75 72.2344C1013.78 72.2344 1013.05 71.9414 1012.55 71.3555C1012.06 70.7695 1011.82 69.9375 1011.82 68.8594V60.9961H1009.51V59.3203H1011.82V56.25H1013.98ZM1024.16 72.2344C1022.44 72.2344 1021.04 71.6719 1019.96 70.5469C1018.88 69.4141 1018.34 67.9023 1018.34 66.0117V65.6133C1018.34 64.3555 1018.58 63.2344 1019.06 62.25C1019.54 61.2578 1020.21 60.4844 1021.07 59.9297C1021.94 59.3672 1022.88 59.0859 1023.89 59.0859C1025.54 59.0859 1026.82 59.6289 1027.73 60.7148C1028.64 61.8008 1029.1 63.3555 1029.1 65.3789V66.2812H1020.51C1020.54 67.5312 1020.91 68.543 1021.6 69.3164C1022.3 70.082 1023.2 70.4648 1024.27 70.4648C1025.04 70.4648 1025.69 70.3086 1026.22 69.9961C1026.75 69.6836 1027.21 69.2695 1027.61 68.7539L1028.94 69.7852C1027.88 71.418 1026.28 72.2344 1024.16 72.2344ZM1023.89 60.8672C1023.01 60.8672 1022.28 61.1875 1021.68 61.8281C1021.09 62.4609 1020.72 63.3516 1020.58 64.5H1026.93V64.3359C1026.87 63.2344 1026.57 62.3828 1026.04 61.7812C1025.51 61.1719 1024.79 60.8672 1023.89 60.8672ZM1033.67 59.3203L1033.74 60.9141C1034.71 59.6953 1035.98 59.0859 1037.54 59.0859C1040.22 59.0859 1041.57 60.5977 1041.59 63.6211V72H1039.43V63.6094C1039.42 62.6953 1039.21 62.0195 1038.79 61.582C1038.39 61.1445 1037.75 60.9258 1036.88 60.9258C1036.18 60.9258 1035.56 61.1133 1035.03 61.4883C1034.5 61.8633 1034.09 62.3555 1033.79 62.9648V72H1031.62V59.3203H1033.67ZM1044.34 65.5547C1044.34 63.6094 1044.8 62.0469 1045.72 60.8672C1046.64 59.6797 1047.85 59.0859 1049.34 59.0859C1050.82 59.0859 1052 59.5938 1052.87 60.6094V54H1055.04V72H1053.04L1052.94 70.6406C1052.07 71.7031 1050.86 72.2344 1049.32 72.2344C1047.85 72.2344 1046.65 71.6328 1045.72 70.4297C1044.8 69.2266 1044.34 67.6562 1044.34 65.7188V65.5547ZM1046.5 65.8008C1046.5 67.2383 1046.8 68.3633 1047.39 69.1758C1047.99 69.9883 1048.81 70.3945 1049.86 70.3945C1051.23 70.3945 1052.23 69.7773 1052.87 68.543V62.7188C1052.22 61.5234 1051.22 60.9258 1049.88 60.9258C1048.82 60.9258 1047.99 61.3359 1047.39 62.1562C1046.8 62.9766 1046.5 64.1914 1046.5 65.8008Z" fill="black"/>
<path d="M213.354 242.354C213.549 242.158 213.549 241.842 213.354 241.646L210.172 238.464C209.976 238.269 209.66 238.269 209.464 238.464C209.269 238.66 209.269 238.976 209.464 239.172L212.293 242L209.464 244.828C209.269 245.024 209.269 245.34 209.464 245.536C209.66 245.731 209.976 245.731 210.172 245.536L213.354 242.354ZM151 242.5H213V241.5H151V242.5Z" fill="black"/>
<path d="M130.646 241.646C130.451 241.842 130.451 242.158 130.646 242.354L133.828 245.536C134.024 245.731 134.34 245.731 134.536 245.536C134.731 245.34 134.731 245.024 134.536 244.828L131.707 242L134.536 239.172C134.731 238.976 134.731 238.66 134.536 238.464C134.34 238.269 134.024 238.269 133.828 238.464L130.646 241.646ZM171 241.5H131V242.5H171V241.5Z" fill="black"/>
<path d="M941.453 157.211C941.57 156.961 941.462 156.664 941.211 156.547L937.134 154.644C936.883 154.527 936.586 154.635 936.469 154.886C936.352 155.136 936.461 155.433 936.711 155.55L940.335 157.242L938.644 160.866C938.527 161.117 938.635 161.414 938.886 161.531C939.136 161.648 939.433 161.54 939.55 161.289L941.453 157.211ZM833.049 196.787L941.171 157.47L940.829 156.53L832.707 195.847L833.049 196.787Z" fill="black"/>
<path d="M797.547 208.789C797.43 209.039 797.538 209.336 797.789 209.453L801.866 211.356C802.117 211.473 802.414 211.365 802.531 211.114C802.648 210.864 802.54 210.567 802.289 210.45L798.665 208.758L800.356 205.134C800.473 204.883 800.365 204.586 800.114 204.469C799.864 204.352 799.567 204.461 799.45 204.711L797.547 208.789ZM867.585 183.164L797.829 208.53L798.171 209.47L867.927 184.104L867.585 183.164Z" fill="black"/>
<path d="M941.159 340.474C941.421 340.386 941.562 340.102 941.474 339.841L940.039 335.575C939.951 335.314 939.667 335.173 939.406 335.261C939.144 335.349 939.003 335.633 939.091 335.894L940.367 339.686L936.575 340.961C936.314 341.049 936.173 341.333 936.261 341.594C936.349 341.856 936.633 341.997 936.894 341.909L941.159 340.474ZM832.656 286.765L940.778 340.448L941.222 339.552L833.1 285.869L832.656 286.765Z" fill="black"/>
<path d="M797.841 268.526C797.579 268.614 797.438 268.898 797.526 269.159L798.961 273.425C799.049 273.686 799.333 273.827 799.594 273.739C799.856 273.651 799.997 273.367 799.909 273.106L798.633 269.314L802.425 268.039C802.686 267.951 802.827 267.667 802.739 267.406C802.651 267.144 802.367 267.003 802.106 267.091L797.841 268.526ZM867.978 303.186L798.222 268.552L797.778 269.448L867.534 304.082L867.978 303.186Z" fill="black"/>
<path d="M676.978 192.422C677.291 192.438 677.554 192.262 677.566 192.029L677.76 188.227C677.771 187.994 677.528 187.792 677.215 187.776C676.903 187.76 676.64 187.936 676.628 188.17L676.456 191.549L671.928 191.318C671.616 191.302 671.353 191.478 671.341 191.712C671.329 191.945 671.573 192.147 671.885 192.163L676.978 192.422ZM592.658 122.717L676.585 192.278L677.415 191.722L593.489 122.161L592.658 122.717Z" fill="black"/>
<path d="M566.022 99.5776C565.709 99.5617 565.446 99.7379 565.434 99.9712L565.24 103.773C565.229 104.006 565.472 104.208 565.785 104.224C566.097 104.24 566.36 104.064 566.372 103.83L566.544 100.451L571.072 100.682C571.384 100.698 571.647 100.522 571.659 100.288C571.671 100.055 571.427 99.8529 571.115 99.837L566.022 99.5776ZM620.562 144.6L566.415 99.7217L565.585 100.278L619.731 145.156L620.562 144.6Z" fill="black"/>
<path d="M676.978 192.422C677.291 192.438 677.554 192.262 677.566 192.029L677.76 188.227C677.771 187.994 677.528 187.792 677.215 187.776C676.903 187.76 676.64 187.936 676.628 188.17L676.456 191.549L671.928 191.318C671.616 191.302 671.353 191.478 671.341 191.712C671.329 191.945 671.573 192.147 671.885 192.163L676.978 192.422ZM592.658 122.717L676.585 192.278L677.415 191.722L593.489 122.161L592.658 122.717Z" fill="black"/>
<path d="M566.022 99.5776C565.709 99.5617 565.446 99.7379 565.434 99.9712L565.24 103.773C565.229 104.006 565.472 104.208 565.785 104.224C566.097 104.24 566.36 104.064 566.372 103.83L566.544 100.451L571.072 100.682C571.384 100.698 571.647 100.522 571.659 100.288C571.671 100.055 571.427 99.8529 571.115 99.837L566.022 99.5776ZM620.562 144.6L566.415 99.7217L565.585 100.278L619.731 145.156L620.562 144.6Z" fill="black"/>
<path d="M677.481 291.033C677.5 290.748 677.301 290.502 677.035 290.484L672.708 290.189C672.442 290.171 672.211 290.387 672.192 290.672C672.172 290.957 672.372 291.203 672.637 291.221L676.484 291.483L676.203 295.613C676.183 295.898 676.383 296.144 676.648 296.162C676.914 296.18 677.145 295.964 677.164 295.679L677.481 291.033ZM593.388 370.022L677.315 291.388L676.685 290.612L592.758 369.246L593.388 370.022Z" fill="black"/>
<path d="M565.519 394.967C565.5 395.252 565.699 395.498 565.965 395.516L570.292 395.811C570.558 395.829 570.789 395.613 570.808 395.328C570.828 395.043 570.628 394.797 570.363 394.779L566.516 394.517L566.797 390.387C566.817 390.102 566.617 389.856 566.352 389.838C566.086 389.82 565.855 390.036 565.836 390.321L565.519 394.967ZM619.831 343.88L565.685 394.612L566.315 395.388L620.461 344.657L619.831 343.88Z" fill="black"/>
<path d="M666.354 241.354C666.549 241.158 666.549 240.842 666.354 240.646L663.172 237.464C662.976 237.269 662.66 237.269 662.464 237.464C662.269 237.66 662.269 237.976 662.464 238.172L665.293 241L662.464 243.828C662.269 244.024 662.269 244.34 662.464 244.536C662.66 244.731 662.976 244.731 663.172 244.536L666.354 241.354ZM604 241.5H666V240.5H604V241.5Z" fill="black"/>
<path d="M583.646 240.646C583.451 240.842 583.451 241.158 583.646 241.354L586.828 244.536C587.024 244.731 587.34 244.731 587.536 244.536C587.731 244.34 587.731 244.024 587.536 243.828L584.707 241L587.536 238.172C587.731 237.976 587.731 237.66 587.536 237.464C587.34 237.269 587.024 237.269 586.828 237.464L583.646 240.646ZM624 240.5H584V241.5H624V240.5Z" fill="black"/>
<path d="M1011.65 276.354C1011.84 276.549 1012.16 276.549 1012.35 276.354L1015.54 273.172C1015.73 272.976 1015.73 272.66 1015.54 272.464C1015.34 272.269 1015.02 272.269 1014.83 272.464L1012 275.293L1009.17 272.464C1008.98 272.269 1008.66 272.269 1008.46 272.464C1008.27 272.66 1008.27 272.976 1008.46 273.172L1011.65 276.354ZM1011.5 225V276H1012.5V225H1011.5Z" fill="black"/>
</svg>
