<svg width="1377" height="505" viewBox="0 0 1377 505" fill="none" xmlns="http://www.w3.org/2000/svg">
<rect x="1114.5" y="7.5" width="262" height="431" fill="white" stroke="black"/>
<circle cx="60.5" cy="244.5" r="60.5" fill="#C4C4C4"/>
<path d="M30.3242 231.395C28.3945 230.84 26.9883 230.16 26.1055 229.355C25.2305 228.543 24.793 227.543 24.793 226.355C24.793 225.012 25.3281 223.902 26.3984 223.027C27.4766 222.145 28.875 221.703 30.5938 221.703C31.7656 221.703 32.8086 221.93 33.7227 222.383C34.6445 222.836 35.3555 223.461 35.8555 224.258C36.3633 225.055 36.6172 225.926 36.6172 226.871H34.3555C34.3555 225.84 34.0273 225.031 33.3711 224.445C32.7148 223.852 31.7891 223.555 30.5938 223.555C29.4844 223.555 28.6172 223.801 27.9922 224.293C27.375 224.777 27.0664 225.453 27.0664 226.32C27.0664 227.016 27.3594 227.605 27.9453 228.09C28.5391 228.566 29.543 229.004 30.957 229.402C32.3789 229.801 33.4883 230.242 34.2852 230.727C35.0898 231.203 35.6836 231.762 36.0664 232.402C36.457 233.043 36.6523 233.797 36.6523 234.664C36.6523 236.047 36.1133 237.156 35.0352 237.992C33.957 238.82 32.5156 239.234 30.7109 239.234C29.5391 239.234 28.4453 239.012 27.4297 238.566C26.4141 238.113 25.6289 237.496 25.0742 236.715C24.5273 235.934 24.2539 235.047 24.2539 234.055H26.5156C26.5156 235.086 26.8945 235.902 27.6523 236.504C28.418 237.098 29.4375 237.395 30.7109 237.395C31.8984 237.395 32.8086 237.152 33.4414 236.668C34.0742 236.184 34.3906 235.523 34.3906 234.688C34.3906 233.852 34.0977 233.207 33.5117 232.754C32.9258 232.293 31.8633 231.84 30.3242 231.395ZM38.6328 232.543C38.6328 231.301 38.875 230.184 39.3594 229.191C39.8516 228.199 40.5312 227.434 41.3984 226.895C42.2734 226.355 43.2695 226.086 44.3867 226.086C46.1133 226.086 47.5078 226.684 48.5703 227.879C49.6406 229.074 50.1758 230.664 50.1758 232.648V232.801C50.1758 234.035 49.9375 235.145 49.4609 236.129C48.9922 237.105 48.3164 237.867 47.4336 238.414C46.5586 238.961 45.5508 239.234 44.4102 239.234C42.6914 239.234 41.2969 238.637 40.2266 237.441C39.1641 236.246 38.6328 234.664 38.6328 232.695V232.543ZM40.8125 232.801C40.8125 234.207 41.1367 235.336 41.7852 236.188C42.4414 237.039 43.3164 237.465 44.4102 237.465C45.5117 237.465 46.3867 237.035 47.0352 236.176C47.6836 235.309 48.0078 234.098 48.0078 232.543C48.0078 231.152 47.6758 230.027 47.0117 229.168C46.3555 228.301 45.4805 227.867 44.3867 227.867C43.3164 227.867 42.4531 228.293 41.7969 229.145C41.1406 229.996 40.8125 231.215 40.8125 232.801ZM60.7227 237.746C59.8789 238.738 58.6406 239.234 57.0078 239.234C55.6562 239.234 54.625 238.844 53.9141 238.062C53.2109 237.273 52.8555 236.109 52.8477 234.57V226.32H55.0156V234.512C55.0156 236.434 55.7969 237.395 57.3594 237.395C59.0156 237.395 60.1172 236.777 60.6641 235.543V226.32H62.832V239H60.7695L60.7227 237.746ZM72.2656 228.266C71.9375 228.211 71.582 228.184 71.1992 228.184C69.7773 228.184 68.8125 228.789 68.3047 230V239H66.1367V226.32H68.2461L68.2812 227.785C68.9922 226.652 70 226.086 71.3047 226.086C71.7266 226.086 72.0469 226.141 72.2656 226.25V228.266ZM79.1211 237.465C79.8945 237.465 80.5703 237.23 81.1484 236.762C81.7266 236.293 82.0469 235.707 82.1094 235.004H84.1602C84.1211 235.73 83.8711 236.422 83.4102 237.078C82.9492 237.734 82.332 238.258 81.5586 238.648C80.793 239.039 79.9805 239.234 79.1211 239.234C77.3945 239.234 76.0195 238.66 74.9961 237.512C73.9805 236.355 73.4727 234.777 73.4727 232.777V232.414C73.4727 231.18 73.6992 230.082 74.1523 229.121C74.6055 228.16 75.2539 227.414 76.0977 226.883C76.9492 226.352 77.9531 226.086 79.1094 226.086C80.5312 226.086 81.7109 226.512 82.6484 227.363C83.5938 228.215 84.0977 229.32 84.1602 230.68H82.1094C82.0469 229.859 81.7344 229.188 81.1719 228.664C80.6172 228.133 79.9297 227.867 79.1094 227.867C78.0078 227.867 77.1523 228.266 76.543 229.062C75.9414 229.852 75.6406 230.996 75.6406 232.496V232.906C75.6406 234.367 75.9414 235.492 76.543 236.281C77.1445 237.07 78.0039 237.465 79.1211 237.465ZM91.8594 239.234C90.1406 239.234 88.7422 238.672 87.6641 237.547C86.5859 236.414 86.0469 234.902 86.0469 233.012V232.613C86.0469 231.355 86.2852 230.234 86.7617 229.25C87.2461 228.258 87.918 227.484 88.7773 226.93C89.6445 226.367 90.582 226.086 91.5898 226.086C93.2383 226.086 94.5195 226.629 95.4336 227.715C96.3477 228.801 96.8047 230.355 96.8047 232.379V233.281H88.2148C88.2461 234.531 88.6094 235.543 89.3047 236.316C90.0078 237.082 90.8984 237.465 91.9766 237.465C92.7422 237.465 93.3906 237.309 93.9219 236.996C94.4531 236.684 94.918 236.27 95.3164 235.754L96.6406 236.785C95.5781 238.418 93.9844 239.234 91.8594 239.234ZM91.5898 227.867C90.7148 227.867 89.9805 228.188 89.3867 228.828C88.793 229.461 88.4258 230.352 88.2852 231.5H94.6367V231.336C94.5742 230.234 94.2773 229.383 93.7461 228.781C93.2148 228.172 92.4961 227.867 91.5898 227.867ZM37.8594 260.555C37.8594 258.609 38.3203 257.047 39.2422 255.867C40.1641 254.68 41.3711 254.086 42.8633 254.086C44.3477 254.086 45.5234 254.594 46.3906 255.609V249H48.5586V267H46.5664L46.4609 265.641C45.5938 266.703 44.3867 267.234 42.8398 267.234C41.3711 267.234 40.1719 266.633 39.2422 265.43C38.3203 264.227 37.8594 262.656 37.8594 260.719V260.555ZM40.0273 260.801C40.0273 262.238 40.3242 263.363 40.918 264.176C41.5117 264.988 42.332 265.395 43.3789 265.395C44.7539 265.395 45.7578 264.777 46.3906 263.543V257.719C45.7422 256.523 44.7461 255.926 43.4023 255.926C42.3398 255.926 41.5117 256.336 40.918 257.156C40.3242 257.977 40.0273 259.191 40.0273 260.801ZM59.7617 267C59.6367 266.75 59.5352 266.305 59.457 265.664C58.4492 266.711 57.2461 267.234 55.8477 267.234C54.5977 267.234 53.5703 266.883 52.7656 266.18C51.9688 265.469 51.5703 264.57 51.5703 263.484C51.5703 262.164 52.0703 261.141 53.0703 260.414C54.0781 259.68 55.4922 259.312 57.3125 259.312H59.4219V258.316C59.4219 257.559 59.1953 256.957 58.7422 256.512C58.2891 256.059 57.6211 255.832 56.7383 255.832C55.9648 255.832 55.3164 256.027 54.793 256.418C54.2695 256.809 54.0078 257.281 54.0078 257.836H51.8281C51.8281 257.203 52.0508 256.594 52.4961 256.008C52.9492 255.414 53.5586 254.945 54.3242 254.602C55.0977 254.258 55.9453 254.086 56.8672 254.086C58.3281 254.086 59.4727 254.453 60.3008 255.188C61.1289 255.914 61.5586 256.918 61.5898 258.199V264.035C61.5898 265.199 61.7383 266.125 62.0352 266.812V267H59.7617ZM56.1641 265.348C56.8438 265.348 57.4883 265.172 58.0977 264.82C58.707 264.469 59.1484 264.012 59.4219 263.449V260.848H57.7227C55.0664 260.848 53.7383 261.625 53.7383 263.18C53.7383 263.859 53.9648 264.391 54.418 264.773C54.8711 265.156 55.4531 265.348 56.1641 265.348ZM67.9297 251.25V254.32H70.2969V255.996H67.9297V263.859C67.9297 264.367 68.0352 264.75 68.2461 265.008C68.457 265.258 68.8164 265.383 69.3242 265.383C69.5742 265.383 69.918 265.336 70.3555 265.242V267C69.7852 267.156 69.2305 267.234 68.6914 267.234C67.7227 267.234 66.9922 266.941 66.5 266.355C66.0078 265.77 65.7617 264.938 65.7617 263.859V255.996H63.4531V254.32H65.7617V251.25H67.9297ZM80.668 267C80.543 266.75 80.4414 266.305 80.3633 265.664C79.3555 266.711 78.1523 267.234 76.7539 267.234C75.5039 267.234 74.4766 266.883 73.6719 266.18C72.875 265.469 72.4766 264.57 72.4766 263.484C72.4766 262.164 72.9766 261.141 73.9766 260.414C74.9844 259.68 76.3984 259.312 78.2188 259.312H80.3281V258.316C80.3281 257.559 80.1016 256.957 79.6484 256.512C79.1953 256.059 78.5273 255.832 77.6445 255.832C76.8711 255.832 76.2227 256.027 75.6992 256.418C75.1758 256.809 74.9141 257.281 74.9141 257.836H72.7344C72.7344 257.203 72.957 256.594 73.4023 256.008C73.8555 255.414 74.4648 254.945 75.2305 254.602C76.0039 254.258 76.8516 254.086 77.7734 254.086C79.2344 254.086 80.3789 254.453 81.207 255.188C82.0352 255.914 82.4648 256.918 82.4961 258.199V264.035C82.4961 265.199 82.6445 266.125 82.9414 266.812V267H80.668ZM77.0703 265.348C77.75 265.348 78.3945 265.172 79.0039 264.82C79.6133 264.469 80.0547 264.012 80.3281 263.449V260.848H78.6289C75.9727 260.848 74.6445 261.625 74.6445 263.18C74.6445 263.859 74.8711 264.391 75.3242 264.773C75.7773 265.156 76.3594 265.348 77.0703 265.348Z" fill="black"/>
<circle cx="971.5" cy="240.5" r="60.5" fill="#C4C4C4"/>
<path d="M964.234 244.547H957.086L955.48 249H953.16L959.676 231.938H961.645L968.172 249H965.863L964.234 244.547ZM957.766 242.695H963.566L960.66 234.715L957.766 242.695ZM972.719 242.32V249H970.469V231.938H976.762C978.629 231.938 980.09 232.414 981.145 233.367C982.207 234.32 982.738 235.582 982.738 237.152C982.738 238.809 982.219 240.086 981.18 240.984C980.148 241.875 978.668 242.32 976.738 242.32H972.719ZM972.719 240.48H976.762C977.965 240.48 978.887 240.199 979.527 239.637C980.168 239.066 980.488 238.246 980.488 237.176C980.488 236.16 980.168 235.348 979.527 234.738C978.887 234.129 978.008 233.812 976.891 233.789H972.719V240.48ZM988.023 249H985.773V231.938H988.023V249Z" fill="black"/>
<circle cx="508.5" cy="241.5" r="60.5" fill="#C4C4C4"/>
<path d="M501.234 245.547H494.086L492.48 250H490.16L496.676 232.938H498.645L505.172 250H502.863L501.234 245.547ZM494.766 243.695H500.566L497.66 235.715L494.766 243.695ZM509.719 243.32V250H507.469V232.938H513.762C515.629 232.938 517.09 233.414 518.145 234.367C519.207 235.32 519.738 236.582 519.738 238.152C519.738 239.809 519.219 241.086 518.18 241.984C517.148 242.875 515.668 243.32 513.738 243.32H509.719ZM509.719 241.48H513.762C514.965 241.48 515.887 241.199 516.527 240.637C517.168 240.066 517.488 239.246 517.488 238.176C517.488 237.16 517.168 236.348 516.527 235.738C515.887 235.129 515.008 234.812 513.891 234.789H509.719V241.48ZM525.023 250H522.773V232.938H525.023V250Z" fill="black"/>
<circle cx="745.5" cy="444.5" r="60.5" fill="#C4C4C4"/>
<path d="M722.625 439V421.938H727.441C728.926 421.938 730.238 422.266 731.379 422.922C732.52 423.578 733.398 424.512 734.016 425.723C734.641 426.934 734.957 428.324 734.965 429.895V430.984C734.965 432.594 734.652 434.004 734.027 435.215C733.41 436.426 732.523 437.355 731.367 438.004C730.219 438.652 728.879 438.984 727.348 439H722.625ZM724.875 423.789V437.16H727.242C728.977 437.16 730.324 436.621 731.285 435.543C732.254 434.465 732.738 432.93 732.738 430.938V429.941C732.738 428.004 732.281 426.5 731.367 425.43C730.461 424.352 729.172 423.805 727.5 423.789H724.875ZM745.863 439C745.738 438.75 745.637 438.305 745.559 437.664C744.551 438.711 743.348 439.234 741.949 439.234C740.699 439.234 739.672 438.883 738.867 438.18C738.07 437.469 737.672 436.57 737.672 435.484C737.672 434.164 738.172 433.141 739.172 432.414C740.18 431.68 741.594 431.312 743.414 431.312H745.523V430.316C745.523 429.559 745.297 428.957 744.844 428.512C744.391 428.059 743.723 427.832 742.84 427.832C742.066 427.832 741.418 428.027 740.895 428.418C740.371 428.809 740.109 429.281 740.109 429.836H737.93C737.93 429.203 738.152 428.594 738.598 428.008C739.051 427.414 739.66 426.945 740.426 426.602C741.199 426.258 742.047 426.086 742.969 426.086C744.43 426.086 745.574 426.453 746.402 427.188C747.23 427.914 747.66 428.918 747.691 430.199V436.035C747.691 437.199 747.84 438.125 748.137 438.812V439H745.863ZM742.266 437.348C742.945 437.348 743.59 437.172 744.199 436.82C744.809 436.469 745.25 436.012 745.523 435.449V432.848H743.824C741.168 432.848 739.84 433.625 739.84 435.18C739.84 435.859 740.066 436.391 740.52 436.773C740.973 437.156 741.555 437.348 742.266 437.348ZM754.031 423.25V426.32H756.398V427.996H754.031V435.859C754.031 436.367 754.137 436.75 754.348 437.008C754.559 437.258 754.918 437.383 755.426 437.383C755.676 437.383 756.02 437.336 756.457 437.242V439C755.887 439.156 755.332 439.234 754.793 439.234C753.824 439.234 753.094 438.941 752.602 438.355C752.109 437.77 751.863 436.938 751.863 435.859V427.996H749.555V426.32H751.863V423.25H754.031ZM766.77 439C766.645 438.75 766.543 438.305 766.465 437.664C765.457 438.711 764.254 439.234 762.855 439.234C761.605 439.234 760.578 438.883 759.773 438.18C758.977 437.469 758.578 436.57 758.578 435.484C758.578 434.164 759.078 433.141 760.078 432.414C761.086 431.68 762.5 431.312 764.32 431.312H766.43V430.316C766.43 429.559 766.203 428.957 765.75 428.512C765.297 428.059 764.629 427.832 763.746 427.832C762.973 427.832 762.324 428.027 761.801 428.418C761.277 428.809 761.016 429.281 761.016 429.836H758.836C758.836 429.203 759.059 428.594 759.504 428.008C759.957 427.414 760.566 426.945 761.332 426.602C762.105 426.258 762.953 426.086 763.875 426.086C765.336 426.086 766.48 426.453 767.309 427.188C768.137 427.914 768.566 428.918 768.598 430.199V436.035C768.598 437.199 768.746 438.125 769.043 438.812V439H766.77ZM763.172 437.348C763.852 437.348 764.496 437.172 765.105 436.82C765.715 436.469 766.156 436.012 766.43 435.449V432.848H764.73C762.074 432.848 760.746 433.625 760.746 435.18C760.746 435.859 760.973 436.391 761.426 436.773C761.879 437.156 762.461 437.348 763.172 437.348ZM716.719 460.801C716.719 462.73 716.277 464.285 715.395 465.465C714.512 466.645 713.316 467.234 711.809 467.234C710.27 467.234 709.059 466.746 708.176 465.77V471.875H706.008V454.32H707.988L708.094 455.727C708.977 454.633 710.203 454.086 711.773 454.086C713.297 454.086 714.5 454.66 715.383 455.809C716.273 456.957 716.719 458.555 716.719 460.602V460.801ZM714.551 460.555C714.551 459.125 714.246 457.996 713.637 457.168C713.027 456.34 712.191 455.926 711.129 455.926C709.816 455.926 708.832 456.508 708.176 457.672V463.73C708.824 464.887 709.816 465.465 711.152 465.465C712.191 465.465 713.016 465.055 713.625 464.234C714.242 463.406 714.551 462.18 714.551 460.555ZM725.613 456.266C725.285 456.211 724.93 456.184 724.547 456.184C723.125 456.184 722.16 456.789 721.652 458V467H719.484V454.32H721.594L721.629 455.785C722.34 454.652 723.348 454.086 724.652 454.086C725.074 454.086 725.395 454.141 725.613 454.25V456.266ZM726.809 460.543C726.809 459.301 727.051 458.184 727.535 457.191C728.027 456.199 728.707 455.434 729.574 454.895C730.449 454.355 731.445 454.086 732.562 454.086C734.289 454.086 735.684 454.684 736.746 455.879C737.816 457.074 738.352 458.664 738.352 460.648V460.801C738.352 462.035 738.113 463.145 737.637 464.129C737.168 465.105 736.492 465.867 735.609 466.414C734.734 466.961 733.727 467.234 732.586 467.234C730.867 467.234 729.473 466.637 728.402 465.441C727.34 464.246 726.809 462.664 726.809 460.695V460.543ZM728.988 460.801C728.988 462.207 729.312 463.336 729.961 464.188C730.617 465.039 731.492 465.465 732.586 465.465C733.688 465.465 734.562 465.035 735.211 464.176C735.859 463.309 736.184 462.098 736.184 460.543C736.184 459.152 735.852 458.027 735.188 457.168C734.531 456.301 733.656 455.867 732.562 455.867C731.492 455.867 730.629 456.293 729.973 457.145C729.316 457.996 728.988 459.215 728.988 460.801ZM740.543 460.555C740.543 458.609 741.004 457.047 741.926 455.867C742.848 454.68 744.055 454.086 745.547 454.086C747.031 454.086 748.207 454.594 749.074 455.609V449H751.242V467H749.25L749.145 465.641C748.277 466.703 747.07 467.234 745.523 467.234C744.055 467.234 742.855 466.633 741.926 465.43C741.004 464.227 740.543 462.656 740.543 460.719V460.555ZM742.711 460.801C742.711 462.238 743.008 463.363 743.602 464.176C744.195 464.988 745.016 465.395 746.062 465.395C747.438 465.395 748.441 464.777 749.074 463.543V457.719C748.426 456.523 747.43 455.926 746.086 455.926C745.023 455.926 744.195 456.336 743.602 457.156C743.008 457.977 742.711 459.191 742.711 460.801ZM762.445 465.746C761.602 466.738 760.363 467.234 758.73 467.234C757.379 467.234 756.348 466.844 755.637 466.062C754.934 465.273 754.578 464.109 754.57 462.57V454.32H756.738V462.512C756.738 464.434 757.52 465.395 759.082 465.395C760.738 465.395 761.84 464.777 762.387 463.543V454.32H764.555V467H762.492L762.445 465.746ZM772.945 465.465C773.719 465.465 774.395 465.23 774.973 464.762C775.551 464.293 775.871 463.707 775.934 463.004H777.984C777.945 463.73 777.695 464.422 777.234 465.078C776.773 465.734 776.156 466.258 775.383 466.648C774.617 467.039 773.805 467.234 772.945 467.234C771.219 467.234 769.844 466.66 768.82 465.512C767.805 464.355 767.297 462.777 767.297 460.777V460.414C767.297 459.18 767.523 458.082 767.977 457.121C768.43 456.16 769.078 455.414 769.922 454.883C770.773 454.352 771.777 454.086 772.934 454.086C774.355 454.086 775.535 454.512 776.473 455.363C777.418 456.215 777.922 457.32 777.984 458.68H775.934C775.871 457.859 775.559 457.188 774.996 456.664C774.441 456.133 773.754 455.867 772.934 455.867C771.832 455.867 770.977 456.266 770.367 457.062C769.766 457.852 769.465 458.996 769.465 460.496V460.906C769.465 462.367 769.766 463.492 770.367 464.281C770.969 465.07 771.828 465.465 772.945 465.465ZM783.363 451.25V454.32H785.73V455.996H783.363V463.859C783.363 464.367 783.469 464.75 783.68 465.008C783.891 465.258 784.25 465.383 784.758 465.383C785.008 465.383 785.352 465.336 785.789 465.242V467C785.219 467.156 784.664 467.234 784.125 467.234C783.156 467.234 782.426 466.941 781.934 466.355C781.441 465.77 781.195 464.938 781.195 463.859V455.996H778.887V454.32H781.195V451.25H783.363Z" fill="black"/>
<circle cx="745.5" cy="60.5" r="60.5" fill="#C4C4C4"/>
<path d="M715.652 47.3945C713.723 46.8398 712.316 46.1602 711.434 45.3555C710.559 44.543 710.121 43.543 710.121 42.3555C710.121 41.0117 710.656 39.9023 711.727 39.0273C712.805 38.1445 714.203 37.7031 715.922 37.7031C717.094 37.7031 718.137 37.9297 719.051 38.3828C719.973 38.8359 720.684 39.4609 721.184 40.2578C721.691 41.0547 721.945 41.9258 721.945 42.8711H719.684C719.684 41.8398 719.355 41.0312 718.699 40.4453C718.043 39.8516 717.117 39.5547 715.922 39.5547C714.812 39.5547 713.945 39.8008 713.32 40.293C712.703 40.7773 712.395 41.4531 712.395 42.3203C712.395 43.0156 712.688 43.6055 713.273 44.0898C713.867 44.5664 714.871 45.0039 716.285 45.4023C717.707 45.8008 718.816 46.2422 719.613 46.7266C720.418 47.2031 721.012 47.7617 721.395 48.4023C721.785 49.043 721.98 49.7969 721.98 50.6641C721.98 52.0469 721.441 53.1562 720.363 53.9922C719.285 54.8203 717.844 55.2344 716.039 55.2344C714.867 55.2344 713.773 55.0117 712.758 54.5664C711.742 54.1133 710.957 53.4961 710.402 52.7148C709.855 51.9336 709.582 51.0469 709.582 50.0547H711.844C711.844 51.0859 712.223 51.9023 712.98 52.5039C713.746 53.0977 714.766 53.3945 716.039 53.3945C717.227 53.3945 718.137 53.1523 718.77 52.668C719.402 52.1836 719.719 51.5234 719.719 50.6875C719.719 49.8516 719.426 49.207 718.84 48.7539C718.254 48.293 717.191 47.8398 715.652 47.3945ZM729.797 55.2344C728.078 55.2344 726.68 54.6719 725.602 53.5469C724.523 52.4141 723.984 50.9023 723.984 49.0117V48.6133C723.984 47.3555 724.223 46.2344 724.699 45.25C725.184 44.2578 725.855 43.4844 726.715 42.9297C727.582 42.3672 728.52 42.0859 729.527 42.0859C731.176 42.0859 732.457 42.6289 733.371 43.7148C734.285 44.8008 734.742 46.3555 734.742 48.3789V49.2812H726.152C726.184 50.5312 726.547 51.543 727.242 52.3164C727.945 53.082 728.836 53.4648 729.914 53.4648C730.68 53.4648 731.328 53.3086 731.859 52.9961C732.391 52.6836 732.855 52.2695 733.254 51.7539L734.578 52.7852C733.516 54.418 731.922 55.2344 729.797 55.2344ZM729.527 43.8672C728.652 43.8672 727.918 44.1875 727.324 44.8281C726.73 45.4609 726.363 46.3516 726.223 47.5H732.574V47.3359C732.512 46.2344 732.215 45.3828 731.684 44.7812C731.152 44.1719 730.434 43.8672 729.527 43.8672ZM745.09 55C744.965 54.75 744.863 54.3047 744.785 53.6641C743.777 54.7109 742.574 55.2344 741.176 55.2344C739.926 55.2344 738.898 54.8828 738.094 54.1797C737.297 53.4688 736.898 52.5703 736.898 51.4844C736.898 50.1641 737.398 49.1406 738.398 48.4141C739.406 47.6797 740.82 47.3125 742.641 47.3125H744.75V46.3164C744.75 45.5586 744.523 44.957 744.07 44.5117C743.617 44.0586 742.949 43.832 742.066 43.832C741.293 43.832 740.645 44.0273 740.121 44.418C739.598 44.8086 739.336 45.2812 739.336 45.8359H737.156C737.156 45.2031 737.379 44.5938 737.824 44.0078C738.277 43.4141 738.887 42.9453 739.652 42.6016C740.426 42.2578 741.273 42.0859 742.195 42.0859C743.656 42.0859 744.801 42.4531 745.629 43.1875C746.457 43.9141 746.887 44.918 746.918 46.1992V52.0352C746.918 53.1992 747.066 54.125 747.363 54.8125V55H745.09ZM741.492 53.3477C742.172 53.3477 742.816 53.1719 743.426 52.8203C744.035 52.4688 744.477 52.0117 744.75 51.4492V48.8477H743.051C740.395 48.8477 739.066 49.625 739.066 51.1797C739.066 51.8594 739.293 52.3906 739.746 52.7734C740.199 53.1562 740.781 53.3477 741.492 53.3477ZM756.445 44.2656C756.117 44.2109 755.762 44.1836 755.379 44.1836C753.957 44.1836 752.992 44.7891 752.484 46V55H750.316V42.3203H752.426L752.461 43.7852C753.172 42.6523 754.18 42.0859 755.484 42.0859C755.906 42.0859 756.227 42.1406 756.445 42.25V44.2656ZM763.301 53.4648C764.074 53.4648 764.75 53.2305 765.328 52.7617C765.906 52.293 766.227 51.707 766.289 51.0039H768.34C768.301 51.7305 768.051 52.4219 767.59 53.0781C767.129 53.7344 766.512 54.2578 765.738 54.6484C764.973 55.0391 764.16 55.2344 763.301 55.2344C761.574 55.2344 760.199 54.6602 759.176 53.5117C758.16 52.3555 757.652 50.7773 757.652 48.7773V48.4141C757.652 47.1797 757.879 46.082 758.332 45.1211C758.785 44.1602 759.434 43.4141 760.277 42.8828C761.129 42.3516 762.133 42.0859 763.289 42.0859C764.711 42.0859 765.891 42.5117 766.828 43.3633C767.773 44.2148 768.277 45.3203 768.34 46.6797H766.289C766.227 45.8594 765.914 45.1875 765.352 44.6641C764.797 44.1328 764.109 43.8672 763.289 43.8672C762.188 43.8672 761.332 44.2656 760.723 45.0625C760.121 45.8516 759.82 46.9961 759.82 48.4961V48.9062C759.82 50.3672 760.121 51.4922 760.723 52.2812C761.324 53.0703 762.184 53.4648 763.301 53.4648ZM772.945 43.8555C773.906 42.6758 775.156 42.0859 776.695 42.0859C779.375 42.0859 780.727 43.5977 780.75 46.6211V55H778.582V46.6094C778.574 45.6953 778.363 45.0195 777.949 44.582C777.543 44.1445 776.906 43.9258 776.039 43.9258C775.336 43.9258 774.719 44.1133 774.188 44.4883C773.656 44.8633 773.242 45.3555 772.945 45.9648V55H770.777V37H772.945V43.8555ZM720.867 83H718.699V70.3203H720.867V83ZM718.523 66.957C718.523 66.6055 718.629 66.3086 718.84 66.0664C719.059 65.8242 719.379 65.7031 719.801 65.7031C720.223 65.7031 720.543 65.8242 720.762 66.0664C720.98 66.3086 721.09 66.6055 721.09 66.957C721.09 67.3086 720.98 67.6016 720.762 67.8359C720.543 68.0703 720.223 68.1875 719.801 68.1875C719.379 68.1875 719.059 68.0703 718.84 67.8359C718.629 67.6016 718.523 67.3086 718.523 66.957ZM726.398 70.3203L726.469 71.9141C727.438 70.6953 728.703 70.0859 730.266 70.0859C732.945 70.0859 734.297 71.5977 734.32 74.6211V83H732.152V74.6094C732.145 73.6953 731.934 73.0195 731.52 72.582C731.113 72.1445 730.477 71.9258 729.609 71.9258C728.906 71.9258 728.289 72.1133 727.758 72.4883C727.227 72.8633 726.812 73.3555 726.516 73.9648V83H724.348V70.3203H726.398ZM737.062 76.5547C737.062 74.6094 737.523 73.0469 738.445 71.8672C739.367 70.6797 740.574 70.0859 742.066 70.0859C743.551 70.0859 744.727 70.5938 745.594 71.6094V65H747.762V83H745.77L745.664 81.6406C744.797 82.7031 743.59 83.2344 742.043 83.2344C740.574 83.2344 739.375 82.6328 738.445 81.4297C737.523 80.2266 737.062 78.6562 737.062 76.7188V76.5547ZM739.23 76.8008C739.23 78.2383 739.527 79.3633 740.121 80.1758C740.715 80.9883 741.535 81.3945 742.582 81.3945C743.957 81.3945 744.961 80.7773 745.594 79.543V73.7188C744.945 72.5234 743.949 71.9258 742.605 71.9258C741.543 71.9258 740.715 72.3359 740.121 73.1562C739.527 73.9766 739.23 75.1914 739.23 76.8008ZM756.398 83.2344C754.68 83.2344 753.281 82.6719 752.203 81.5469C751.125 80.4141 750.586 78.9023 750.586 77.0117V76.6133C750.586 75.3555 750.824 74.2344 751.301 73.25C751.785 72.2578 752.457 71.4844 753.316 70.9297C754.184 70.3672 755.121 70.0859 756.129 70.0859C757.777 70.0859 759.059 70.6289 759.973 71.7148C760.887 72.8008 761.344 74.3555 761.344 76.3789V77.2812H752.754C752.785 78.5312 753.148 79.543 753.844 80.3164C754.547 81.082 755.438 81.4648 756.516 81.4648C757.281 81.4648 757.93 81.3086 758.461 80.9961C758.992 80.6836 759.457 80.2695 759.855 79.7539L761.18 80.7852C760.117 82.418 758.523 83.2344 756.398 83.2344ZM756.129 71.8672C755.254 71.8672 754.52 72.1875 753.926 72.8281C753.332 73.4609 752.965 74.3516 752.824 75.5H759.176V75.3359C759.113 74.2344 758.816 73.3828 758.285 72.7812C757.754 72.1719 757.035 71.8672 756.129 71.8672ZM768.117 74.9492L770.93 70.3203H773.461L769.312 76.5898L773.59 83H771.082L768.152 78.2539L765.223 83H762.703L766.98 76.5898L762.832 70.3203H765.34L768.117 74.9492Z" fill="black"/>
<path d="M728.191 255.762C727.613 256.59 726.805 257.211 725.766 257.625C724.734 258.031 723.531 258.234 722.156 258.234C720.766 258.234 719.531 257.91 718.453 257.262C717.375 256.605 716.539 255.676 715.945 254.473C715.359 253.27 715.059 251.875 715.043 250.289V248.801C715.043 246.23 715.641 244.238 716.836 242.824C718.039 241.41 719.727 240.703 721.898 240.703C723.68 240.703 725.113 241.16 726.199 242.074C727.285 242.98 727.949 244.27 728.191 245.941H725.941C725.52 243.684 724.176 242.555 721.91 242.555C720.402 242.555 719.258 243.086 718.477 244.148C717.703 245.203 717.312 246.734 717.305 248.742V250.137C717.305 252.051 717.742 253.574 718.617 254.707C719.492 255.832 720.676 256.395 722.168 256.395C723.012 256.395 723.75 256.301 724.383 256.113C725.016 255.926 725.539 255.609 725.953 255.164V251.332H722.004V249.504H728.191V255.762ZM737.742 247.266C737.414 247.211 737.059 247.184 736.676 247.184C735.254 247.184 734.289 247.789 733.781 249V258H731.613V245.32H733.723L733.758 246.785C734.469 245.652 735.477 245.086 736.781 245.086C737.203 245.086 737.523 245.141 737.742 245.25V247.266ZM747.105 258C746.98 257.75 746.879 257.305 746.801 256.664C745.793 257.711 744.59 258.234 743.191 258.234C741.941 258.234 740.914 257.883 740.109 257.18C739.312 256.469 738.914 255.57 738.914 254.484C738.914 253.164 739.414 252.141 740.414 251.414C741.422 250.68 742.836 250.312 744.656 250.312H746.766V249.316C746.766 248.559 746.539 247.957 746.086 247.512C745.633 247.059 744.965 246.832 744.082 246.832C743.309 246.832 742.66 247.027 742.137 247.418C741.613 247.809 741.352 248.281 741.352 248.836H739.172C739.172 248.203 739.395 247.594 739.84 247.008C740.293 246.414 740.902 245.945 741.668 245.602C742.441 245.258 743.289 245.086 744.211 245.086C745.672 245.086 746.816 245.453 747.645 246.188C748.473 246.914 748.902 247.918 748.934 249.199V255.035C748.934 256.199 749.082 257.125 749.379 257.812V258H747.105ZM743.508 256.348C744.188 256.348 744.832 256.172 745.441 255.82C746.051 255.469 746.492 255.012 746.766 254.449V251.848H745.066C742.41 251.848 741.082 252.625 741.082 254.18C741.082 254.859 741.309 255.391 741.762 255.773C742.215 256.156 742.797 256.348 743.508 256.348ZM763.043 251.801C763.043 253.73 762.602 255.285 761.719 256.465C760.836 257.645 759.641 258.234 758.133 258.234C756.594 258.234 755.383 257.746 754.5 256.77V262.875H752.332V245.32H754.312L754.418 246.727C755.301 245.633 756.527 245.086 758.098 245.086C759.621 245.086 760.824 245.66 761.707 246.809C762.598 247.957 763.043 249.555 763.043 251.602V251.801ZM760.875 251.555C760.875 250.125 760.57 248.996 759.961 248.168C759.352 247.34 758.516 246.926 757.453 246.926C756.141 246.926 755.156 247.508 754.5 248.672V254.73C755.148 255.887 756.141 256.465 757.477 256.465C758.516 256.465 759.34 256.055 759.949 255.234C760.566 254.406 760.875 253.18 760.875 251.555ZM767.977 246.855C768.938 245.676 770.188 245.086 771.727 245.086C774.406 245.086 775.758 246.598 775.781 249.621V258H773.613V249.609C773.605 248.695 773.395 248.02 772.98 247.582C772.574 247.145 771.938 246.926 771.07 246.926C770.367 246.926 769.75 247.113 769.219 247.488C768.688 247.863 768.273 248.355 767.977 248.965V258H765.809V240H767.977V246.855Z" fill="black"/>
<circle cx="279.5" cy="244.5" r="60.5" fill="#C4C4C4"/>
<path d="M268.426 235.938H270.688V248.02C270.688 249.652 270.195 250.93 269.211 251.852C268.234 252.773 266.93 253.234 265.297 253.234C263.602 253.234 262.281 252.801 261.336 251.934C260.391 251.066 259.918 249.852 259.918 248.289H262.168C262.168 249.266 262.434 250.027 262.965 250.574C263.504 251.121 264.281 251.395 265.297 251.395C266.227 251.395 266.977 251.102 267.547 250.516C268.125 249.93 268.418 249.109 268.426 248.055V235.938ZM273.605 246.543C273.605 245.301 273.848 244.184 274.332 243.191C274.824 242.199 275.504 241.434 276.371 240.895C277.246 240.355 278.242 240.086 279.359 240.086C281.086 240.086 282.48 240.684 283.543 241.879C284.613 243.074 285.148 244.664 285.148 246.648V246.801C285.148 248.035 284.91 249.145 284.434 250.129C283.965 251.105 283.289 251.867 282.406 252.414C281.531 252.961 280.523 253.234 279.383 253.234C277.664 253.234 276.27 252.637 275.199 251.441C274.137 250.246 273.605 248.664 273.605 246.695V246.543ZM275.785 246.801C275.785 248.207 276.109 249.336 276.758 250.188C277.414 251.039 278.289 251.465 279.383 251.465C280.484 251.465 281.359 251.035 282.008 250.176C282.656 249.309 282.98 248.098 282.98 246.543C282.98 245.152 282.648 244.027 281.984 243.168C281.328 242.301 280.453 241.867 279.359 241.867C278.289 241.867 277.426 242.293 276.77 243.145C276.113 243.996 275.785 245.215 275.785 246.801ZM298.602 246.801C298.602 248.738 298.156 250.297 297.266 251.477C296.375 252.648 295.18 253.234 293.68 253.234C292.078 253.234 290.84 252.668 289.965 251.535L289.859 253H287.867V235H290.035V241.715C290.91 240.629 292.117 240.086 293.656 240.086C295.195 240.086 296.402 240.668 297.277 241.832C298.16 242.996 298.602 244.59 298.602 246.613V246.801ZM296.434 246.555C296.434 245.078 296.148 243.938 295.578 243.133C295.008 242.328 294.188 241.926 293.117 241.926C291.688 241.926 290.66 242.59 290.035 243.918V249.402C290.699 250.73 291.734 251.395 293.141 251.395C294.18 251.395 294.988 250.992 295.566 250.188C296.145 249.383 296.434 248.172 296.434 246.555Z" fill="black"/>
<path d="M685.498 93.0477C685.524 92.7728 685.323 92.5286 685.048 92.5023L680.568 92.0727C680.293 92.0464 680.049 92.2479 680.023 92.5227C679.996 92.7976 680.198 93.0418 680.473 93.0682L684.455 93.45L684.073 97.4317C684.046 97.7066 684.248 97.9508 684.523 97.9772C684.798 98.0035 685.042 97.8021 685.068 97.5272L685.498 93.0477ZM565.318 192.386L685.318 93.3857L684.682 92.6143L564.682 191.614L565.318 192.386Z" fill="black"/>
<path d="M676.354 242.354C676.549 242.158 676.549 241.842 676.354 241.646L673.172 238.464C672.976 238.269 672.66 238.269 672.464 238.464C672.269 238.66 672.269 238.976 672.464 239.172L675.293 242L672.464 244.828C672.269 245.024 672.269 245.34 672.464 245.536C672.66 245.731 672.976 245.731 673.172 245.536L676.354 242.354ZM586 242.5H676V241.5H586V242.5Z" fill="black"/>
<path d="M695.037 393.499C695.312 393.478 695.519 393.238 695.499 392.963L695.165 388.475C695.144 388.2 694.905 387.993 694.629 388.014C694.354 388.034 694.147 388.274 694.168 388.549L694.464 392.538L690.475 392.835C690.2 392.856 689.993 393.095 690.014 393.371C690.034 393.646 690.274 393.853 690.549 393.832L695.037 393.499ZM564.674 281.379L694.674 393.379L695.326 392.621L565.326 280.621L564.674 281.379Z" fill="black"/>
<circle cx="746.5" cy="241.5" r="60.5" fill="#C4C4C4"/>
<path d="M698.84 217.938L704.418 231.859L709.996 217.938H712.914V235H710.664V228.355L710.875 221.184L705.273 235H703.551L697.961 221.219L698.184 228.355V235H695.934V217.938H698.84ZM721.809 235.234C720.09 235.234 718.691 234.672 717.613 233.547C716.535 232.414 715.996 230.902 715.996 229.012V228.613C715.996 227.355 716.234 226.234 716.711 225.25C717.195 224.258 717.867 223.484 718.727 222.93C719.594 222.367 720.531 222.086 721.539 222.086C723.188 222.086 724.469 222.629 725.383 223.715C726.297 224.801 726.754 226.355 726.754 228.379V229.281H718.164C718.195 230.531 718.559 231.543 719.254 232.316C719.957 233.082 720.848 233.465 721.926 233.465C722.691 233.465 723.34 233.309 723.871 232.996C724.402 232.684 724.867 232.27 725.266 231.754L726.59 232.785C725.527 234.418 723.934 235.234 721.809 235.234ZM721.539 223.867C720.664 223.867 719.93 224.188 719.336 224.828C718.742 225.461 718.375 226.352 718.234 227.5H724.586V227.336C724.523 226.234 724.227 225.383 723.695 224.781C723.164 224.172 722.445 223.867 721.539 223.867ZM732.215 219.25V222.32H734.582V223.996H732.215V231.859C732.215 232.367 732.32 232.75 732.531 233.008C732.742 233.258 733.102 233.383 733.609 233.383C733.859 233.383 734.203 233.336 734.641 233.242V235C734.07 235.156 733.516 235.234 732.977 235.234C732.008 235.234 731.277 234.941 730.785 234.355C730.293 233.77 730.047 232.938 730.047 231.859V223.996H727.738V222.32H730.047V219.25H732.215ZM744.953 235C744.828 234.75 744.727 234.305 744.648 233.664C743.641 234.711 742.438 235.234 741.039 235.234C739.789 235.234 738.762 234.883 737.957 234.18C737.16 233.469 736.762 232.57 736.762 231.484C736.762 230.164 737.262 229.141 738.262 228.414C739.27 227.68 740.684 227.312 742.504 227.312H744.613V226.316C744.613 225.559 744.387 224.957 743.934 224.512C743.48 224.059 742.812 223.832 741.93 223.832C741.156 223.832 740.508 224.027 739.984 224.418C739.461 224.809 739.199 225.281 739.199 225.836H737.02C737.02 225.203 737.242 224.594 737.688 224.008C738.141 223.414 738.75 222.945 739.516 222.602C740.289 222.258 741.137 222.086 742.059 222.086C743.52 222.086 744.664 222.453 745.492 223.188C746.32 223.914 746.75 224.918 746.781 226.199V232.035C746.781 233.199 746.93 234.125 747.227 234.812V235H744.953ZM741.355 233.348C742.035 233.348 742.68 233.172 743.289 232.82C743.898 232.469 744.34 232.012 744.613 231.449V228.848H742.914C740.258 228.848 738.93 229.625 738.93 231.18C738.93 231.859 739.156 232.391 739.609 232.773C740.062 233.156 740.645 233.348 741.355 233.348ZM749.652 228.555C749.652 226.609 750.113 225.047 751.035 223.867C751.957 222.68 753.164 222.086 754.656 222.086C756.141 222.086 757.316 222.594 758.184 223.609V217H760.352V235H758.359L758.254 233.641C757.387 234.703 756.18 235.234 754.633 235.234C753.164 235.234 751.965 234.633 751.035 233.43C750.113 232.227 749.652 230.656 749.652 228.719V228.555ZM751.82 228.801C751.82 230.238 752.117 231.363 752.711 232.176C753.305 232.988 754.125 233.395 755.172 233.395C756.547 233.395 757.551 232.777 758.184 231.543V225.719C757.535 224.523 756.539 223.926 755.195 223.926C754.133 223.926 753.305 224.336 752.711 225.156C752.117 225.977 751.82 227.191 751.82 228.801ZM771.555 235C771.43 234.75 771.328 234.305 771.25 233.664C770.242 234.711 769.039 235.234 767.641 235.234C766.391 235.234 765.363 234.883 764.559 234.18C763.762 233.469 763.363 232.57 763.363 231.484C763.363 230.164 763.863 229.141 764.863 228.414C765.871 227.68 767.285 227.312 769.105 227.312H771.215V226.316C771.215 225.559 770.988 224.957 770.535 224.512C770.082 224.059 769.414 223.832 768.531 223.832C767.758 223.832 767.109 224.027 766.586 224.418C766.062 224.809 765.801 225.281 765.801 225.836H763.621C763.621 225.203 763.844 224.594 764.289 224.008C764.742 223.414 765.352 222.945 766.117 222.602C766.891 222.258 767.738 222.086 768.66 222.086C770.121 222.086 771.266 222.453 772.094 223.188C772.922 223.914 773.352 224.918 773.383 226.199V232.035C773.383 233.199 773.531 234.125 773.828 234.812V235H771.555ZM767.957 233.348C768.637 233.348 769.281 233.172 769.891 232.82C770.5 232.469 770.941 232.012 771.215 231.449V228.848H769.516C766.859 228.848 765.531 229.625 765.531 231.18C765.531 231.859 765.758 232.391 766.211 232.773C766.664 233.156 767.246 233.348 767.957 233.348ZM779.723 219.25V222.32H782.09V223.996H779.723V231.859C779.723 232.367 779.828 232.75 780.039 233.008C780.25 233.258 780.609 233.383 781.117 233.383C781.367 233.383 781.711 233.336 782.148 233.242V235C781.578 235.156 781.023 235.234 780.484 235.234C779.516 235.234 778.785 234.941 778.293 234.355C777.801 233.77 777.555 232.938 777.555 231.859V223.996H775.246V222.32H777.555V219.25H779.723ZM792.461 235C792.336 234.75 792.234 234.305 792.156 233.664C791.148 234.711 789.945 235.234 788.547 235.234C787.297 235.234 786.27 234.883 785.465 234.18C784.668 233.469 784.27 232.57 784.27 231.484C784.27 230.164 784.77 229.141 785.77 228.414C786.777 227.68 788.191 227.312 790.012 227.312H792.121V226.316C792.121 225.559 791.895 224.957 791.441 224.512C790.988 224.059 790.32 223.832 789.438 223.832C788.664 223.832 788.016 224.027 787.492 224.418C786.969 224.809 786.707 225.281 786.707 225.836H784.527C784.527 225.203 784.75 224.594 785.195 224.008C785.648 223.414 786.258 222.945 787.023 222.602C787.797 222.258 788.645 222.086 789.566 222.086C791.027 222.086 792.172 222.453 793 223.188C793.828 223.914 794.258 224.918 794.289 226.199V232.035C794.289 233.199 794.438 234.125 794.734 234.812V235H792.461ZM788.863 233.348C789.543 233.348 790.188 233.172 790.797 232.82C791.406 232.469 791.848 232.012 792.121 231.449V228.848H790.422C787.766 228.848 786.438 229.625 786.438 231.18C786.438 231.859 786.664 232.391 787.117 232.773C787.57 233.156 788.152 233.348 788.863 233.348ZM707.84 256.074C707.84 254.309 708.074 252.613 708.543 250.988C709.02 249.363 709.727 247.887 710.664 246.559C711.602 245.23 712.574 244.293 713.582 243.746L714.027 245.176C712.887 246.051 711.949 247.387 711.215 249.184C710.488 250.98 710.09 252.992 710.02 255.219L710.008 256.215C710.008 259.23 710.559 261.848 711.66 264.066C712.324 265.395 713.113 266.434 714.027 267.184L713.582 268.508C712.543 267.93 711.551 266.961 710.605 265.602C708.762 262.945 707.84 259.77 707.84 256.074ZM715.609 256.555C715.609 254.578 716.066 253.008 716.98 251.844C717.895 250.672 719.105 250.086 720.613 250.086C722.16 250.086 723.367 250.633 724.234 251.727L724.34 250.32H726.32V262.695C726.32 264.336 725.832 265.629 724.855 266.574C723.887 267.52 722.582 267.992 720.941 267.992C720.027 267.992 719.133 267.797 718.258 267.406C717.383 267.016 716.715 266.48 716.254 265.801L717.379 264.5C718.309 265.648 719.445 266.223 720.789 266.223C721.844 266.223 722.664 265.926 723.25 265.332C723.844 264.738 724.141 263.902 724.141 262.824V261.734C723.273 262.734 722.09 263.234 720.59 263.234C719.105 263.234 717.902 262.637 716.98 261.441C716.066 260.246 715.609 258.617 715.609 256.555ZM717.789 256.801C717.789 258.23 718.082 259.355 718.668 260.176C719.254 260.988 720.074 261.395 721.129 261.395C722.496 261.395 723.5 260.773 724.141 259.531V253.742C723.477 252.531 722.48 251.926 721.152 251.926C720.098 251.926 719.273 252.336 718.68 253.156C718.086 253.977 717.789 255.191 717.789 256.801ZM735.73 252.266C735.402 252.211 735.047 252.184 734.664 252.184C733.242 252.184 732.277 252.789 731.77 254V263H729.602V250.32H731.711L731.746 251.785C732.457 250.652 733.465 250.086 734.77 250.086C735.191 250.086 735.512 250.141 735.73 250.25V252.266ZM745.094 263C744.969 262.75 744.867 262.305 744.789 261.664C743.781 262.711 742.578 263.234 741.18 263.234C739.93 263.234 738.902 262.883 738.098 262.18C737.301 261.469 736.902 260.57 736.902 259.484C736.902 258.164 737.402 257.141 738.402 256.414C739.41 255.68 740.824 255.312 742.645 255.312H744.754V254.316C744.754 253.559 744.527 252.957 744.074 252.512C743.621 252.059 742.953 251.832 742.07 251.832C741.297 251.832 740.648 252.027 740.125 252.418C739.602 252.809 739.34 253.281 739.34 253.836H737.16C737.16 253.203 737.383 252.594 737.828 252.008C738.281 251.414 738.891 250.945 739.656 250.602C740.43 250.258 741.277 250.086 742.199 250.086C743.66 250.086 744.805 250.453 745.633 251.188C746.461 251.914 746.891 252.918 746.922 254.199V260.035C746.922 261.199 747.07 262.125 747.367 262.812V263H745.094ZM741.496 261.348C742.176 261.348 742.82 261.172 743.43 260.82C744.039 260.469 744.48 260.012 744.754 259.449V256.848H743.055C740.398 256.848 739.07 257.625 739.07 259.18C739.07 259.859 739.297 260.391 739.75 260.773C740.203 261.156 740.785 261.348 741.496 261.348ZM761.031 256.801C761.031 258.73 760.59 260.285 759.707 261.465C758.824 262.645 757.629 263.234 756.121 263.234C754.582 263.234 753.371 262.746 752.488 261.77V267.875H750.32V250.32H752.301L752.406 251.727C753.289 250.633 754.516 250.086 756.086 250.086C757.609 250.086 758.812 250.66 759.695 251.809C760.586 252.957 761.031 254.555 761.031 256.602V256.801ZM758.863 256.555C758.863 255.125 758.559 253.996 757.949 253.168C757.34 252.34 756.504 251.926 755.441 251.926C754.129 251.926 753.145 252.508 752.488 253.672V259.73C753.137 260.887 754.129 261.465 755.465 261.465C756.504 261.465 757.328 261.055 757.938 260.234C758.555 259.406 758.863 258.18 758.863 256.555ZM765.965 251.855C766.926 250.676 768.176 250.086 769.715 250.086C772.395 250.086 773.746 251.598 773.77 254.621V263H771.602V254.609C771.594 253.695 771.383 253.02 770.969 252.582C770.562 252.145 769.926 251.926 769.059 251.926C768.355 251.926 767.738 252.113 767.207 252.488C766.676 252.863 766.262 253.355 765.965 253.965V263H763.797V245H765.965V251.855ZM782.02 256.191C782.02 257.934 781.789 259.605 781.328 261.207C780.875 262.801 780.176 264.273 779.23 265.625C778.293 266.977 777.309 267.938 776.277 268.508L775.82 267.184C777.023 266.262 777.988 264.832 778.715 262.895C779.449 260.949 779.824 258.793 779.84 256.426V256.051C779.84 254.41 779.668 252.887 779.324 251.48C778.98 250.066 778.5 248.801 777.883 247.684C777.273 246.566 776.586 245.695 775.82 245.07L776.277 243.746C777.309 244.316 778.289 245.27 779.219 246.605C780.156 247.941 780.855 249.414 781.316 251.023C781.785 252.633 782.02 254.355 782.02 256.191Z" fill="black"/>
<circle cx="1245.5" cy="155.5" r="60.5" fill="#C4C4C4"/>
<path d="M1228.19 161.762C1227.61 162.59 1226.8 163.211 1225.77 163.625C1224.73 164.031 1223.53 164.234 1222.16 164.234C1220.77 164.234 1219.53 163.91 1218.45 163.262C1217.38 162.605 1216.54 161.676 1215.95 160.473C1215.36 159.27 1215.06 157.875 1215.04 156.289V154.801C1215.04 152.23 1215.64 150.238 1216.84 148.824C1218.04 147.41 1219.73 146.703 1221.9 146.703C1223.68 146.703 1225.11 147.16 1226.2 148.074C1227.29 148.98 1227.95 150.27 1228.19 151.941H1225.94C1225.52 149.684 1224.18 148.555 1221.91 148.555C1220.4 148.555 1219.26 149.086 1218.48 150.148C1217.7 151.203 1217.31 152.734 1217.3 154.742V156.137C1217.3 158.051 1217.74 159.574 1218.62 160.707C1219.49 161.832 1220.68 162.395 1222.17 162.395C1223.01 162.395 1223.75 162.301 1224.38 162.113C1225.02 161.926 1225.54 161.609 1225.95 161.164V157.332H1222V155.504H1228.19V161.762ZM1237.74 153.266C1237.41 153.211 1237.06 153.184 1236.68 153.184C1235.25 153.184 1234.29 153.789 1233.78 155V164H1231.61V151.32H1233.72L1233.76 152.785C1234.47 151.652 1235.48 151.086 1236.78 151.086C1237.2 151.086 1237.52 151.141 1237.74 151.25V153.266ZM1247.11 164C1246.98 163.75 1246.88 163.305 1246.8 162.664C1245.79 163.711 1244.59 164.234 1243.19 164.234C1241.94 164.234 1240.91 163.883 1240.11 163.18C1239.31 162.469 1238.91 161.57 1238.91 160.484C1238.91 159.164 1239.41 158.141 1240.41 157.414C1241.42 156.68 1242.84 156.312 1244.66 156.312H1246.77V155.316C1246.77 154.559 1246.54 153.957 1246.09 153.512C1245.63 153.059 1244.96 152.832 1244.08 152.832C1243.31 152.832 1242.66 153.027 1242.14 153.418C1241.61 153.809 1241.35 154.281 1241.35 154.836H1239.17C1239.17 154.203 1239.39 153.594 1239.84 153.008C1240.29 152.414 1240.9 151.945 1241.67 151.602C1242.44 151.258 1243.29 151.086 1244.21 151.086C1245.67 151.086 1246.82 151.453 1247.64 152.188C1248.47 152.914 1248.9 153.918 1248.93 155.199V161.035C1248.93 162.199 1249.08 163.125 1249.38 163.812V164H1247.11ZM1243.51 162.348C1244.19 162.348 1244.83 162.172 1245.44 161.82C1246.05 161.469 1246.49 161.012 1246.77 160.449V157.848H1245.07C1242.41 157.848 1241.08 158.625 1241.08 160.18C1241.08 160.859 1241.31 161.391 1241.76 161.773C1242.21 162.156 1242.8 162.348 1243.51 162.348ZM1263.04 157.801C1263.04 159.73 1262.6 161.285 1261.72 162.465C1260.84 163.645 1259.64 164.234 1258.13 164.234C1256.59 164.234 1255.38 163.746 1254.5 162.77V168.875H1252.33V151.32H1254.31L1254.42 152.727C1255.3 151.633 1256.53 151.086 1258.1 151.086C1259.62 151.086 1260.82 151.66 1261.71 152.809C1262.6 153.957 1263.04 155.555 1263.04 157.602V157.801ZM1260.88 157.555C1260.88 156.125 1260.57 154.996 1259.96 154.168C1259.35 153.34 1258.52 152.926 1257.45 152.926C1256.14 152.926 1255.16 153.508 1254.5 154.672V160.73C1255.15 161.887 1256.14 162.465 1257.48 162.465C1258.52 162.465 1259.34 162.055 1259.95 161.234C1260.57 160.406 1260.88 159.18 1260.88 157.555ZM1267.98 152.855C1268.94 151.676 1270.19 151.086 1271.73 151.086C1274.41 151.086 1275.76 152.598 1275.78 155.621V164H1273.61V155.609C1273.61 154.695 1273.39 154.02 1272.98 153.582C1272.57 153.145 1271.94 152.926 1271.07 152.926C1270.37 152.926 1269.75 153.113 1269.22 153.488C1268.69 153.863 1268.27 154.355 1267.98 154.965V164H1265.81V146H1267.98V152.855Z" fill="black"/>
<circle cx="1245.5" cy="155.5" r="60.5" fill="#C4C4C4"/>
<path d="M1215.65 142.395C1213.72 141.84 1212.32 141.16 1211.43 140.355C1210.56 139.543 1210.12 138.543 1210.12 137.355C1210.12 136.012 1210.66 134.902 1211.73 134.027C1212.8 133.145 1214.2 132.703 1215.92 132.703C1217.09 132.703 1218.14 132.93 1219.05 133.383C1219.97 133.836 1220.68 134.461 1221.18 135.258C1221.69 136.055 1221.95 136.926 1221.95 137.871H1219.68C1219.68 136.84 1219.36 136.031 1218.7 135.445C1218.04 134.852 1217.12 134.555 1215.92 134.555C1214.81 134.555 1213.95 134.801 1213.32 135.293C1212.7 135.777 1212.39 136.453 1212.39 137.32C1212.39 138.016 1212.69 138.605 1213.27 139.09C1213.87 139.566 1214.87 140.004 1216.29 140.402C1217.71 140.801 1218.82 141.242 1219.61 141.727C1220.42 142.203 1221.01 142.762 1221.39 143.402C1221.79 144.043 1221.98 144.797 1221.98 145.664C1221.98 147.047 1221.44 148.156 1220.36 148.992C1219.29 149.82 1217.84 150.234 1216.04 150.234C1214.87 150.234 1213.77 150.012 1212.76 149.566C1211.74 149.113 1210.96 148.496 1210.4 147.715C1209.86 146.934 1209.58 146.047 1209.58 145.055H1211.84C1211.84 146.086 1212.22 146.902 1212.98 147.504C1213.75 148.098 1214.77 148.395 1216.04 148.395C1217.23 148.395 1218.14 148.152 1218.77 147.668C1219.4 147.184 1219.72 146.523 1219.72 145.688C1219.72 144.852 1219.43 144.207 1218.84 143.754C1218.25 143.293 1217.19 142.84 1215.65 142.395ZM1229.8 150.234C1228.08 150.234 1226.68 149.672 1225.6 148.547C1224.52 147.414 1223.98 145.902 1223.98 144.012V143.613C1223.98 142.355 1224.22 141.234 1224.7 140.25C1225.18 139.258 1225.86 138.484 1226.71 137.93C1227.58 137.367 1228.52 137.086 1229.53 137.086C1231.18 137.086 1232.46 137.629 1233.37 138.715C1234.29 139.801 1234.74 141.355 1234.74 143.379V144.281H1226.15C1226.18 145.531 1226.55 146.543 1227.24 147.316C1227.95 148.082 1228.84 148.465 1229.91 148.465C1230.68 148.465 1231.33 148.309 1231.86 147.996C1232.39 147.684 1232.86 147.27 1233.25 146.754L1234.58 147.785C1233.52 149.418 1231.92 150.234 1229.8 150.234ZM1229.53 138.867C1228.65 138.867 1227.92 139.188 1227.32 139.828C1226.73 140.461 1226.36 141.352 1226.22 142.5H1232.57V142.336C1232.51 141.234 1232.21 140.383 1231.68 139.781C1231.15 139.172 1230.43 138.867 1229.53 138.867ZM1245.09 150C1244.96 149.75 1244.86 149.305 1244.79 148.664C1243.78 149.711 1242.57 150.234 1241.18 150.234C1239.93 150.234 1238.9 149.883 1238.09 149.18C1237.3 148.469 1236.9 147.57 1236.9 146.484C1236.9 145.164 1237.4 144.141 1238.4 143.414C1239.41 142.68 1240.82 142.312 1242.64 142.312H1244.75V141.316C1244.75 140.559 1244.52 139.957 1244.07 139.512C1243.62 139.059 1242.95 138.832 1242.07 138.832C1241.29 138.832 1240.64 139.027 1240.12 139.418C1239.6 139.809 1239.34 140.281 1239.34 140.836H1237.16C1237.16 140.203 1237.38 139.594 1237.82 139.008C1238.28 138.414 1238.89 137.945 1239.65 137.602C1240.43 137.258 1241.27 137.086 1242.2 137.086C1243.66 137.086 1244.8 137.453 1245.63 138.188C1246.46 138.914 1246.89 139.918 1246.92 141.199V147.035C1246.92 148.199 1247.07 149.125 1247.36 149.812V150H1245.09ZM1241.49 148.348C1242.17 148.348 1242.82 148.172 1243.43 147.82C1244.04 147.469 1244.48 147.012 1244.75 146.449V143.848H1243.05C1240.39 143.848 1239.07 144.625 1239.07 146.18C1239.07 146.859 1239.29 147.391 1239.75 147.773C1240.2 148.156 1240.78 148.348 1241.49 148.348ZM1256.45 139.266C1256.12 139.211 1255.76 139.184 1255.38 139.184C1253.96 139.184 1252.99 139.789 1252.48 141V150H1250.32V137.32H1252.43L1252.46 138.785C1253.17 137.652 1254.18 137.086 1255.48 137.086C1255.91 137.086 1256.23 137.141 1256.45 137.25V139.266ZM1263.3 148.465C1264.07 148.465 1264.75 148.23 1265.33 147.762C1265.91 147.293 1266.23 146.707 1266.29 146.004H1268.34C1268.3 146.73 1268.05 147.422 1267.59 148.078C1267.13 148.734 1266.51 149.258 1265.74 149.648C1264.97 150.039 1264.16 150.234 1263.3 150.234C1261.57 150.234 1260.2 149.66 1259.18 148.512C1258.16 147.355 1257.65 145.777 1257.65 143.777V143.414C1257.65 142.18 1257.88 141.082 1258.33 140.121C1258.79 139.16 1259.43 138.414 1260.28 137.883C1261.13 137.352 1262.13 137.086 1263.29 137.086C1264.71 137.086 1265.89 137.512 1266.83 138.363C1267.77 139.215 1268.28 140.32 1268.34 141.68H1266.29C1266.23 140.859 1265.91 140.188 1265.35 139.664C1264.8 139.133 1264.11 138.867 1263.29 138.867C1262.19 138.867 1261.33 139.266 1260.72 140.062C1260.12 140.852 1259.82 141.996 1259.82 143.496V143.906C1259.82 145.367 1260.12 146.492 1260.72 147.281C1261.32 148.07 1262.18 148.465 1263.3 148.465ZM1272.95 138.855C1273.91 137.676 1275.16 137.086 1276.7 137.086C1279.38 137.086 1280.73 138.598 1280.75 141.621V150H1278.58V141.609C1278.57 140.695 1278.36 140.02 1277.95 139.582C1277.54 139.145 1276.91 138.926 1276.04 138.926C1275.34 138.926 1274.72 139.113 1274.19 139.488C1273.66 139.863 1273.24 140.355 1272.95 140.965V150H1270.78V132H1272.95V138.855ZM1234.96 178C1234.84 177.75 1234.74 177.305 1234.66 176.664C1233.65 177.711 1232.45 178.234 1231.05 178.234C1229.8 178.234 1228.77 177.883 1227.97 177.18C1227.17 176.469 1226.77 175.57 1226.77 174.484C1226.77 173.164 1227.27 172.141 1228.27 171.414C1229.28 170.68 1230.7 170.312 1232.52 170.312H1234.62V169.316C1234.62 168.559 1234.4 167.957 1233.95 167.512C1233.49 167.059 1232.82 166.832 1231.94 166.832C1231.17 166.832 1230.52 167.027 1230 167.418C1229.47 167.809 1229.21 168.281 1229.21 168.836H1227.03C1227.03 168.203 1227.25 167.594 1227.7 167.008C1228.15 166.414 1228.76 165.945 1229.53 165.602C1230.3 165.258 1231.15 165.086 1232.07 165.086C1233.53 165.086 1234.68 165.453 1235.5 166.188C1236.33 166.914 1236.76 167.918 1236.79 169.199V175.035C1236.79 176.199 1236.94 177.125 1237.24 177.812V178H1234.96ZM1231.37 176.348C1232.05 176.348 1232.69 176.172 1233.3 175.82C1233.91 175.469 1234.35 175.012 1234.62 174.449V171.848H1232.93C1230.27 171.848 1228.94 172.625 1228.94 174.18C1228.94 174.859 1229.17 175.391 1229.62 175.773C1230.07 176.156 1230.66 176.348 1231.37 176.348ZM1250.9 171.801C1250.9 173.73 1250.46 175.285 1249.58 176.465C1248.7 177.645 1247.5 178.234 1245.99 178.234C1244.45 178.234 1243.24 177.746 1242.36 176.77V182.875H1240.19V165.32H1242.17L1242.28 166.727C1243.16 165.633 1244.39 165.086 1245.96 165.086C1247.48 165.086 1248.68 165.66 1249.57 166.809C1250.46 167.957 1250.9 169.555 1250.9 171.602V171.801ZM1248.73 171.555C1248.73 170.125 1248.43 168.996 1247.82 168.168C1247.21 167.34 1246.38 166.926 1245.31 166.926C1244 166.926 1243.02 167.508 1242.36 168.672V174.73C1243.01 175.887 1244 176.465 1245.34 176.465C1246.38 176.465 1247.2 176.055 1247.81 175.234C1248.43 174.406 1248.73 173.18 1248.73 171.555ZM1264.38 171.801C1264.38 173.73 1263.94 175.285 1263.05 176.465C1262.17 177.645 1260.98 178.234 1259.47 178.234C1257.93 178.234 1256.72 177.746 1255.84 176.77V182.875H1253.67V165.32H1255.65L1255.75 166.727C1256.64 165.633 1257.86 165.086 1259.43 165.086C1260.96 165.086 1262.16 165.66 1263.04 166.809C1263.93 167.957 1264.38 169.555 1264.38 171.602V171.801ZM1262.21 171.555C1262.21 170.125 1261.91 168.996 1261.3 168.168C1260.69 167.34 1259.85 166.926 1258.79 166.926C1257.48 166.926 1256.49 167.508 1255.84 168.672V174.73C1256.48 175.887 1257.48 176.465 1258.81 176.465C1259.85 176.465 1260.68 176.055 1261.29 175.234C1261.9 174.406 1262.21 173.18 1262.21 171.555Z" fill="black"/>
<circle cx="1245.5" cy="345.5" r="60.5" fill="#C4C4C4"/>
<path d="M1228.19 351.762C1227.61 352.59 1226.8 353.211 1225.77 353.625C1224.73 354.031 1223.53 354.234 1222.16 354.234C1220.77 354.234 1219.53 353.91 1218.45 353.262C1217.38 352.605 1216.54 351.676 1215.95 350.473C1215.36 349.27 1215.06 347.875 1215.04 346.289V344.801C1215.04 342.23 1215.64 340.238 1216.84 338.824C1218.04 337.41 1219.73 336.703 1221.9 336.703C1223.68 336.703 1225.11 337.16 1226.2 338.074C1227.29 338.98 1227.95 340.27 1228.19 341.941H1225.94C1225.52 339.684 1224.18 338.555 1221.91 338.555C1220.4 338.555 1219.26 339.086 1218.48 340.148C1217.7 341.203 1217.31 342.734 1217.3 344.742V346.137C1217.3 348.051 1217.74 349.574 1218.62 350.707C1219.49 351.832 1220.68 352.395 1222.17 352.395C1223.01 352.395 1223.75 352.301 1224.38 352.113C1225.02 351.926 1225.54 351.609 1225.95 351.164V347.332H1222V345.504H1228.19V351.762ZM1237.74 343.266C1237.41 343.211 1237.06 343.184 1236.68 343.184C1235.25 343.184 1234.29 343.789 1233.78 345V354H1231.61V341.32H1233.72L1233.76 342.785C1234.47 341.652 1235.48 341.086 1236.78 341.086C1237.2 341.086 1237.52 341.141 1237.74 341.25V343.266ZM1247.11 354C1246.98 353.75 1246.88 353.305 1246.8 352.664C1245.79 353.711 1244.59 354.234 1243.19 354.234C1241.94 354.234 1240.91 353.883 1240.11 353.18C1239.31 352.469 1238.91 351.57 1238.91 350.484C1238.91 349.164 1239.41 348.141 1240.41 347.414C1241.42 346.68 1242.84 346.312 1244.66 346.312H1246.77V345.316C1246.77 344.559 1246.54 343.957 1246.09 343.512C1245.63 343.059 1244.96 342.832 1244.08 342.832C1243.31 342.832 1242.66 343.027 1242.14 343.418C1241.61 343.809 1241.35 344.281 1241.35 344.836H1239.17C1239.17 344.203 1239.39 343.594 1239.84 343.008C1240.29 342.414 1240.9 341.945 1241.67 341.602C1242.44 341.258 1243.29 341.086 1244.21 341.086C1245.67 341.086 1246.82 341.453 1247.64 342.188C1248.47 342.914 1248.9 343.918 1248.93 345.199V351.035C1248.93 352.199 1249.08 353.125 1249.38 353.812V354H1247.11ZM1243.51 352.348C1244.19 352.348 1244.83 352.172 1245.44 351.82C1246.05 351.469 1246.49 351.012 1246.77 350.449V347.848H1245.07C1242.41 347.848 1241.08 348.625 1241.08 350.18C1241.08 350.859 1241.31 351.391 1241.76 351.773C1242.21 352.156 1242.8 352.348 1243.51 352.348ZM1263.04 347.801C1263.04 349.73 1262.6 351.285 1261.72 352.465C1260.84 353.645 1259.64 354.234 1258.13 354.234C1256.59 354.234 1255.38 353.746 1254.5 352.77V358.875H1252.33V341.32H1254.31L1254.42 342.727C1255.3 341.633 1256.53 341.086 1258.1 341.086C1259.62 341.086 1260.82 341.66 1261.71 342.809C1262.6 343.957 1263.04 345.555 1263.04 347.602V347.801ZM1260.88 347.555C1260.88 346.125 1260.57 344.996 1259.96 344.168C1259.35 343.34 1258.52 342.926 1257.45 342.926C1256.14 342.926 1255.16 343.508 1254.5 344.672V350.73C1255.15 351.887 1256.14 352.465 1257.48 352.465C1258.52 352.465 1259.34 352.055 1259.95 351.234C1260.57 350.406 1260.88 349.18 1260.88 347.555ZM1267.98 342.855C1268.94 341.676 1270.19 341.086 1271.73 341.086C1274.41 341.086 1275.76 342.598 1275.78 345.621V354H1273.61V345.609C1273.61 344.695 1273.39 344.02 1272.98 343.582C1272.57 343.145 1271.94 342.926 1271.07 342.926C1270.37 342.926 1269.75 343.113 1269.22 343.488C1268.69 343.863 1268.27 344.355 1267.98 344.965V354H1265.81V336H1267.98V342.855Z" fill="black"/>
<circle cx="1245.5" cy="345.5" r="60.5" fill="#C4C4C4"/>
<path d="M1216.75 337.012L1221.63 322.938H1224.09L1217.76 340H1215.77L1209.45 322.938H1211.9L1216.75 337.012ZM1228.4 340H1226.23V327.32H1228.4V340ZM1226.06 323.957C1226.06 323.605 1226.16 323.309 1226.38 323.066C1226.59 322.824 1226.91 322.703 1227.34 322.703C1227.76 322.703 1228.08 322.824 1228.3 323.066C1228.52 323.309 1228.62 323.605 1228.62 323.957C1228.62 324.309 1228.52 324.602 1228.3 324.836C1228.08 325.07 1227.76 325.188 1227.34 325.188C1226.91 325.188 1226.59 325.07 1226.38 324.836C1226.16 324.602 1226.06 324.309 1226.06 323.957ZM1237.14 340.234C1235.43 340.234 1234.03 339.672 1232.95 338.547C1231.87 337.414 1231.33 335.902 1231.33 334.012V333.613C1231.33 332.355 1231.57 331.234 1232.05 330.25C1232.53 329.258 1233.2 328.484 1234.06 327.93C1234.93 327.367 1235.87 327.086 1236.88 327.086C1238.52 327.086 1239.8 327.629 1240.72 328.715C1241.63 329.801 1242.09 331.355 1242.09 333.379V334.281H1233.5C1233.53 335.531 1233.89 336.543 1234.59 337.316C1235.29 338.082 1236.18 338.465 1237.26 338.465C1238.03 338.465 1238.68 338.309 1239.21 337.996C1239.74 337.684 1240.2 337.27 1240.6 336.754L1241.93 337.785C1240.86 339.418 1239.27 340.234 1237.14 340.234ZM1236.88 328.867C1236 328.867 1235.27 329.188 1234.67 329.828C1234.08 330.461 1233.71 331.352 1233.57 332.5H1239.92V332.336C1239.86 331.234 1239.56 330.383 1239.03 329.781C1238.5 329.172 1237.78 328.867 1236.88 328.867ZM1255.84 337.012L1258.27 327.32H1260.44L1256.75 340H1254.99L1251.91 330.391L1248.91 340H1247.15L1243.47 327.32H1245.63L1248.12 336.812L1251.08 327.32H1252.82L1255.84 337.012ZM1267.92 340.234C1266.2 340.234 1264.8 339.672 1263.72 338.547C1262.64 337.414 1262.11 335.902 1262.11 334.012V333.613C1262.11 332.355 1262.34 331.234 1262.82 330.25C1263.3 329.258 1263.98 328.484 1264.84 327.93C1265.7 327.367 1266.64 327.086 1267.65 327.086C1269.3 327.086 1270.58 327.629 1271.49 328.715C1272.41 329.801 1272.86 331.355 1272.86 333.379V334.281H1264.27C1264.3 335.531 1264.67 336.543 1265.36 337.316C1266.07 338.082 1266.96 338.465 1268.04 338.465C1268.8 338.465 1269.45 338.309 1269.98 337.996C1270.51 337.684 1270.98 337.27 1271.38 336.754L1272.7 337.785C1271.64 339.418 1270.04 340.234 1267.92 340.234ZM1267.65 328.867C1266.77 328.867 1266.04 329.188 1265.45 329.828C1264.85 330.461 1264.48 331.352 1264.34 332.5H1270.7V332.336C1270.63 331.234 1270.34 330.383 1269.8 329.781C1269.27 329.172 1268.55 328.867 1267.65 328.867ZM1281.51 329.266C1281.18 329.211 1280.83 329.184 1280.45 329.184C1279.02 329.184 1278.06 329.789 1277.55 331V340H1275.38V327.32H1277.49L1277.53 328.785C1278.24 327.652 1279.25 327.086 1280.55 327.086C1280.97 327.086 1281.29 327.141 1281.51 327.25V329.266ZM1228.78 368C1228.65 367.75 1228.55 367.305 1228.47 366.664C1227.46 367.711 1226.26 368.234 1224.86 368.234C1223.61 368.234 1222.59 367.883 1221.78 367.18C1220.98 366.469 1220.59 365.57 1220.59 364.484C1220.59 363.164 1221.09 362.141 1222.09 361.414C1223.09 360.68 1224.51 360.312 1226.33 360.312H1228.44V359.316C1228.44 358.559 1228.21 357.957 1227.76 357.512C1227.3 357.059 1226.64 356.832 1225.75 356.832C1224.98 356.832 1224.33 357.027 1223.81 357.418C1223.29 357.809 1223.02 358.281 1223.02 358.836H1220.84C1220.84 358.203 1221.07 357.594 1221.51 357.008C1221.96 356.414 1222.57 355.945 1223.34 355.602C1224.11 355.258 1224.96 355.086 1225.88 355.086C1227.34 355.086 1228.49 355.453 1229.32 356.188C1230.14 356.914 1230.57 357.918 1230.61 359.199V365.035C1230.61 366.199 1230.75 367.125 1231.05 367.812V368H1228.78ZM1225.18 366.348C1225.86 366.348 1226.5 366.172 1227.11 365.82C1227.72 365.469 1228.16 365.012 1228.44 364.449V361.848H1226.74C1224.08 361.848 1222.75 362.625 1222.75 364.18C1222.75 364.859 1222.98 365.391 1223.43 365.773C1223.89 366.156 1224.47 366.348 1225.18 366.348ZM1244.71 361.801C1244.71 363.73 1244.27 365.285 1243.39 366.465C1242.51 367.645 1241.31 368.234 1239.8 368.234C1238.27 368.234 1237.05 367.746 1236.17 366.77V372.875H1234V355.32H1235.98L1236.09 356.727C1236.97 355.633 1238.2 355.086 1239.77 355.086C1241.29 355.086 1242.5 355.66 1243.38 356.809C1244.27 357.957 1244.71 359.555 1244.71 361.602V361.801ZM1242.55 361.555C1242.55 360.125 1242.24 358.996 1241.63 358.168C1241.02 357.34 1240.19 356.926 1239.12 356.926C1237.81 356.926 1236.83 357.508 1236.17 358.672V364.73C1236.82 365.887 1237.81 366.465 1239.15 366.465C1240.19 366.465 1241.01 366.055 1241.62 365.234C1242.24 364.406 1242.55 363.18 1242.55 361.555ZM1258.19 361.801C1258.19 363.73 1257.75 365.285 1256.87 366.465C1255.98 367.645 1254.79 368.234 1253.28 368.234C1251.74 368.234 1250.53 367.746 1249.65 366.77V372.875H1247.48V355.32H1249.46L1249.57 356.727C1250.45 355.633 1251.68 355.086 1253.25 355.086C1254.77 355.086 1255.97 355.66 1256.86 356.809C1257.75 357.957 1258.19 359.555 1258.19 361.602V361.801ZM1256.02 361.555C1256.02 360.125 1255.72 358.996 1255.11 358.168C1254.5 357.34 1253.66 356.926 1252.6 356.926C1251.29 356.926 1250.3 357.508 1249.65 358.672V364.73C1250.3 365.887 1251.29 366.465 1252.62 366.465C1253.66 366.465 1254.49 366.055 1255.1 365.234C1255.71 364.406 1256.02 363.18 1256.02 361.555ZM1268.34 364.637C1268.34 364.051 1268.12 363.598 1267.67 363.277C1267.23 362.949 1266.46 362.668 1265.36 362.434C1264.27 362.199 1263.4 361.918 1262.75 361.59C1262.11 361.262 1261.63 360.871 1261.32 360.418C1261.02 359.965 1260.86 359.426 1260.86 358.801C1260.86 357.762 1261.3 356.883 1262.18 356.164C1263.06 355.445 1264.18 355.086 1265.55 355.086C1266.99 355.086 1268.15 355.457 1269.04 356.199C1269.94 356.941 1270.39 357.891 1270.39 359.047H1268.21C1268.21 358.453 1267.96 357.941 1267.45 357.512C1266.95 357.082 1266.32 356.867 1265.55 356.867C1264.76 356.867 1264.14 357.039 1263.7 357.383C1263.25 357.727 1263.03 358.176 1263.03 358.73C1263.03 359.254 1263.24 359.648 1263.65 359.914C1264.07 360.18 1264.81 360.434 1265.89 360.676C1266.98 360.918 1267.86 361.207 1268.53 361.543C1269.2 361.879 1269.7 362.285 1270.02 362.762C1270.34 363.23 1270.51 363.805 1270.51 364.484C1270.51 365.617 1270.05 366.527 1269.15 367.215C1268.24 367.895 1267.07 368.234 1265.62 368.234C1264.61 368.234 1263.71 368.055 1262.93 367.695C1262.14 367.336 1261.53 366.836 1261.09 366.195C1260.65 365.547 1260.43 364.848 1260.43 364.098H1262.6C1262.64 364.824 1262.93 365.402 1263.46 365.832C1264.01 366.254 1264.73 366.465 1265.62 366.465C1266.44 366.465 1267.1 366.301 1267.59 365.973C1268.09 365.637 1268.34 365.191 1268.34 364.637Z" fill="black"/>
<path d="M1178.35 44V26.9375H1183.17C1184.65 26.9375 1185.96 27.2656 1187.11 27.9219C1188.25 28.5781 1189.12 29.5117 1189.74 30.7227C1190.37 31.9336 1190.68 33.3242 1190.69 34.8945V35.9844C1190.69 37.5938 1190.38 39.0039 1189.75 40.2148C1189.14 41.4258 1188.25 42.3555 1187.09 43.0039C1185.95 43.6523 1184.61 43.9844 1183.07 44H1178.35ZM1180.6 28.7891V42.1602H1182.97C1184.7 42.1602 1186.05 41.6211 1187.01 40.543C1187.98 39.4648 1188.46 37.9297 1188.46 35.9375V34.9414C1188.46 33.0039 1188.01 31.5 1187.09 30.4297C1186.19 29.3516 1184.9 28.8047 1183.23 28.7891H1180.6ZM1201.59 44C1201.46 43.75 1201.36 43.3047 1201.29 42.6641C1200.28 43.7109 1199.07 44.2344 1197.68 44.2344C1196.43 44.2344 1195.4 43.8828 1194.59 43.1797C1193.8 42.4688 1193.4 41.5703 1193.4 40.4844C1193.4 39.1641 1193.9 38.1406 1194.9 37.4141C1195.91 36.6797 1197.32 36.3125 1199.14 36.3125H1201.25V35.3164C1201.25 34.5586 1201.02 33.957 1200.57 33.5117C1200.12 33.0586 1199.45 32.832 1198.57 32.832C1197.79 32.832 1197.14 33.0273 1196.62 33.418C1196.1 33.8086 1195.84 34.2812 1195.84 34.8359H1193.66C1193.66 34.2031 1193.88 33.5938 1194.32 33.0078C1194.78 32.4141 1195.39 31.9453 1196.15 31.6016C1196.93 31.2578 1197.77 31.0859 1198.7 31.0859C1200.16 31.0859 1201.3 31.4531 1202.13 32.1875C1202.96 32.9141 1203.39 33.918 1203.42 35.1992V41.0352C1203.42 42.1992 1203.57 43.125 1203.86 43.8125V44H1201.59ZM1197.99 42.3477C1198.67 42.3477 1199.32 42.1719 1199.93 41.8203C1200.54 41.4688 1200.98 41.0117 1201.25 40.4492V37.8477H1199.55C1196.89 37.8477 1195.57 38.625 1195.57 40.1797C1195.57 40.8594 1195.79 41.3906 1196.25 41.7734C1196.7 42.1562 1197.28 42.3477 1197.99 42.3477ZM1209.76 28.25V31.3203H1212.12V32.9961H1209.76V40.8594C1209.76 41.3672 1209.86 41.75 1210.07 42.0078C1210.29 42.2578 1210.64 42.3828 1211.15 42.3828C1211.4 42.3828 1211.75 42.3359 1212.18 42.2422V44C1211.61 44.1562 1211.06 44.2344 1210.52 44.2344C1209.55 44.2344 1208.82 43.9414 1208.33 43.3555C1207.84 42.7695 1207.59 41.9375 1207.59 40.8594V32.9961H1205.28V31.3203H1207.59V28.25H1209.76ZM1222.5 44C1222.37 43.75 1222.27 43.3047 1222.19 42.6641C1221.18 43.7109 1219.98 44.2344 1218.58 44.2344C1217.33 44.2344 1216.3 43.8828 1215.5 43.1797C1214.7 42.4688 1214.3 41.5703 1214.3 40.4844C1214.3 39.1641 1214.8 38.1406 1215.8 37.4141C1216.81 36.6797 1218.23 36.3125 1220.05 36.3125H1222.16V35.3164C1222.16 34.5586 1221.93 33.957 1221.48 33.5117C1221.02 33.0586 1220.36 32.832 1219.47 32.832C1218.7 32.832 1218.05 33.0273 1217.53 33.418C1217 33.8086 1216.74 34.2812 1216.74 34.8359H1214.56C1214.56 34.2031 1214.79 33.5938 1215.23 33.0078C1215.68 32.4141 1216.29 31.9453 1217.06 31.6016C1217.83 31.2578 1218.68 31.0859 1219.6 31.0859C1221.06 31.0859 1222.21 31.4531 1223.04 32.1875C1223.86 32.9141 1224.29 33.918 1224.32 35.1992V41.0352C1224.32 42.1992 1224.47 43.125 1224.77 43.8125V44H1222.5ZM1218.9 42.3477C1219.58 42.3477 1220.22 42.1719 1220.83 41.8203C1221.44 41.4688 1221.88 41.0117 1222.16 40.4492V37.8477H1220.46C1217.8 37.8477 1216.47 38.625 1216.47 40.1797C1216.47 40.8594 1216.7 41.3906 1217.15 41.7734C1217.61 42.1562 1218.19 42.3477 1218.9 42.3477ZM1246.57 38.5859C1246.36 40.3906 1245.69 41.7852 1244.56 42.7695C1243.45 43.7461 1241.96 44.2344 1240.1 44.2344C1238.08 44.2344 1236.46 43.5117 1235.25 42.0664C1234.04 40.6211 1233.43 38.6875 1233.43 36.2656V34.625C1233.43 33.0391 1233.71 31.6445 1234.27 30.4414C1234.84 29.2383 1235.65 28.3164 1236.69 27.6758C1237.73 27.0273 1238.93 26.7031 1240.3 26.7031C1242.11 26.7031 1243.56 27.2109 1244.66 28.2266C1245.75 29.2344 1246.39 30.6328 1246.57 32.4219H1244.3C1244.11 31.0625 1243.68 30.0781 1243.03 29.4688C1242.38 28.8594 1241.47 28.5547 1240.3 28.5547C1238.86 28.5547 1237.73 29.0859 1236.91 30.1484C1236.1 31.2109 1235.69 32.7227 1235.69 34.6836V36.3359C1235.69 38.1875 1236.08 39.6602 1236.85 40.7539C1237.62 41.8477 1238.71 42.3945 1240.1 42.3945C1241.35 42.3945 1242.3 42.1133 1242.97 41.5508C1243.64 40.9805 1244.09 39.9922 1244.3 38.5859H1246.57ZM1257.14 44C1257.01 43.75 1256.91 43.3047 1256.83 42.6641C1255.82 43.7109 1254.62 44.2344 1253.22 44.2344C1251.97 44.2344 1250.95 43.8828 1250.14 43.1797C1249.34 42.4688 1248.95 41.5703 1248.95 40.4844C1248.95 39.1641 1249.45 38.1406 1250.45 37.4141C1251.45 36.6797 1252.87 36.3125 1254.69 36.3125H1256.8V35.3164C1256.8 34.5586 1256.57 33.957 1256.12 33.5117C1255.66 33.0586 1255 32.832 1254.11 32.832C1253.34 32.832 1252.69 33.0273 1252.17 33.418C1251.64 33.8086 1251.38 34.2812 1251.38 34.8359H1249.2C1249.2 34.2031 1249.43 33.5938 1249.87 33.0078C1250.32 32.4141 1250.93 31.9453 1251.7 31.6016C1252.47 31.2578 1253.32 31.0859 1254.24 31.0859C1255.7 31.0859 1256.85 31.4531 1257.68 32.1875C1258.5 32.9141 1258.93 33.918 1258.96 35.1992V41.0352C1258.96 42.1992 1259.11 43.125 1259.41 43.8125V44H1257.14ZM1253.54 42.3477C1254.22 42.3477 1254.86 42.1719 1255.47 41.8203C1256.08 41.4688 1256.52 41.0117 1256.8 40.4492V37.8477H1255.1C1252.44 37.8477 1251.11 38.625 1251.11 40.1797C1251.11 40.8594 1251.34 41.3906 1251.79 41.7734C1252.25 42.1562 1252.83 42.3477 1253.54 42.3477ZM1265.3 28.25V31.3203H1267.67V32.9961H1265.3V40.8594C1265.3 41.3672 1265.41 41.75 1265.62 42.0078C1265.83 42.2578 1266.19 42.3828 1266.7 42.3828C1266.95 42.3828 1267.29 42.3359 1267.73 42.2422V44C1267.16 44.1562 1266.61 44.2344 1266.07 44.2344C1265.1 44.2344 1264.37 43.9414 1263.88 43.3555C1263.38 42.7695 1263.14 41.9375 1263.14 40.8594V32.9961H1260.83V31.3203H1263.14V28.25H1265.3ZM1278.04 44C1277.92 43.75 1277.82 43.3047 1277.74 42.6641C1276.73 43.7109 1275.53 44.2344 1274.13 44.2344C1272.88 44.2344 1271.85 43.8828 1271.05 43.1797C1270.25 42.4688 1269.85 41.5703 1269.85 40.4844C1269.85 39.1641 1270.35 38.1406 1271.35 37.4141C1272.36 36.6797 1273.77 36.3125 1275.59 36.3125H1277.7V35.3164C1277.7 34.5586 1277.48 33.957 1277.02 33.5117C1276.57 33.0586 1275.9 32.832 1275.02 32.832C1274.25 32.832 1273.6 33.0273 1273.07 33.418C1272.55 33.8086 1272.29 34.2812 1272.29 34.8359H1270.11C1270.11 34.2031 1270.33 33.5938 1270.78 33.0078C1271.23 32.4141 1271.84 31.9453 1272.61 31.6016C1273.38 31.2578 1274.23 31.0859 1275.15 31.0859C1276.61 31.0859 1277.75 31.4531 1278.58 32.1875C1279.41 32.9141 1279.84 33.918 1279.87 35.1992V41.0352C1279.87 42.1992 1280.02 43.125 1280.32 43.8125V44H1278.04ZM1274.45 42.3477C1275.12 42.3477 1275.77 42.1719 1276.38 41.8203C1276.99 41.4688 1277.43 41.0117 1277.7 40.4492V37.8477H1276C1273.35 37.8477 1272.02 38.625 1272.02 40.1797C1272.02 40.8594 1272.25 41.3906 1272.7 41.7734C1273.15 42.1562 1273.73 42.3477 1274.45 42.3477ZM1285.62 44H1283.46V26H1285.62V44ZM1288.53 37.543C1288.53 36.3008 1288.77 35.1836 1289.26 34.1914C1289.75 33.1992 1290.43 32.4336 1291.3 31.8945C1292.17 31.3555 1293.17 31.0859 1294.29 31.0859C1296.01 31.0859 1297.41 31.6836 1298.47 32.8789C1299.54 34.0742 1300.07 35.6641 1300.07 37.6484V37.8008C1300.07 39.0352 1299.84 40.1445 1299.36 41.1289C1298.89 42.1055 1298.21 42.8672 1297.33 43.4141C1296.46 43.9609 1295.45 44.2344 1294.31 44.2344C1292.59 44.2344 1291.2 43.6367 1290.12 42.4414C1289.06 41.2461 1288.53 39.6641 1288.53 37.6953V37.543ZM1290.71 37.8008C1290.71 39.207 1291.04 40.3359 1291.68 41.1875C1292.34 42.0391 1293.21 42.4648 1294.31 42.4648C1295.41 42.4648 1296.29 42.0352 1296.93 41.1758C1297.58 40.3086 1297.91 39.0977 1297.91 37.543C1297.91 36.1523 1297.57 35.0273 1296.91 34.168C1296.25 33.3008 1295.38 32.8672 1294.29 32.8672C1293.21 32.8672 1292.35 33.293 1291.7 34.1445C1291.04 34.9961 1290.71 36.2148 1290.71 37.8008ZM1302.28 37.5547C1302.28 35.5781 1302.73 34.0078 1303.65 32.8438C1304.56 31.6719 1305.77 31.0859 1307.28 31.0859C1308.83 31.0859 1310.04 31.6328 1310.9 32.7266L1311.01 31.3203H1312.99V43.6953C1312.99 45.3359 1312.5 46.6289 1311.52 47.5742C1310.55 48.5195 1309.25 48.9922 1307.61 48.9922C1306.7 48.9922 1305.8 48.7969 1304.93 48.4062C1304.05 48.0156 1303.38 47.4805 1302.92 46.8008L1304.05 45.5C1304.98 46.6484 1306.11 47.2227 1307.46 47.2227C1308.51 47.2227 1309.33 46.9258 1309.92 46.332C1310.51 45.7383 1310.81 44.9023 1310.81 43.8242V42.7344C1309.94 43.7344 1308.76 44.2344 1307.26 44.2344C1305.77 44.2344 1304.57 43.6367 1303.65 42.4414C1302.73 41.2461 1302.28 39.6172 1302.28 37.5547ZM1304.46 37.8008C1304.46 39.2305 1304.75 40.3555 1305.34 41.1758C1305.92 41.9883 1306.74 42.3945 1307.8 42.3945C1309.16 42.3945 1310.17 41.7734 1310.81 40.5312V34.7422C1310.14 33.5312 1309.15 32.9258 1307.82 32.9258C1306.77 32.9258 1305.94 33.3359 1305.35 34.1562C1304.75 34.9766 1304.46 36.1914 1304.46 37.8008ZM1202.94 72V60.9961H1200.93V59.3203H1202.94V58.0195C1202.94 56.6602 1203.3 55.6094 1204.03 54.8672C1204.75 54.125 1205.78 53.7539 1207.11 53.7539C1207.61 53.7539 1208.11 53.8203 1208.6 53.9531L1208.48 55.7109C1208.11 55.6406 1207.72 55.6055 1207.31 55.6055C1206.61 55.6055 1206.06 55.8125 1205.68 56.2266C1205.3 56.6328 1205.11 57.2188 1205.11 57.9844V59.3203H1207.81V60.9961H1205.11V72H1202.94ZM1216.34 61.2656C1216.02 61.2109 1215.66 61.1836 1215.28 61.1836C1213.86 61.1836 1212.89 61.7891 1212.38 63V72H1210.21V59.3203H1212.32L1212.36 60.7852C1213.07 59.6523 1214.08 59.0859 1215.38 59.0859C1215.8 59.0859 1216.12 59.1406 1216.34 59.25V61.2656ZM1217.54 65.543C1217.54 64.3008 1217.78 63.1836 1218.27 62.1914C1218.76 61.1992 1219.44 60.4336 1220.3 59.8945C1221.18 59.3555 1222.18 59.0859 1223.29 59.0859C1225.02 59.0859 1226.41 59.6836 1227.48 60.8789C1228.55 62.0742 1229.08 63.6641 1229.08 65.6484V65.8008C1229.08 67.0352 1228.84 68.1445 1228.37 69.1289C1227.9 70.1055 1227.22 70.8672 1226.34 71.4141C1225.46 71.9609 1224.46 72.2344 1223.32 72.2344C1221.6 72.2344 1220.2 71.6367 1219.13 70.4414C1218.07 69.2461 1217.54 67.6641 1217.54 65.6953V65.543ZM1219.72 65.8008C1219.72 67.207 1220.04 68.3359 1220.69 69.1875C1221.35 70.0391 1222.22 70.4648 1223.32 70.4648C1224.42 70.4648 1225.29 70.0352 1225.94 69.1758C1226.59 68.3086 1226.91 67.0977 1226.91 65.543C1226.91 64.1523 1226.58 63.0273 1225.92 62.168C1225.26 61.3008 1224.39 60.8672 1223.29 60.8672C1222.22 60.8672 1221.36 61.293 1220.7 62.1445C1220.05 62.9961 1219.72 64.2148 1219.72 65.8008ZM1233.85 59.3203L1233.92 60.9141C1234.89 59.6953 1236.16 59.0859 1237.72 59.0859C1240.4 59.0859 1241.75 60.5977 1241.77 63.6211V72H1239.61V63.6094C1239.6 62.6953 1239.39 62.0195 1238.97 61.582C1238.57 61.1445 1237.93 60.9258 1237.06 60.9258C1236.36 60.9258 1235.74 61.1133 1235.21 61.4883C1234.68 61.8633 1234.27 62.3555 1233.97 62.9648V72H1231.8V59.3203H1233.85ZM1247.98 56.25V59.3203H1250.35V60.9961H1247.98V68.8594C1247.98 69.3672 1248.09 69.75 1248.3 70.0078C1248.51 70.2578 1248.87 70.3828 1249.38 70.3828C1249.63 70.3828 1249.97 70.3359 1250.41 70.2422V72C1249.84 72.1562 1249.29 72.2344 1248.75 72.2344C1247.78 72.2344 1247.05 71.9414 1246.55 71.3555C1246.06 70.7695 1245.82 69.9375 1245.82 68.8594V60.9961H1243.51V59.3203H1245.82V56.25H1247.98ZM1258.16 72.2344C1256.44 72.2344 1255.04 71.6719 1253.96 70.5469C1252.88 69.4141 1252.34 67.9023 1252.34 66.0117V65.6133C1252.34 64.3555 1252.58 63.2344 1253.06 62.25C1253.54 61.2578 1254.21 60.4844 1255.07 59.9297C1255.94 59.3672 1256.88 59.0859 1257.89 59.0859C1259.54 59.0859 1260.82 59.6289 1261.73 60.7148C1262.64 61.8008 1263.1 63.3555 1263.1 65.3789V66.2812H1254.51C1254.54 67.5312 1254.91 68.543 1255.6 69.3164C1256.3 70.082 1257.2 70.4648 1258.27 70.4648C1259.04 70.4648 1259.69 70.3086 1260.22 69.9961C1260.75 69.6836 1261.21 69.2695 1261.61 68.7539L1262.94 69.7852C1261.88 71.418 1260.28 72.2344 1258.16 72.2344ZM1257.89 60.8672C1257.01 60.8672 1256.28 61.1875 1255.68 61.8281C1255.09 62.4609 1254.72 63.3516 1254.58 64.5H1260.93V64.3359C1260.87 63.2344 1260.57 62.3828 1260.04 61.7812C1259.51 61.1719 1258.79 60.8672 1257.89 60.8672ZM1267.67 59.3203L1267.74 60.9141C1268.71 59.6953 1269.98 59.0859 1271.54 59.0859C1274.22 59.0859 1275.57 60.5977 1275.59 63.6211V72H1273.43V63.6094C1273.42 62.6953 1273.21 62.0195 1272.79 61.582C1272.39 61.1445 1271.75 60.9258 1270.88 60.9258C1270.18 60.9258 1269.56 61.1133 1269.03 61.4883C1268.5 61.8633 1268.09 62.3555 1267.79 62.9648V72H1265.62V59.3203H1267.67ZM1278.34 65.5547C1278.34 63.6094 1278.8 62.0469 1279.72 60.8672C1280.64 59.6797 1281.85 59.0859 1283.34 59.0859C1284.82 59.0859 1286 59.5938 1286.87 60.6094V54H1289.04V72H1287.04L1286.94 70.6406C1286.07 71.7031 1284.86 72.2344 1283.32 72.2344C1281.85 72.2344 1280.65 71.6328 1279.72 70.4297C1278.8 69.2266 1278.34 67.6562 1278.34 65.7188V65.5547ZM1280.5 65.8008C1280.5 67.2383 1280.8 68.3633 1281.39 69.1758C1281.99 69.9883 1282.81 70.3945 1283.86 70.3945C1285.23 70.3945 1286.23 69.7773 1286.87 68.543V62.7188C1286.22 61.5234 1285.22 60.9258 1283.88 60.9258C1282.82 60.9258 1281.99 61.3359 1281.39 62.1562C1280.8 62.9766 1280.5 64.1914 1280.5 65.8008Z" fill="black"/>
<path d="M213.354 245.354C213.549 245.158 213.549 244.842 213.354 244.646L210.172 241.464C209.976 241.269 209.66 241.269 209.464 241.464C209.269 241.66 209.269 241.976 209.464 242.172L212.293 245L209.464 247.828C209.269 248.024 209.269 248.34 209.464 248.536C209.66 248.731 209.976 248.731 210.172 248.536L213.354 245.354ZM151 245.5H213V244.5H151V245.5Z" fill="black"/>
<path d="M130.646 244.646C130.451 244.842 130.451 245.158 130.646 245.354L133.828 248.536C134.024 248.731 134.34 248.731 134.536 248.536C134.731 248.34 134.731 248.024 134.536 247.828L131.707 245L134.536 242.172C134.731 241.976 134.731 241.66 134.536 241.464C134.34 241.269 134.024 241.269 133.828 241.464L130.646 244.646ZM171 244.5H131V245.5H171V244.5Z" fill="black"/>
<path d="M435.354 245.354C435.549 245.158 435.549 244.842 435.354 244.646L432.172 241.464C431.976 241.269 431.66 241.269 431.464 241.464C431.269 241.66 431.269 241.976 431.464 242.172L434.293 245L431.464 247.828C431.269 248.024 431.269 248.34 431.464 248.536C431.66 248.731 431.976 248.731 432.172 248.536L435.354 245.354ZM373 245.5H435V244.5H373V245.5Z" fill="black"/>
<path d="M352.646 244.646C352.451 244.842 352.451 245.158 352.646 245.354L355.828 248.536C356.024 248.731 356.34 248.731 356.536 248.536C356.731 248.34 356.731 248.024 356.536 247.828L353.707 245L356.536 242.172C356.731 241.976 356.731 241.66 356.536 241.464C356.34 241.269 356.024 241.269 355.828 241.464L352.646 244.646ZM393 244.5H353V245.5H393V244.5Z" fill="black"/>
<path d="M1175.45 157.211C1175.57 156.961 1175.46 156.664 1175.21 156.547L1171.13 154.644C1170.88 154.527 1170.59 154.635 1170.47 154.886C1170.35 155.136 1170.46 155.433 1170.71 155.55L1174.34 157.242L1172.64 160.866C1172.53 161.117 1172.64 161.414 1172.89 161.531C1173.14 161.648 1173.43 161.54 1173.55 161.289L1175.45 157.211ZM1067.05 196.787L1175.17 157.47L1174.83 156.53L1066.71 195.847L1067.05 196.787Z" fill="black"/>
<path d="M1031.55 208.789C1031.43 209.039 1031.54 209.336 1031.79 209.453L1035.87 211.356C1036.12 211.473 1036.41 211.365 1036.53 211.114C1036.65 210.864 1036.54 210.567 1036.29 210.45L1032.66 208.758L1034.36 205.134C1034.47 204.883 1034.36 204.586 1034.11 204.469C1033.86 204.352 1033.57 204.461 1033.45 204.711L1031.55 208.789ZM1101.59 183.164L1031.83 208.53L1032.17 209.47L1101.93 184.104L1101.59 183.164Z" fill="black"/>
<path d="M1175.16 340.474C1175.42 340.386 1175.56 340.102 1175.47 339.841L1174.04 335.575C1173.95 335.314 1173.67 335.173 1173.41 335.261C1173.14 335.349 1173 335.633 1173.09 335.894L1174.37 339.686L1170.58 340.961C1170.31 341.049 1170.17 341.333 1170.26 341.594C1170.35 341.856 1170.63 341.997 1170.89 341.909L1175.16 340.474ZM1066.66 286.765L1174.78 340.448L1175.22 339.552L1067.1 285.869L1066.66 286.765Z" fill="black"/>
<path d="M1031.84 268.526C1031.58 268.614 1031.44 268.898 1031.53 269.159L1032.96 273.425C1033.05 273.686 1033.33 273.827 1033.59 273.739C1033.86 273.651 1034 273.367 1033.91 273.106L1032.63 269.314L1036.42 268.039C1036.69 267.951 1036.83 267.667 1036.74 267.406C1036.65 267.144 1036.37 267.003 1036.11 267.091L1031.84 268.526ZM1101.98 303.186L1032.22 268.552L1031.78 269.448L1101.53 304.082L1101.98 303.186Z" fill="black"/>
<path d="M910.978 192.422C911.291 192.438 911.554 192.262 911.566 192.029L911.76 188.227C911.771 187.994 911.528 187.792 911.215 187.776C910.903 187.76 910.64 187.936 910.628 188.17L910.456 191.549L905.928 191.318C905.616 191.302 905.353 191.478 905.341 191.712C905.329 191.945 905.573 192.147 905.885 192.163L910.978 192.422ZM826.658 122.717L910.585 192.278L911.415 191.722L827.489 122.161L826.658 122.717Z" fill="black"/>
<path d="M800.022 99.5776C799.709 99.5617 799.446 99.7379 799.434 99.9712L799.24 103.773C799.229 104.006 799.472 104.208 799.785 104.224C800.097 104.24 800.36 104.064 800.372 103.83L800.544 100.451L805.072 100.682C805.384 100.698 805.647 100.522 805.659 100.288C805.671 100.055 805.427 99.8529 805.115 99.837L800.022 99.5776ZM854.562 144.6L800.415 99.7217L799.585 100.278L853.731 145.156L854.562 144.6Z" fill="black"/>
<path d="M910.978 192.422C911.291 192.438 911.554 192.262 911.566 192.029L911.76 188.227C911.771 187.994 911.528 187.792 911.215 187.776C910.903 187.76 910.64 187.936 910.628 188.17L910.456 191.549L905.928 191.318C905.616 191.302 905.353 191.478 905.341 191.712C905.329 191.945 905.573 192.147 905.885 192.163L910.978 192.422ZM826.658 122.717L910.585 192.278L911.415 191.722L827.489 122.161L826.658 122.717Z" fill="black"/>
<path d="M800.022 99.5776C799.709 99.5617 799.446 99.7379 799.434 99.9712L799.24 103.773C799.229 104.006 799.472 104.208 799.785 104.224C800.097 104.24 800.36 104.064 800.372 103.83L800.544 100.451L805.072 100.682C805.384 100.698 805.647 100.522 805.659 100.288C805.671 100.055 805.427 99.8529 805.115 99.837L800.022 99.5776ZM854.562 144.6L800.415 99.7217L799.585 100.278L853.731 145.156L854.562 144.6Z" fill="black"/>
<path d="M911.481 291.033C911.5 290.748 911.301 290.502 911.035 290.484L906.708 290.189C906.442 290.171 906.211 290.387 906.192 290.672C906.172 290.957 906.372 291.203 906.637 291.221L910.484 291.483L910.203 295.613C910.183 295.898 910.383 296.144 910.648 296.162C910.914 296.18 911.145 295.964 911.164 295.679L911.481 291.033ZM827.388 370.022L911.315 291.388L910.685 290.612L826.758 369.246L827.388 370.022Z" fill="black"/>
<path d="M799.519 394.967C799.5 395.252 799.699 395.498 799.965 395.516L804.292 395.811C804.558 395.829 804.789 395.613 804.808 395.328C804.828 395.043 804.628 394.797 804.363 394.779L800.516 394.517L800.797 390.387C800.817 390.102 800.617 389.856 800.352 389.838C800.086 389.82 799.855 390.036 799.836 390.321L799.519 394.967ZM853.831 343.88L799.685 394.612L800.315 395.388L854.461 344.657L853.831 343.88Z" fill="black"/>
<path d="M900.354 241.354C900.549 241.158 900.549 240.842 900.354 240.646L897.172 237.464C896.976 237.269 896.66 237.269 896.464 237.464C896.269 237.66 896.269 237.976 896.464 238.172L899.293 241L896.464 243.828C896.269 244.024 896.269 244.34 896.464 244.536C896.66 244.731 896.976 244.731 897.172 244.536L900.354 241.354ZM838 241.5H900V240.5H838V241.5Z" fill="black"/>
<path d="M817.646 240.646C817.451 240.842 817.451 241.158 817.646 241.354L820.828 244.536C821.024 244.731 821.34 244.731 821.536 244.536C821.731 244.34 821.731 244.024 821.536 243.828L818.707 241L821.536 238.172C821.731 237.976 821.731 237.66 821.536 237.464C821.34 237.269 821.024 237.269 820.828 237.464L817.646 240.646ZM858 240.5H818V241.5H858V240.5Z" fill="black"/>
<path d="M1245.65 276.354C1245.84 276.549 1246.16 276.549 1246.35 276.354L1249.54 273.172C1249.73 272.976 1249.73 272.66 1249.54 272.464C1249.34 272.269 1249.02 272.269 1248.83 272.464L1246 275.293L1243.17 272.464C1242.98 272.269 1242.66 272.269 1242.46 272.464C1242.27 272.66 1242.27 272.976 1242.46 273.172L1245.65 276.354ZM1245.5 225V276H1246.5V225H1245.5Z" fill="black"/>
<path opacity="0.4" d="M570.573 165.317C569.323 163.827 568.671 162.334 568.619 160.837C568.562 159.335 569.105 158.104 570.248 157.145C571.385 156.191 572.612 155.824 573.929 156.045L569.681 150.982L571.342 149.588L582.912 163.377L581.386 164.658L580.431 163.684C580.45 165.055 579.867 166.238 578.682 167.233C577.557 168.177 576.251 168.487 574.766 168.163C573.286 167.834 571.924 166.927 570.678 165.443L570.573 165.317ZM572.392 164.112C573.316 165.213 574.266 165.884 575.244 166.125C576.221 166.366 577.11 166.15 577.912 165.477C578.965 164.593 579.338 163.475 579.029 162.122L575.285 157.661C574.02 157.162 572.873 157.344 571.844 158.208C571.03 158.891 570.659 159.738 570.731 160.748C570.804 161.758 571.357 162.879 572.392 164.112ZM588.407 156.763C588.999 156.265 589.366 155.651 589.508 154.921C589.649 154.19 589.518 153.535 589.114 152.957L590.685 151.638C591.122 152.22 591.375 152.91 591.444 153.709C591.512 154.508 591.376 155.306 591.035 156.102C590.699 156.894 590.202 157.566 589.544 158.118C588.221 159.228 586.799 159.672 585.277 159.45C583.756 159.217 582.352 158.335 581.067 156.802L580.833 156.524C580.04 155.579 579.508 154.592 579.237 153.565C578.967 152.537 578.984 151.549 579.289 150.6C579.599 149.645 580.198 148.797 581.083 148.053C582.173 147.139 583.35 146.707 584.616 146.757C585.887 146.802 586.984 147.325 587.905 148.326L586.334 149.644C585.759 149.056 585.088 148.742 584.321 148.703C583.554 148.652 582.857 148.891 582.228 149.418C581.385 150.126 580.985 150.981 581.031 151.983C581.077 152.974 581.582 154.044 582.547 155.193L582.81 155.508C583.749 156.627 584.703 157.295 585.671 157.513C586.639 157.731 587.551 157.481 588.407 156.763ZM601.118 148.101C600.861 147.99 600.497 147.714 600.025 147.273C599.926 148.723 599.341 149.897 598.27 150.796C597.312 151.6 596.299 151.991 595.231 151.969C594.163 151.937 593.281 151.505 592.583 150.673C591.734 149.662 591.459 148.556 591.758 147.357C592.058 146.147 592.905 144.956 594.3 143.786L595.916 142.43L595.275 141.667C594.788 141.087 594.228 140.772 593.595 140.722C592.956 140.666 592.299 140.922 591.623 141.489C591.03 141.986 590.659 142.553 590.509 143.188C590.359 143.824 590.463 144.354 590.819 144.779L589.149 146.18C588.743 145.696 588.522 145.086 588.486 144.351C588.452 143.605 588.617 142.854 588.983 142.098C589.354 141.338 589.893 140.661 590.599 140.069C591.718 139.13 592.831 138.675 593.938 138.705C595.039 138.73 596.013 139.223 596.861 140.184L600.612 144.655C601.36 145.546 602.069 146.16 602.739 146.496L602.859 146.64L601.118 148.101ZM597.299 149.148C597.82 148.711 598.201 148.162 598.442 147.501C598.683 146.84 598.727 146.206 598.575 145.599L596.903 143.606L595.601 144.699C593.566 146.406 593.048 147.855 594.048 149.046C594.485 149.567 595 149.828 595.593 149.83C596.186 149.832 596.755 149.605 597.299 149.148ZM597.251 130.785L599.224 133.137L601.038 131.616L602.115 132.9L600.301 134.421L605.356 140.445C605.682 140.834 606.009 141.059 606.336 141.121C606.659 141.177 607.014 141.042 607.403 140.715C607.595 140.555 607.828 140.298 608.103 139.945L609.233 141.291C608.896 141.778 608.522 142.194 608.109 142.541C607.367 143.163 606.619 143.408 605.865 143.276C605.111 143.143 604.388 142.664 603.695 141.838L598.641 135.815L596.872 137.299L595.795 136.015L597.563 134.531L595.59 132.179L597.251 130.785ZM610.502 131.92L606.121 135.596L604.984 134.24L609.364 130.564L610.502 131.92ZM622.214 130.399C621.957 130.288 621.593 130.012 621.122 129.572C621.022 131.021 620.437 132.196 619.366 133.095C618.408 133.898 617.395 134.289 616.327 134.268C615.26 134.235 614.377 133.803 613.679 132.971C612.83 131.96 612.555 130.855 612.854 129.655C613.154 128.445 614.002 127.255 615.396 126.084L617.012 124.729L616.372 123.966C615.884 123.385 615.324 123.07 614.691 123.02C614.053 122.964 613.395 123.22 612.719 123.787C612.126 124.285 611.755 124.851 611.605 125.487C611.455 126.122 611.559 126.653 611.915 127.078L610.246 128.479C609.839 127.994 609.618 127.384 609.582 126.649C609.548 125.903 609.713 125.152 610.079 124.397C610.45 123.636 610.989 122.96 611.695 122.367C612.814 121.428 613.927 120.973 615.034 121.004C616.135 121.028 617.11 121.521 617.957 122.482L621.708 126.953C622.457 127.845 623.165 128.458 623.835 128.794L623.955 128.938L622.214 130.399ZM618.396 131.446C618.916 131.009 619.297 130.46 619.538 129.799C619.779 129.138 619.823 128.504 619.671 127.898L617.999 125.905L616.697 126.997C614.662 128.704 614.144 130.153 615.144 131.344C615.581 131.865 616.096 132.126 616.689 132.128C617.282 132.13 617.851 131.903 618.396 131.446ZM630.438 115.406C631.678 116.884 632.339 118.359 632.421 119.83C632.503 121.301 631.967 122.521 630.812 123.49C629.633 124.48 628.391 124.884 627.087 124.703L631.012 129.38L629.351 130.774L618.067 117.326L619.584 116.053L620.569 117.063C620.542 115.657 621.13 114.45 622.333 113.441C623.5 112.461 624.791 112.128 626.205 112.44C627.626 112.748 628.994 113.685 630.31 115.253L630.438 115.406ZM628.619 116.611C627.7 115.516 626.741 114.847 625.742 114.604C624.742 114.361 623.836 114.581 623.022 115.264C622.017 116.108 621.637 117.187 621.882 118.5L625.777 123.141C627.017 123.61 628.148 123.415 629.172 122.557C629.968 121.889 630.335 121.045 630.275 120.025C630.215 118.994 629.663 117.856 628.619 116.611ZM635.907 110.602L631.526 114.278L630.389 112.923L634.77 109.247L635.907 110.602ZM635.043 103.082L636.121 104.258C636.08 102.701 636.658 101.421 637.855 100.417C639.907 98.6943 641.914 98.9836 643.876 101.285L649.262 107.703L647.601 109.097L642.207 102.669C641.614 101.974 641.018 101.592 640.42 101.523C639.827 101.449 639.199 101.691 638.534 102.248C637.996 102.7 637.644 103.24 637.478 103.869C637.312 104.498 637.311 105.141 637.475 105.799L643.283 112.72L641.622 114.113L633.472 104.4L635.043 103.082ZM647.176 101.024C646.377 100.073 645.845 99.0613 645.578 97.9898C645.317 96.9134 645.346 95.89 645.664 94.9196C645.987 93.9443 646.577 93.0975 647.433 92.3794C648.756 91.2696 650.208 90.831 651.79 91.0637C653.379 91.2914 654.811 92.1653 656.086 93.6854L656.184 93.8021C656.977 94.7477 657.508 95.7507 657.776 96.8111C658.044 97.8605 658.016 98.8784 657.691 99.8648C657.373 100.846 656.776 101.703 655.903 102.437C654.586 103.541 653.134 103.98 651.545 103.752C649.963 103.52 648.539 102.649 647.274 101.141L647.176 101.024ZM649.011 99.8207C649.915 100.898 650.889 101.554 651.933 101.79C652.983 102.02 653.927 101.784 654.765 101.081C655.609 100.373 656.003 99.4814 655.948 98.4063C655.887 97.3252 655.357 96.1891 654.357 94.9982C653.464 93.9329 652.486 93.2845 651.425 93.0531C650.365 92.8106 649.416 93.0409 648.578 93.7439C647.758 94.4319 647.371 95.313 647.415 96.3871C647.46 97.4613 647.992 98.6058 649.011 99.8207Z" fill="black"/>
</svg>
