<svg width="751" height="122" viewBox="0 0 751 122" fill="none" xmlns="http://www.w3.org/2000/svg">
<circle cx="510.5" cy="60.5" r="60.5" fill="#C4C4C4"/>
<path d="M474.852 62.0977H470.844V69H468.582V51.9375H474.23C476.152 51.9375 477.629 52.375 478.66 53.25C479.699 54.125 480.219 55.3984 480.219 57.0703C480.219 58.1328 479.93 59.0586 479.352 59.8477C478.781 60.6367 477.984 61.2266 476.961 61.6172L480.969 68.8594V69H478.555L474.852 62.0977ZM470.844 60.2578H474.301C475.418 60.2578 476.305 59.9688 476.961 59.3906C477.625 58.8125 477.957 58.0391 477.957 57.0703C477.957 56.0156 477.641 55.207 477.008 54.6445C476.383 54.082 475.477 53.7969 474.289 53.7891H470.844V60.2578ZM483.383 69V51.9375H488.199C489.684 51.9375 490.996 52.2656 492.137 52.9219C493.277 53.5781 494.156 54.5117 494.773 55.7227C495.398 56.9336 495.715 58.3242 495.723 59.8945V60.9844C495.723 62.5938 495.41 64.0039 494.785 65.2148C494.168 66.4258 493.281 67.3555 492.125 68.0039C490.977 68.6523 489.637 68.9844 488.105 69H483.383ZM485.633 53.7891V67.1602H488C489.734 67.1602 491.082 66.6211 492.043 65.543C493.012 64.4648 493.496 62.9297 493.496 60.9375V59.9414C493.496 58.0039 493.039 56.5 492.125 55.4297C491.219 54.3516 489.93 53.8047 488.258 53.7891H485.633ZM508.543 61.4648H501.383V69H499.133V51.9375H509.703V53.7891H501.383V59.625H508.543V61.4648ZM516.57 62.6367H510.852V60.8672H516.57V62.6367ZM528.453 64.5469H521.305L519.699 69H517.379L523.895 51.9375H525.863L532.391 69H530.082L528.453 64.5469ZM521.984 62.6953H527.785L524.879 54.7148L521.984 62.6953ZM536.938 62.3203V69H534.688V51.9375H540.98C542.848 51.9375 544.309 52.4141 545.363 53.3672C546.426 54.3203 546.957 55.582 546.957 57.1523C546.957 58.8086 546.438 60.0859 545.398 60.9844C544.367 61.875 542.887 62.3203 540.957 62.3203H536.938ZM536.938 60.4805H540.98C542.184 60.4805 543.105 60.1992 543.746 59.6367C544.387 59.0664 544.707 58.2461 544.707 57.1758C544.707 56.1602 544.387 55.3477 543.746 54.7383C543.105 54.1289 542.227 53.8125 541.109 53.7891H536.938V60.4805ZM552.242 69H549.992V51.9375H552.242V69Z" fill="black"/>
<path d="M717.859 61.4648H710.699V69H708.449V51.9375H719.02V53.7891H710.699V59.625H717.859V61.4648ZM721.715 69V51.9375H726.531C728.016 51.9375 729.328 52.2656 730.469 52.9219C731.609 53.5781 732.488 54.5117 733.105 55.7227C733.73 56.9336 734.047 58.3242 734.055 59.8945V60.9844C734.055 62.5938 733.742 64.0039 733.117 65.2148C732.5 66.4258 731.613 67.3555 730.457 68.0039C729.309 68.6523 727.969 68.9844 726.438 69H721.715ZM723.965 53.7891V67.1602H726.332C728.066 67.1602 729.414 66.6211 730.375 65.543C731.344 64.4648 731.828 62.9297 731.828 60.9375V59.9414C731.828 58.0039 731.371 56.5 730.457 55.4297C729.551 54.3516 728.262 53.8047 726.59 53.7891H723.965ZM741.801 61.0664L739.715 63.2344V69H737.465V51.9375H739.715V60.375L747.297 51.9375H750.016L743.301 59.4727L750.543 69H747.848L741.801 61.0664Z" fill="black"/>
<circle cx="285.5" cy="60.5" r="60.5" fill="#C4C4C4"/>
<path d="M278.234 64.5469H271.086L269.48 69H267.16L273.676 51.9375H275.645L282.172 69H279.863L278.234 64.5469ZM271.766 62.6953H277.566L274.66 54.7148L271.766 62.6953ZM286.719 62.3203V69H284.469V51.9375H290.762C292.629 51.9375 294.09 52.4141 295.145 53.3672C296.207 54.3203 296.738 55.582 296.738 57.1523C296.738 58.8086 296.219 60.0859 295.18 60.9844C294.148 61.875 292.668 62.3203 290.738 62.3203H286.719ZM286.719 60.4805H290.762C291.965 60.4805 292.887 60.1992 293.527 59.6367C294.168 59.0664 294.488 58.2461 294.488 57.1758C294.488 56.1602 294.168 55.3477 293.527 54.7383C292.887 54.1289 292.008 53.8125 290.891 53.7891H286.719V60.4805ZM302.023 69H299.773V51.9375H302.023V69Z" fill="black"/>
<path d="M42.1914 75.7617C41.6133 76.5898 40.8047 77.2109 39.7656 77.625C38.7344 78.0312 37.5312 78.2344 36.1562 78.2344C34.7656 78.2344 33.5312 77.9102 32.4531 77.2617C31.375 76.6055 30.5391 75.6758 29.9453 74.4727C29.3594 73.2695 29.0586 71.875 29.043 70.2891V68.8008C29.043 66.2305 29.6406 64.2383 30.8359 62.8242C32.0391 61.4102 33.7266 60.7031 35.8984 60.7031C37.6797 60.7031 39.1133 61.1602 40.1992 62.0742C41.2852 62.9805 41.9492 64.2695 42.1914 65.9414H39.9414C39.5195 63.6836 38.1758 62.5547 35.9102 62.5547C34.4023 62.5547 33.2578 63.0859 32.4766 64.1484C31.7031 65.2031 31.3125 66.7344 31.3047 68.7422V70.1367C31.3047 72.0508 31.7422 73.5742 32.6172 74.707C33.4922 75.832 34.6758 76.3945 36.168 76.3945C37.0117 76.3945 37.75 76.3008 38.3828 76.1133C39.0156 75.9258 39.5391 75.6094 39.9531 75.1641V71.332H36.0039V69.5039H42.1914V75.7617ZM51.7422 67.2656C51.4141 67.2109 51.0586 67.1836 50.6758 67.1836C49.2539 67.1836 48.2891 67.7891 47.7812 69V78H45.6133V65.3203H47.7227L47.7578 66.7852C48.4688 65.6523 49.4766 65.0859 50.7812 65.0859C51.2031 65.0859 51.5234 65.1406 51.7422 65.25V67.2656ZM61.1055 78C60.9805 77.75 60.8789 77.3047 60.8008 76.6641C59.793 77.7109 58.5898 78.2344 57.1914 78.2344C55.9414 78.2344 54.9141 77.8828 54.1094 77.1797C53.3125 76.4688 52.9141 75.5703 52.9141 74.4844C52.9141 73.1641 53.4141 72.1406 54.4141 71.4141C55.4219 70.6797 56.8359 70.3125 58.6562 70.3125H60.7656V69.3164C60.7656 68.5586 60.5391 67.957 60.0859 67.5117C59.6328 67.0586 58.9648 66.832 58.082 66.832C57.3086 66.832 56.6602 67.0273 56.1367 67.418C55.6133 67.8086 55.3516 68.2812 55.3516 68.8359H53.1719C53.1719 68.2031 53.3945 67.5938 53.8398 67.0078C54.293 66.4141 54.9023 65.9453 55.668 65.6016C56.4414 65.2578 57.2891 65.0859 58.2109 65.0859C59.6719 65.0859 60.8164 65.4531 61.6445 66.1875C62.4727 66.9141 62.9023 67.918 62.9336 69.1992V75.0352C62.9336 76.1992 63.082 77.125 63.3789 77.8125V78H61.1055ZM57.5078 76.3477C58.1875 76.3477 58.832 76.1719 59.4414 75.8203C60.0508 75.4688 60.4922 75.0117 60.7656 74.4492V71.8477H59.0664C56.4102 71.8477 55.082 72.625 55.082 74.1797C55.082 74.8594 55.3086 75.3906 55.7617 75.7734C56.2148 76.1562 56.7969 76.3477 57.5078 76.3477ZM77.043 71.8008C77.043 73.7305 76.6016 75.2852 75.7188 76.4648C74.8359 77.6445 73.6406 78.2344 72.1328 78.2344C70.5938 78.2344 69.3828 77.7461 68.5 76.7695V82.875H66.332V65.3203H68.3125L68.418 66.7266C69.3008 65.6328 70.5273 65.0859 72.0977 65.0859C73.6211 65.0859 74.8242 65.6602 75.707 66.8086C76.5977 67.957 77.043 69.5547 77.043 71.6016V71.8008ZM74.875 71.5547C74.875 70.125 74.5703 68.9961 73.9609 68.168C73.3516 67.3398 72.5156 66.9258 71.4531 66.9258C70.1406 66.9258 69.1562 67.5078 68.5 68.6719V74.7305C69.1484 75.8867 70.1406 76.4648 71.4766 76.4648C72.5156 76.4648 73.3398 76.0547 73.9492 75.2344C74.5664 74.4062 74.875 73.1797 74.875 71.5547ZM81.9766 66.8555C82.9375 65.6758 84.1875 65.0859 85.7266 65.0859C88.4062 65.0859 89.7578 66.5977 89.7812 69.6211V78H87.6133V69.6094C87.6055 68.6953 87.3945 68.0195 86.9805 67.582C86.5742 67.1445 85.9375 66.9258 85.0703 66.9258C84.3672 66.9258 83.75 67.1133 83.2188 67.4883C82.6875 67.8633 82.2734 68.3555 81.9766 68.9648V78H79.8086V60H81.9766V66.8555Z" fill="black"/>
<circle cx="60.5" cy="61.5" r="60.5" fill="#C4C4C4"/>
<path d="M29.1523 47.3945C27.2227 46.8398 25.8164 46.1602 24.9336 45.3555C24.0586 44.543 23.6211 43.543 23.6211 42.3555C23.6211 41.0117 24.1562 39.9023 25.2266 39.0273C26.3047 38.1445 27.7031 37.7031 29.4219 37.7031C30.5938 37.7031 31.6367 37.9297 32.5508 38.3828C33.4727 38.8359 34.1836 39.4609 34.6836 40.2578C35.1914 41.0547 35.4453 41.9258 35.4453 42.8711H33.1836C33.1836 41.8398 32.8555 41.0312 32.1992 40.4453C31.543 39.8516 30.6172 39.5547 29.4219 39.5547C28.3125 39.5547 27.4453 39.8008 26.8203 40.293C26.2031 40.7773 25.8945 41.4531 25.8945 42.3203C25.8945 43.0156 26.1875 43.6055 26.7734 44.0898C27.3672 44.5664 28.3711 45.0039 29.7852 45.4023C31.207 45.8008 32.3164 46.2422 33.1133 46.7266C33.918 47.2031 34.5117 47.7617 34.8945 48.4023C35.2852 49.043 35.4805 49.7969 35.4805 50.6641C35.4805 52.0469 34.9414 53.1562 33.8633 53.9922C32.7852 54.8203 31.3438 55.2344 29.5391 55.2344C28.3672 55.2344 27.2734 55.0117 26.2578 54.5664C25.2422 54.1133 24.457 53.4961 23.9023 52.7148C23.3555 51.9336 23.082 51.0469 23.082 50.0547H25.3438C25.3438 51.0859 25.7227 51.9023 26.4805 52.5039C27.2461 53.0977 28.2656 53.3945 29.5391 53.3945C30.7266 53.3945 31.6367 53.1523 32.2695 52.668C32.9023 52.1836 33.2188 51.5234 33.2188 50.6875C33.2188 49.8516 32.9258 49.207 32.3398 48.7539C31.7539 48.293 30.6914 47.8398 29.1523 47.3945ZM43.2969 55.2344C41.5781 55.2344 40.1797 54.6719 39.1016 53.5469C38.0234 52.4141 37.4844 50.9023 37.4844 49.0117V48.6133C37.4844 47.3555 37.7227 46.2344 38.1992 45.25C38.6836 44.2578 39.3555 43.4844 40.2148 42.9297C41.082 42.3672 42.0195 42.0859 43.0273 42.0859C44.6758 42.0859 45.957 42.6289 46.8711 43.7148C47.7852 44.8008 48.2422 46.3555 48.2422 48.3789V49.2812H39.6523C39.6836 50.5312 40.0469 51.543 40.7422 52.3164C41.4453 53.082 42.3359 53.4648 43.4141 53.4648C44.1797 53.4648 44.8281 53.3086 45.3594 52.9961C45.8906 52.6836 46.3555 52.2695 46.7539 51.7539L48.0781 52.7852C47.0156 54.418 45.4219 55.2344 43.2969 55.2344ZM43.0273 43.8672C42.1523 43.8672 41.418 44.1875 40.8242 44.8281C40.2305 45.4609 39.8633 46.3516 39.7227 47.5H46.0742V47.3359C46.0117 46.2344 45.7148 45.3828 45.1836 44.7812C44.6523 44.1719 43.9336 43.8672 43.0273 43.8672ZM58.5898 55C58.4648 54.75 58.3633 54.3047 58.2852 53.6641C57.2773 54.7109 56.0742 55.2344 54.6758 55.2344C53.4258 55.2344 52.3984 54.8828 51.5938 54.1797C50.7969 53.4688 50.3984 52.5703 50.3984 51.4844C50.3984 50.1641 50.8984 49.1406 51.8984 48.4141C52.9062 47.6797 54.3203 47.3125 56.1406 47.3125H58.25V46.3164C58.25 45.5586 58.0234 44.957 57.5703 44.5117C57.1172 44.0586 56.4492 43.832 55.5664 43.832C54.793 43.832 54.1445 44.0273 53.6211 44.418C53.0977 44.8086 52.8359 45.2812 52.8359 45.8359H50.6562C50.6562 45.2031 50.8789 44.5938 51.3242 44.0078C51.7773 43.4141 52.3867 42.9453 53.1523 42.6016C53.9258 42.2578 54.7734 42.0859 55.6953 42.0859C57.1562 42.0859 58.3008 42.4531 59.1289 43.1875C59.957 43.9141 60.3867 44.918 60.418 46.1992V52.0352C60.418 53.1992 60.5664 54.125 60.8633 54.8125V55H58.5898ZM54.9922 53.3477C55.6719 53.3477 56.3164 53.1719 56.9258 52.8203C57.5352 52.4688 57.9766 52.0117 58.25 51.4492V48.8477H56.5508C53.8945 48.8477 52.5664 49.625 52.5664 51.1797C52.5664 51.8594 52.793 52.3906 53.2461 52.7734C53.6992 53.1562 54.2812 53.3477 54.9922 53.3477ZM69.9453 44.2656C69.6172 44.2109 69.2617 44.1836 68.8789 44.1836C67.457 44.1836 66.4922 44.7891 65.9844 46V55H63.8164V42.3203H65.9258L65.9609 43.7852C66.6719 42.6523 67.6797 42.0859 68.9844 42.0859C69.4062 42.0859 69.7266 42.1406 69.9453 42.25V44.2656ZM76.8008 53.4648C77.5742 53.4648 78.25 53.2305 78.8281 52.7617C79.4062 52.293 79.7266 51.707 79.7891 51.0039H81.8398C81.8008 51.7305 81.5508 52.4219 81.0898 53.0781C80.6289 53.7344 80.0117 54.2578 79.2383 54.6484C78.4727 55.0391 77.6602 55.2344 76.8008 55.2344C75.0742 55.2344 73.6992 54.6602 72.6758 53.5117C71.6602 52.3555 71.1523 50.7773 71.1523 48.7773V48.4141C71.1523 47.1797 71.3789 46.082 71.832 45.1211C72.2852 44.1602 72.9336 43.4141 73.7773 42.8828C74.6289 42.3516 75.6328 42.0859 76.7891 42.0859C78.2109 42.0859 79.3906 42.5117 80.3281 43.3633C81.2734 44.2148 81.7773 45.3203 81.8398 46.6797H79.7891C79.7266 45.8594 79.4141 45.1875 78.8516 44.6641C78.2969 44.1328 77.6094 43.8672 76.7891 43.8672C75.6875 43.8672 74.832 44.2656 74.2227 45.0625C73.6211 45.8516 73.3203 46.9961 73.3203 48.4961V48.9062C73.3203 50.3672 73.6211 51.4922 74.2227 52.2812C74.8242 53.0703 75.6836 53.4648 76.8008 53.4648ZM86.4453 43.8555C87.4062 42.6758 88.6562 42.0859 90.1953 42.0859C92.875 42.0859 94.2266 43.5977 94.25 46.6211V55H92.082V46.6094C92.0742 45.6953 91.8633 45.0195 91.4492 44.582C91.043 44.1445 90.4062 43.9258 89.5391 43.9258C88.8359 43.9258 88.2188 44.1133 87.6875 44.4883C87.1562 44.8633 86.7422 45.3555 86.4453 45.9648V55H84.2773V37H86.4453V43.8555ZM34.3672 83H32.1992V70.3203H34.3672V83ZM32.0234 66.957C32.0234 66.6055 32.1289 66.3086 32.3398 66.0664C32.5586 65.8242 32.8789 65.7031 33.3008 65.7031C33.7227 65.7031 34.043 65.8242 34.2617 66.0664C34.4805 66.3086 34.5898 66.6055 34.5898 66.957C34.5898 67.3086 34.4805 67.6016 34.2617 67.8359C34.043 68.0703 33.7227 68.1875 33.3008 68.1875C32.8789 68.1875 32.5586 68.0703 32.3398 67.8359C32.1289 67.6016 32.0234 67.3086 32.0234 66.957ZM39.8984 70.3203L39.9688 71.9141C40.9375 70.6953 42.2031 70.0859 43.7656 70.0859C46.4453 70.0859 47.7969 71.5977 47.8203 74.6211V83H45.6523V74.6094C45.6445 73.6953 45.4336 73.0195 45.0195 72.582C44.6133 72.1445 43.9766 71.9258 43.1094 71.9258C42.4062 71.9258 41.7891 72.1133 41.2578 72.4883C40.7266 72.8633 40.3125 73.3555 40.0156 73.9648V83H37.8477V70.3203H39.8984ZM50.5625 76.5547C50.5625 74.6094 51.0234 73.0469 51.9453 71.8672C52.8672 70.6797 54.0742 70.0859 55.5664 70.0859C57.0508 70.0859 58.2266 70.5938 59.0938 71.6094V65H61.2617V83H59.2695L59.1641 81.6406C58.2969 82.7031 57.0898 83.2344 55.543 83.2344C54.0742 83.2344 52.875 82.6328 51.9453 81.4297C51.0234 80.2266 50.5625 78.6562 50.5625 76.7188V76.5547ZM52.7305 76.8008C52.7305 78.2383 53.0273 79.3633 53.6211 80.1758C54.2148 80.9883 55.0352 81.3945 56.082 81.3945C57.457 81.3945 58.4609 80.7773 59.0938 79.543V73.7188C58.4453 72.5234 57.4492 71.9258 56.1055 71.9258C55.043 71.9258 54.2148 72.3359 53.6211 73.1562C53.0273 73.9766 52.7305 75.1914 52.7305 76.8008ZM69.8984 83.2344C68.1797 83.2344 66.7812 82.6719 65.7031 81.5469C64.625 80.4141 64.0859 78.9023 64.0859 77.0117V76.6133C64.0859 75.3555 64.3242 74.2344 64.8008 73.25C65.2852 72.2578 65.957 71.4844 66.8164 70.9297C67.6836 70.3672 68.6211 70.0859 69.6289 70.0859C71.2773 70.0859 72.5586 70.6289 73.4727 71.7148C74.3867 72.8008 74.8438 74.3555 74.8438 76.3789V77.2812H66.2539C66.2852 78.5312 66.6484 79.543 67.3438 80.3164C68.0469 81.082 68.9375 81.4648 70.0156 81.4648C70.7812 81.4648 71.4297 81.3086 71.9609 80.9961C72.4922 80.6836 72.957 80.2695 73.3555 79.7539L74.6797 80.7852C73.6172 82.418 72.0234 83.2344 69.8984 83.2344ZM69.6289 71.8672C68.7539 71.8672 68.0195 72.1875 67.4258 72.8281C66.832 73.4609 66.4648 74.3516 66.3242 75.5H72.6758V75.3359C72.6133 74.2344 72.3164 73.3828 71.7852 72.7812C71.2539 72.1719 70.5352 71.8672 69.6289 71.8672ZM81.6172 74.9492L84.4297 70.3203H86.9609L82.8125 76.5898L87.0898 83H84.582L81.6523 78.2539L78.7227 83H76.2031L80.4805 76.5898L76.332 70.3203H78.8398L81.6172 74.9492Z" fill="black"/>
<path d="M214.354 61.3536C214.549 61.1583 214.549 60.8417 214.354 60.6464L211.172 57.4645C210.976 57.2692 210.66 57.2692 210.464 57.4645C210.269 57.6597 210.269 57.9763 210.464 58.1716L213.293 61L210.464 63.8284C210.269 64.0237 210.269 64.3403 210.464 64.5355C210.66 64.7308 210.976 64.7308 211.172 64.5355L214.354 61.3536ZM152 61.5H214V60.5H152V61.5Z" fill="black"/>
<path d="M131.646 60.6464C131.451 60.8417 131.451 61.1583 131.646 61.3536L134.828 64.5355C135.024 64.7308 135.34 64.7308 135.536 64.5355C135.731 64.3403 135.731 64.0237 135.536 63.8284L132.707 61L135.536 58.1716C135.731 57.9763 135.731 57.6597 135.536 57.4645C135.34 57.2692 135.024 57.2692 134.828 57.4645L131.646 60.6464ZM172 60.5L132 60.5V61.5L172 61.5V60.5Z" fill="black"/>
<path d="M668.354 62.3536C668.549 62.1583 668.549 61.8417 668.354 61.6464L665.172 58.4645C664.976 58.2692 664.66 58.2692 664.464 58.4645C664.269 58.6597 664.269 58.9763 664.464 59.1716L667.293 62L664.464 64.8284C664.269 65.0237 664.269 65.3403 664.464 65.5355C664.66 65.7308 664.976 65.7308 665.172 65.5355L668.354 62.3536ZM606 62.5H668V61.5H606V62.5Z" fill="black"/>
<path d="M585.646 61.6464C585.451 61.8417 585.451 62.1583 585.646 62.3536L588.828 65.5355C589.024 65.7308 589.34 65.7308 589.536 65.5355C589.731 65.3403 589.731 65.0237 589.536 64.8284L586.707 62L589.536 59.1716C589.731 58.9763 589.731 58.6597 589.536 58.4645C589.34 58.2692 589.024 58.2692 588.828 58.4645L585.646 61.6464ZM626 61.5L586 61.5V62.5L626 62.5V61.5Z" fill="black"/>
<path d="M439.354 61.3536C439.549 61.1583 439.549 60.8417 439.354 60.6464L436.172 57.4645C435.976 57.2692 435.66 57.2692 435.464 57.4645C435.269 57.6597 435.269 57.9763 435.464 58.1716L438.293 61L435.464 63.8284C435.269 64.0237 435.269 64.3403 435.464 64.5355C435.66 64.7308 435.976 64.7308 436.172 64.5355L439.354 61.3536ZM377 61.5H439V60.5H377V61.5Z" fill="black"/>
<path d="M356.646 60.6464C356.451 60.8417 356.451 61.1583 356.646 61.3536L359.828 64.5355C360.024 64.7308 360.34 64.7308 360.536 64.5355C360.731 64.3403 360.731 64.0237 360.536 63.8284L357.707 61L360.536 58.1716C360.731 57.9763 360.731 57.6597 360.536 57.4645C360.34 57.2692 360.024 57.2692 359.828 57.4645L356.646 60.6464ZM397 60.5L357 60.5V61.5L397 61.5V60.5Z" fill="black"/>
</svg>
